<svg width="1200" height="540" viewBox="0 0 1200 540" fill="none" xmlns="http://www.w3.org/2000/svg">
<path fill-rule="evenodd" clip-rule="evenodd" d="M0 309L95.8467 48.1953C108.009 17.7457 130.683 0.509338 160.825 0.0111084V0L161.499 0.00274658L162.174 0V0.0111084C192.316 0.509338 214.99 17.7457 227.152 48.1953L322.999 309L263.647 288.499L181.771 65.7095C176.788 53.3868 171.035 48.951 161.499 48.755C151.963 48.951 146.211 53.3868 141.228 65.7095L59.3516 288.499L0 309ZM203.204 209.691C203.204 232.472 184.784 250.939 162.062 250.939C139.341 250.939 120.921 232.472 120.921 209.691C120.921 186.91 139.341 168.443 162.062 168.443C184.784 168.443 203.204 186.91 203.204 209.691Z" transform="translate(196 115)" fill="url(#paint0_linear)"/>
<mask id="mask0" mask-type="alpha" maskUnits="userSpaceOnUse" x="196" y="115" width="323" height="309">
<path fill-rule="evenodd" clip-rule="evenodd" d="M0 309L95.8467 48.1953C108.009 17.7457 130.683 0.509338 160.825 0.0111084V0L161.499 0.00274658L162.174 0V0.0111084C192.316 0.509338 214.99 17.7457 227.152 48.1953L322.999 309L263.647 288.499L181.771 65.7095C176.788 53.3868 171.035 48.951 161.499 48.755C151.963 48.951 146.211 53.3868 141.228 65.7095L59.3516 288.499L0 309ZM203.204 209.691C203.204 232.472 184.784 250.939 162.062 250.939C139.341 250.939 120.921 232.472 120.921 209.691C120.921 186.91 139.341 168.443 162.062 168.443C184.784 168.443 203.204 186.91 203.204 209.691Z" transform="translate(196 115)" fill="white"/>
</mask>
<g mask="url(#mask0)">
</g>
<path d="M221.227 97.6895H189.123L183.019 116H163.549L196.63 27.1328H213.598L246.862 116H227.392L221.227 97.6895ZM194.066 82.8579H216.283L205.114 49.5938L194.066 82.8579ZM274.022 33.7246V49.96H285.314V62.8994H274.022V95.8584C274.022 98.2998 274.49 100.049 275.426 101.107C276.362 102.165 278.153 102.694 280.797 102.694C282.75 102.694 284.48 102.552 285.985 102.267V115.634C282.527 116.692 278.966 117.221 275.304 117.221C262.934 117.221 256.627 110.975 256.383 98.4829V62.8994H246.74V49.96H256.383V33.7246H274.022ZM290.563 82.3696C290.563 75.8185 291.824 69.9795 294.347 64.8525C296.87 59.7256 300.491 55.7583 305.211 52.9507C309.972 50.1431 315.486 48.7393 321.752 48.7393C330.663 48.7393 337.926 51.4655 343.542 56.918C349.197 62.3704 352.351 69.776 353.002 79.1348L353.124 83.6514C353.124 93.7832 350.296 101.921 344.64 108.065C338.984 114.169 331.396 117.221 321.874 117.221C312.353 117.221 304.743 114.169 299.047 108.065C293.391 101.962 290.563 93.6611 290.563 83.1631V82.3696ZM308.202 83.6514C308.202 89.9176 309.382 94.7191 311.742 98.0557C314.102 101.352 317.479 103 321.874 103C326.146 103 329.483 101.372 331.884 98.1167C334.285 94.8208 335.485 89.5718 335.485 82.3696C335.485 76.2254 334.285 71.4647 331.884 68.0874C329.483 64.7101 326.106 63.0215 321.752 63.0215C317.439 63.0215 314.102 64.7101 311.742 68.0874C309.382 71.424 308.202 76.612 308.202 83.6514ZM380.529 49.96L381.078 57.3452C385.757 51.6079 392.085 48.7393 400.06 48.7393C408.564 48.7393 414.403 52.0962 417.577 58.8101C422.216 52.0962 428.828 48.7393 437.414 48.7393C444.575 48.7393 449.905 50.8348 453.405 55.0259C456.904 59.1763 458.654 65.4425 458.654 73.8247V116H440.954V73.8857C440.954 70.1423 440.221 67.416 438.756 65.707C437.292 63.9574 434.708 63.0825 431.005 63.0825C425.715 63.0825 422.053 65.6053 420.019 70.6509L420.08 116H402.44V73.9468C402.44 70.1219 401.688 67.355 400.182 65.646C398.677 63.937 396.113 63.0825 392.492 63.0825C387.487 63.0825 383.865 65.1577 381.627 69.3081V116H363.988V49.96H380.529ZM490.88 116H473.18V49.96H490.88V116ZM472.143 32.8701C472.143 30.2253 473.017 28.0483 474.767 26.3394C476.557 24.6304 478.979 23.7759 482.03 23.7759C485.041 23.7759 487.442 24.6304 489.232 26.3394C491.023 28.0483 491.918 30.2253 491.918 32.8701C491.918 35.5557 491.002 37.7529 489.171 39.4619C487.381 41.1709 485.001 42.0254 482.03 42.0254C479.06 42.0254 476.659 41.1709 474.828 39.4619C473.038 37.7529 472.143 35.5557 472.143 32.8701ZM532.934 103C536.189 103 538.834 102.104 540.868 100.314C542.903 98.5236 543.961 96.1432 544.042 93.1729H560.583C560.542 97.6488 559.321 101.758 556.92 105.502C554.52 109.205 551.224 112.094 547.033 114.169C542.882 116.203 538.284 117.221 533.239 117.221C523.799 117.221 516.352 114.23 510.9 108.249C505.447 102.226 502.721 93.9256 502.721 83.3462V82.1865C502.721 72.014 505.427 63.8963 510.839 57.8335C516.251 51.7707 523.677 48.7393 533.117 48.7393C541.377 48.7393 547.989 51.0993 552.953 55.8193C557.958 60.4987 560.501 66.7446 560.583 74.5571H544.042C543.961 71.1392 542.903 68.3722 540.868 66.2563C538.834 64.0998 536.148 63.0215 532.812 63.0215C528.702 63.0215 525.589 64.527 523.473 67.5381C521.398 70.5085 520.36 75.3506 520.36 82.0645V83.8955C520.36 90.6908 521.398 95.5736 523.473 98.5439C525.548 101.514 528.702 103 532.934 103ZM265.355 236.365L277.318 173.133H295.568L275.854 262H257.421L242.956 202.552L228.49 262H210.058L190.343 173.133H208.593L220.617 236.243L235.265 173.133H250.768L265.355 236.365ZM340.551 262C339.737 260.413 339.147 258.44 338.781 256.08C334.508 260.84 328.954 263.221 322.118 263.221C315.648 263.221 310.277 261.349 306.005 257.605C301.773 253.862 299.657 249.142 299.657 243.445C299.657 236.447 302.241 231.076 307.409 227.332C312.617 223.589 320.124 221.696 329.931 221.656H338.048V217.872C338.048 214.82 337.255 212.378 335.668 210.547C334.122 208.716 331.66 207.801 328.283 207.801C325.312 207.801 322.973 208.513 321.264 209.937C319.595 211.361 318.761 213.314 318.761 215.796H301.122C301.122 211.972 302.302 208.431 304.662 205.176C307.022 201.921 310.359 199.378 314.672 197.547C318.985 195.675 323.827 194.739 329.198 194.739C337.336 194.739 343.786 196.794 348.546 200.904C353.348 204.973 355.749 210.71 355.749 218.116V246.741C355.789 253.007 356.664 257.748 358.373 260.962V262H340.551ZM325.963 249.732C328.568 249.732 330.968 249.162 333.166 248.023C335.363 246.843 336.99 245.276 338.048 243.323V231.971H331.457C322.627 231.971 317.927 235.022 317.357 241.126L317.296 242.164C317.296 244.361 318.069 246.172 319.616 247.596C321.162 249.02 323.278 249.732 325.963 249.732ZM387.914 262H370.214V168.25H387.914V262ZM421.117 262H403.417V168.25H421.117V262ZM466.1 263.221C456.416 263.221 448.522 260.25 442.418 254.31C436.356 248.369 433.324 240.455 433.324 230.567V228.858C433.324 222.225 434.606 216.305 437.169 211.097C439.733 205.848 443.354 201.819 448.034 199.012C452.754 196.163 458.125 194.739 464.147 194.739C473.18 194.739 480.281 197.588 485.448 203.284C490.657 208.981 493.261 217.058 493.261 227.515V234.717H451.208C451.777 239.03 453.486 242.489 456.334 245.093C459.223 247.697 462.865 249 467.26 249C474.055 249 479.365 246.538 483.19 241.614L491.857 251.319C489.212 255.062 485.631 257.992 481.115 260.108C476.598 262.183 471.593 263.221 466.1 263.221ZM464.086 209.021C460.587 209.021 457.738 210.201 455.541 212.562C453.384 214.922 452.001 218.299 451.391 222.693H475.927V221.29C475.845 217.383 474.787 214.372 472.753 212.256C470.718 210.1 467.829 209.021 464.086 209.021ZM524.45 179.725V195.96H535.741V208.899H524.45V241.858C524.45 244.3 524.918 246.049 525.854 247.107C526.789 248.165 528.58 248.694 531.225 248.694C533.178 248.694 534.907 248.552 536.413 248.267V261.634C532.954 262.692 529.394 263.221 525.731 263.221C513.362 263.221 507.055 256.975 506.811 244.483V208.899H497.167V195.96H506.811V179.725H524.45Z" transform="translate(357 120)" fill="url(#paint1_linear)"/>
<defs>
<linearGradient id="paint0_linear" x2="1" gradientUnits="userSpaceOnUse" gradientTransform="translate(161.5) scale(322.999 309) rotate(90)">
<stop stop-color="#42C1FD"/>
<stop offset="1" stop-color="#1F8EFA"/>
</linearGradient>
<linearGradient id="paint1_linear" x2="1" gradientUnits="userSpaceOnUse" gradientTransform="matrix(-38.5 -179 1024.67 -220.39 -62.3346 289.195)">
<stop stop-color="#2293FB"/>
<stop offset="0.922652" stop-color="#40BFFE"/>
</linearGradient>
</defs>
</svg>
