<?xml version="1.0" encoding="utf-8"?>
<!-- Generator: Adobe Illustrator 15.0.0, SVG Export Plug-In . SVG Version: 6.00 Build 0)  -->
<!DOCTYPE svg PUBLIC "-//W3C//DTD SVG 1.1//EN" "http://www.w3.org/Graphics/SVG/1.1/DTD/svg11.dtd">
<svg version="1.1" id="图层_2" xmlns="http://www.w3.org/2000/svg" xmlns:xlink="http://www.w3.org/1999/xlink" x="0px" y="0px"
	 width="235px" height="90px" viewBox="0 0 235 90" enable-background="new 0 0 235 90" xml:space="preserve">
<g>
	<g>
		<path fill="#7F7F7F" d="M73.591,25.248l3.203-0.133c0.94-1.487,1.906-3.095,2.898-4.824l4.576,2.288
			c-3.864,5.542-6.915,9.685-9.151,12.431c2.542-0.178,4.626-0.355,6.253-0.534c-0.204,1.805-0.305,3.355-0.305,4.652
			c-5.389,0.356-9.215,0.75-11.478,1.182l-1.182-4.385c1.678-1.576,3.482-3.705,5.415-6.387c-1.703,0.127-3.14,0.286-4.309,0.477
			l-1.754-4.347c2.364-2.847,4.703-6.991,7.017-12.431l5.033,1.792C77.696,18.943,75.624,22.35,73.591,25.248z M83.505,34.018
			h20.667v4.576h-7.588v6.826h9.19v4.576H81.522v-2.803c-4.449,0.432-8.656,0.973-12.622,1.62L68.1,43.475
			c4.144-0.305,8.732-0.839,13.766-1.602c-0.089,1.106-0.14,2.288-0.152,3.546h9.418v-6.826h-7.626V34.018z M102.761,15.181v4.233
			c-1.309,1.818-2.764,3.502-4.366,5.052c2.605,1.31,5.205,2.663,7.798,4.061l-3.051,4.347c-3-1.932-5.847-3.661-8.542-5.186
			c-3.229,2.402-6.915,4.385-11.058,5.949c-0.864-1.678-1.741-3.216-2.631-4.614c6.609-2.288,11.808-5.376,15.596-9.266H83.391
			v-4.576H102.761z"/>
		<path fill="#7F7F7F" d="M108.168,49.37l-1.098-5.567l4.666-1.059V33.1h-3.764v-4.862h3.764v-8.233h-3.921v-4.94h12.859v4.94h-3.92
			v8.233h3.646V33.1h-3.646v8.371c1.398-0.379,2.757-0.765,4.078-1.157c-0.104,1.856-0.118,3.646-0.039,5.372h9.723v-3.411h-8.938
			v-4.47h8.938v-2.823h-8.743V14.634h22.505v20.348h-8.743v2.823h8.938v4.47h-8.938v3.411h10.664v4.469h-26.896v-4.136
			C115.853,46.972,112.141,48.09,108.168,49.37z M126.674,22.75h3.842v-3.724h-3.842V22.75z M126.674,30.591h3.842v-3.764h-3.842
			V30.591z M139.376,19.025h-3.842v3.724h3.842V19.025z M139.376,30.591v-3.764h-3.842v3.764H139.376z"/>
		<path fill="#7F7F7F" d="M157.583,20.773l3.333,6.837c0.992-2.248,1.928-4.589,2.807-7.025l2.542,1.167l2.015-0.904l3.052,6.611
			c0.941-2.248,1.846-4.589,2.712-7.025l4.068,1.732c-1.269,3.767-2.675,7.383-4.22,10.848l3.956,8.814l-4.257,2.109l-2.279-5.5
			c-1.218,2.411-2.491,4.746-3.823,7.006c-0.564-0.439-1.123-0.86-1.676-1.262l-2.015,0.998l-2.919-6.931
			c-1.444,2.725-2.957,5.261-4.539,7.609c-0.628-0.591-1.394-1.256-2.298-1.997v6.253h-5.048V14.634h34.24v28.928
			c0,1.945-0.371,3.443-1.112,4.491c-0.74,1.049-1.779,1.66-3.117,1.837c-1.337,0.176-3.832,0.264-7.485,0.264
			c-0.353-2.034-0.741-3.792-1.168-5.274c1.783,0.176,3.591,0.264,5.425,0.264c1.605,0,2.41-0.791,2.41-2.373V19.342h-24.145v3.277
			L157.583,20.773z M154.042,23.373v17.195c1.569-2.436,3.044-5.029,4.426-7.778C156.986,29.5,155.511,26.361,154.042,23.373z
			 M166.227,26.631c-0.878,2.222-1.795,4.357-2.749,6.403l2.618,5.631c0.979-1.846,1.934-3.767,2.862-5.763L166.227,26.631z"/>
	</g>
	<g>
		<path fill="#7F7F7F" d="M155.503,74.774c-0.355,0-0.651-0.109-0.889-0.328s-0.355-0.487-0.355-0.807
			c0-0.328,0.122-0.597,0.366-0.807c0.243-0.21,0.548-0.314,0.912-0.314c0.369,0,0.671,0.106,0.906,0.317
			c0.234,0.213,0.352,0.48,0.352,0.804c0,0.333-0.119,0.604-0.359,0.817C156.197,74.668,155.886,74.774,155.503,74.774z"/>
		<path fill="#7F7F7F" d="M163.638,74.351c-0.487,0.282-1.191,0.424-2.112,0.424c-1.075,0-1.946-0.326-2.611-0.978
			s-0.998-1.492-0.998-2.522c0-1.189,0.356-2.127,1.07-2.813c0.713-0.686,1.666-1.028,2.86-1.028c0.825,0,1.422,0.109,1.791,0.328
			v1.832c-0.451-0.337-0.955-0.506-1.511-0.506c-0.62,0-1.111,0.181-1.473,0.544c-0.363,0.361-0.544,0.862-0.544,1.5
			c0,0.62,0.173,1.106,0.52,1.459c0.347,0.354,0.822,0.53,1.429,0.53c0.538,0,1.064-0.169,1.579-0.506V74.351z"/>
		<path fill="#7F7F7F" d="M168.389,74.774c-1.167,0-2.084-0.327-2.752-0.981c-0.667-0.653-1.001-1.541-1.001-2.662
			c0-1.157,0.347-2.063,1.039-2.717c0.692-0.654,1.629-0.981,2.81-0.981c1.162,0,2.073,0.327,2.734,0.981
			c0.661,0.653,0.991,1.519,0.991,2.594c0,1.162-0.341,2.08-1.022,2.755C170.507,74.438,169.573,74.774,168.389,74.774z
			 M168.443,69.087c-0.511,0-0.907,0.176-1.189,0.526s-0.424,0.848-0.424,1.49c0,1.345,0.542,2.017,1.627,2.017
			c1.034,0,1.552-0.69,1.552-2.071C170.009,69.741,169.487,69.087,168.443,69.087z"/>
		<path fill="#7F7F7F" d="M184.727,74.604h-2.153v-3.992c0-1.017-0.374-1.524-1.121-1.524c-0.355,0-0.645,0.152-0.868,0.458
			s-0.335,0.686-0.335,1.142v3.917h-2.16V70.57c0-0.989-0.367-1.483-1.101-1.483c-0.369,0-0.664,0.146-0.885,0.438
			c-0.222,0.292-0.332,0.688-0.332,1.189v3.89h-2.16v-7h2.16v1.094h0.027c0.224-0.374,0.537-0.678,0.939-0.912
			c0.404-0.235,0.845-0.353,1.323-0.353c0.989,0,1.666,0.436,2.03,1.306c0.533-0.87,1.317-1.306,2.352-1.306
			c1.522,0,2.283,0.938,2.283,2.816V74.604z"/>
	</g>
	<g>
		<path fill="#FDBF0D" stroke="#FDBF0D" stroke-width="2.5" d="M117.795,69.607c-0.32,2.264-1.309,4.06-2.965,5.386
			c-1.656,1.329-3.731,1.991-6.225,1.991c-3.051,0-5.473-0.946-7.266-2.843c-1.792-1.895-2.689-4.459-2.689-7.687
			c0-3.237,0.896-5.806,2.689-7.706c1.793-1.9,4.215-2.852,7.266-2.852c2.505,0,4.587,0.642,6.244,1.924
			c1.655,1.283,2.638,3.019,2.947,5.21h-4.505c-0.155-1.101-0.654-1.969-1.497-2.61c-0.843-0.643-1.905-0.962-3.188-0.962
			c-1.662,0-2.986,0.63-3.972,1.889c-0.985,1.258-1.478,2.962-1.478,5.107c0,2.137,0.49,3.832,1.47,5.088
			c0.979,1.254,2.306,1.881,3.979,1.881c1.271,0,2.328-0.342,3.171-1.028c0.843-0.688,1.347-1.615,1.515-2.788H117.795z"/>
	</g>
	<g>
		<path fill="#20A7E0" stroke="#20A7E0" stroke-width="2.5" d="M48.533,69.607c-0.32,2.264-1.309,4.06-2.965,5.386
			c-1.655,1.329-3.731,1.991-6.224,1.991c-3.052,0-5.474-0.946-7.267-2.843c-1.792-1.895-2.689-4.459-2.689-7.687
			c0-3.237,0.896-5.806,2.689-7.706c1.793-1.9,4.215-2.852,7.267-2.852c2.504,0,4.586,0.642,6.242,1.924
			c1.656,1.283,2.639,3.019,2.947,5.21h-4.505c-0.154-1.101-0.654-1.969-1.497-2.61c-0.843-0.643-1.906-0.962-3.188-0.962
			c-1.663,0-2.986,0.63-3.972,1.889c-0.985,1.258-1.478,2.962-1.478,5.107c0,2.137,0.49,3.832,1.469,5.088
			c0.98,1.254,2.307,1.881,3.981,1.881c1.27,0,2.327-0.342,3.169-1.028c0.843-0.688,1.348-1.615,1.515-2.788H48.533z"/>
	</g>
	<g>
		<path fill="#20A7E0" stroke="#20A7E0" stroke-width="2.5" d="M58.577,60.494h-6.483v-1.772v-1.787h17.472v1.773v1.786h-6.483
			v16.49h-2.244h-2.262V60.494z"/>
	</g>
	<g>
		<path fill="#20A7E0" stroke="#20A7E0" stroke-width="2.5" d="M75.584,74.142c-1.858-1.895-2.788-4.459-2.788-7.687
			c0-3.237,0.929-5.806,2.788-7.706c1.858-1.9,4.366-2.852,7.524-2.852c3.17,0,5.684,0.951,7.542,2.852s2.788,4.469,2.788,7.706
			c0,3.228-0.929,5.792-2.788,7.687c-1.858,1.896-4.373,2.843-7.542,2.843C79.951,76.984,77.442,76.038,75.584,74.142z
			 M87.356,71.543c1.051-1.256,1.576-2.951,1.576-5.088c0-2.146-0.522-3.85-1.567-5.107c-1.044-1.259-2.464-1.889-4.256-1.889
			c-1.781,0-3.194,0.63-4.239,1.889c-1.044,1.258-1.567,2.962-1.567,5.107c0,2.137,0.523,3.832,1.567,5.088
			c1.045,1.254,2.458,1.881,4.239,1.881S86.306,72.797,87.356,71.543z"/>
	</g>
	<g>
		<path fill="#FDBF0D" stroke="#FDBF0D" stroke-width="2.5" d="M122.129,56.935h2.244h2.262v20.05h-2.244h-2.262V56.935z"/>
	</g>
	<g>
		<path fill="#FDBF0D" stroke="#FDBF0D" stroke-width="2.5" d="M133.115,74.142c-1.859-1.895-2.787-4.459-2.787-7.687
			c0-3.237,0.928-5.806,2.787-7.706c1.857-1.9,4.366-2.852,7.524-2.852c3.17,0,5.685,0.951,7.542,2.852
			c1.859,1.9,2.789,4.469,2.789,7.706c0,3.228-0.93,5.792-2.789,7.687c-1.857,1.896-4.372,2.843-7.542,2.843
			C137.481,76.984,134.973,76.038,133.115,74.142z M144.888,71.543c1.05-1.256,1.575-2.951,1.575-5.088
			c0-2.146-0.523-3.85-1.565-5.107c-1.045-1.259-2.465-1.889-4.258-1.889c-1.781,0-3.193,0.63-4.237,1.889
			c-1.047,1.258-1.568,2.962-1.568,5.107c0,2.137,0.521,3.832,1.568,5.088c1.044,1.254,2.456,1.881,4.237,1.881
			C142.422,73.424,143.836,72.797,144.888,71.543z"/>
	</g>
	<g>
		<path fill="#7F7F7F" d="M40.479,21.833h-2.714v21.123h2.714v5.246H28.355v-5.246h2.674V21.833h-2.674v-5.245h12.123V21.833z"/>
		<path fill="#7F7F7F" d="M66.887,22.098h-9.021v26.103h-6.755V22.098h-9v-5.51h24.776V22.098z"/>
	</g>
</g>
</svg>
