<svg id="9312f094-a0fc-4600-a69e-33b6a838078a" data-name="Capa 1" xmlns="http://www.w3.org/2000/svg" viewBox="0 0 358.12 138.49"><path d="M50.61,49.84,35.41,33.38a9.15,9.15,0,0,0-13.19-.27L11.63,49.83h39Z" style="fill:#ffffff"/><path d="M12.21,84.62l-.46.84,10.12,16.08a9.62,9.62,0,0,0,13.88-.28L51.11,84.62Z" style="fill:#ffffff"/><path d="M65.59,66.08l-7.23-7.83A1.89,1.89,0,0,0,57,57.64H8.24L8,57.87V76.82H57.47a1.91,1.91,0,0,0,1.4-.61l6.72-7.28A2,2,0,0,0,65.59,66.08Z" style="fill:#ffffff"/><path d="M43.46,109.16A43.42,43.42,0,1,0,55.19,23.94a43.23,43.23,0,0,0-11.83,1.65l-.1,0" style="fill:none;stroke:#ffffff;stroke-miterlimit:10;stroke-width:3px"/><path d="M150.14,69.75H129.91V86.42h22.16l-.46,2.83H126.85V49.58h24.31v2.83H129.91V66.92h20.23Z" style="fill:#ffffff"/><path d="M184.37,89.25l-12-17.85h0L160.51,89.25h-3.57l13.55-20.17-13-19.5h3.57l11.33,17h.06l11.56-17h3.57L174.23,68.85,188,89.25Z" style="fill:#ffffff"/><path d="M197.75,70.72V89.25h-3.12V49.58h14.23c7.82,0,11.95,4.2,11.95,10.43a9,9,0,0,1-7.42,9.29c4.08,1,6.8,3.63,6.8,10.37V81.2c0,2.78-.23,6.52.51,8h-3.11c-.74-1.7-.57-4.87-.57-8.27V80c0-6.52-1.93-9.24-9.52-9.24Zm0-2.84h9.58c7,0,10.2-2.6,10.2-7.81,0-4.88-3.18-7.66-9.35-7.66H197.75Z" style="fill:#ffffff"/><path d="M235,75.54l-5,13.71h-3.12l14.57-39.67h3.62l15.19,39.67h-3.34l-5.16-13.71Zm15.7-2.84c-4.42-11.78-6.69-17.45-7.48-20.11h-.06c-1,3-3.51,10-7.08,20.11Z" style="fill:#ffffff"/><path d="M270.41,52.41H257.09V49.58H286.9v2.83H273.52V89.25h-3.11Z" style="fill:#ffffff"/><path d="M316.09,69.75H295.86V86.42H318l-.45,2.83H292.8V49.58h24.31v2.83H295.86V66.92h20.23Z" style="fill:#ffffff"/><path d="M326.46,78.6c1.19,5.27,4.7,8.38,11.22,8.38,7.26,0,10-3.62,10-7.93,0-4.48-2-7.25-10.71-9.41-8.39-2.1-12-4.82-12-10.54C325,53.89,328.78,49,337.28,49c8.73,0,12.41,5.33,12.93,10.15H347c-.9-4.25-3.68-7.31-9.92-7.31-5.72,0-8.84,2.66-8.84,7.08s2.61,6.07,9.92,7.88c11.17,2.78,12.81,7.25,12.81,12,0,5.84-4.25,10.88-13.43,10.88-9.92,0-13.55-5.78-14.28-11.1Z" style="fill:#ffffff"/></svg>