<svg xmlns="http://www.w3.org/2000/svg" width="123" height="32" viewBox="0 0 123 32">
  <g fill="#FFF">
    <path d="M9.08364179 15.6782903L18.4050224 24.9646903 24.2888284 19.1041189C25.3260672 18.0691475 27.0131866 18.0691475 28.0522612 19.1041189 29.0913358 20.1390903 29.0913358 21.8177189 28.0522612 22.8526903L20.2867388 30.5875475C19.2522537 31.6170332 17.5486119 31.6078903 16.523306 30.5875475L5.32204478 19.4286903 5.32204478 26.0627475C5.32204478 27.5192046 4.12325373 28.7141761 2.66010448 28.7141761 1.19144776 28.7141761 0 27.5256046 0 26.0627475L0 5.2938332C0 3.83097605 1.19144776 2.64240462 2.6619403 2.64240462 4.13059701 2.64240462 5.32204478 3.83097605 5.32204478 5.2938332L5.32204478 11.9278903 16.523306.769033195C17.5486119-.251309662 19.2522537-.261366805 20.2867388.769033195L28.0522612 8.50389034C29.0913358 9.5370332 29.0913358 11.2165761 28.0522612 12.2524618 27.0131866 13.2856046 25.3260672 13.2874332 24.2888284 12.2524618L18.4050224 6.39189034 9.08364179 15.6782903zM18.4096119 13.0250332C19.8801045 13.0250332 21.0715522 14.2136046 21.0715522 15.6782903 21.0715522 17.1429761 19.8801045 18.3315475 18.4096119 18.3315475 16.9382015 18.3315475 15.7449179 17.1429761 15.7449179 15.6782903 15.7449179 14.2136046 16.9382015 13.0250332 18.408694 13.0250332L18.4096119 13.0250332zM40.0245672 4.13086177C39.1231791 4.13086177 38.3750821 4.87509034 38.3750821 5.77291891L38.3750821 25.5836618C38.3750821 26.4842332 39.1185896 27.2266332 40.0181418 27.2266332 40.917694 27.2266332 41.6612015 26.4860618 41.6612015 25.5900618L41.6612015 5.77657605C41.6612015 4.87417605 40.9085149 4.13086177 40.0089627 4.13086177L40.0245672 4.13086177zM52.838597 4.60811891C52.203403 3.97360462 51.1450522 3.97360462 50.5071045 4.60811891L43.1307761 11.9571475C42.5827836 12.5029761 42.6562164 13.3505189 42.8994627 13.7692618L50.2427463 26.4046903C50.6851791 27.1690332 51.7205821 27.4606903 52.4952985 27.0081189 53.2700149 26.5528046 53.5508955 25.5406903 53.1011194 24.7662903L46.4407612 13.3048046 52.8404328 6.9322332C53.4792985 6.29406177 53.4792985 5.24537605 52.8404328 4.60811891L52.838597 4.60811891zM57.3418657 10.8042332C56.4404776 10.8042332 55.6923806 11.5448046 55.6923806 12.4408046L55.6923806 21.1082332C55.6923806 24.4819475 58.4424403 27.2248046 61.8313657 27.2248046L67.0019552 27.2248046C67.8996716 27.2248046 68.6505224 26.4750903 68.6505224 25.5790903L68.6505224 12.4417189C68.6505224 11.5402332 67.9070149 10.8014903 67.0019552 10.8014903 66.1005672 10.8014903 65.3524701 11.5448046 65.3524701 12.4417189L65.3524701 23.9379475 61.827694 23.9379475C60.2580672 23.9379475 58.9821716 22.6707475 58.9821716 21.1082332L58.9821716 12.4408046C58.9821716 11.5356618 58.2386642 10.7950903 57.3299328 10.7950903L57.3418657 10.8042332zM85.8943881 5.76651891C85.8943881 4.86137605 85.146291 4.12080462 84.244903 4.12080462L77.9939328 4.12080462C74.6068433 4.12080462 71.862291 6.85451891 71.862291 10.2282332L71.862291 21.0990903C71.862291 24.4728046 74.6160224 27.2156618 78.0031119 27.2156618L84.2632612 27.2156618C85.1719925 27.2156618 85.9155 26.4659475 85.9155 25.5699475 85.9155 24.6739475 85.1719925 23.9242332 84.2632612 23.9242332L78.002194 23.9242332C76.4325672 23.9242332 75.1612612 22.6533761 75.1612612 21.0899475L75.1612612 10.2382903C75.1612612 8.67486177 76.4334851 7.40857605 78.002194 7.40857605L84.2531642 7.40857605C85.1545522 7.40857605 85.9008134 6.66526177 85.9008134 5.76560462L85.8943881 5.76651891zM105.152149 4.12080462C104.248007 4.12080462 103.503582 4.86137605 103.503582 5.75737605 103.503582 6.65337605 104.248925 7.39394748 105.153067 7.39394748 106.052619 7.39394748 106.796127 6.65337605 106.796127 5.7482332 106.796127 4.84309034 106.052619 4.10251891 105.143888 4.10251891L105.152149 4.12080462zM105.152149 10.7950903C104.248007 10.7950903 103.503582 11.5356618 103.503582 12.4316618L103.503582 25.5699475C103.503582 26.4659475 104.248925 27.2065189 105.153067 27.2065189 106.052619 27.2065189 106.796127 26.4659475 106.796127 25.5608046L106.796127 12.4508618C106.796127 11.5512046 106.052619 10.8088046 105.143888 10.8088046L105.152149 10.7950903zM120.758463 27.2156618C121.659851 27.2156618 122.407948 26.4659475 122.407948 25.5699475L122.407948 16.9116618C122.407948 13.5288046 119.658806 10.7950903 116.268963 10.7950903L111.091948 10.7950903C110.192396 10.7950903 109.439709 11.5448046 109.439709 12.4316618L109.439709 25.5699475C109.439709 26.4659475 110.183216 27.2065189 111.082769 27.2065189 111.982321 27.2065189 112.725828 26.4568046 112.725828 25.5608046L112.725828 14.0874332 116.241425 14.0874332C117.807381 14.0874332 119.079604 15.3546332 119.079604 16.9171475L119.079604 25.5827475C119.079604 26.4814903 119.823112 27.2248046 120.726336 27.2248046L120.758463 27.2156618zM88.2671866 16.9125761C88.2671866 13.5480046 90.9988881 10.7987475 94.371291 10.7987475L94.781597 10.7987475C98.1411493 10.7987475 100.856328 13.5553189 100.856328 16.9098332L100.856328 21.1064046C100.856328 24.4618332 98.1411493 27.2138332 94.781597 27.2184046L94.371291 27.2184046C90.9979701 27.2211475 88.2671866 24.4691475 88.2671866 21.1045761L88.2671866 16.9080046 88.2671866 16.9125761zM97.5564403 16.9125761C97.5564403 15.3518903 96.2897239 14.0828618 94.7228507 14.0828618L94.3997463 14.0828618C92.833791 14.0828618 91.5652388 15.3537189 91.5652388 16.9144046L91.5652388 21.1082332C91.5652388 22.6625189 92.833791 23.9333761 94.3997463 23.9333761L94.7228507 23.9333761C96.288806 23.9333761 97.5573582 22.6625189 97.5573582 21.0990903L97.5573582 16.9025189 97.5564403 16.9125761z"/>
  </g>
</svg>
