<svg xmlns="http://www.w3.org/2000/svg" viewBox="0 0 532.15 146.04"><title>lumi_logo_1</title><g id="Layer_2" data-name="Layer 2"><g id="Layer_1-2" data-name="Layer 1"><path d="M232.22,112.36h27v12.3h-43V44.26h16.06Z" style="fill:#fff"/><path d="M307,44.26V91.41q0,9.45,4.16,14.18t12,4.73q7.74,0,11.9-4.73t4.16-14.18V44.26H355.2V91.41q0,11.16-4.16,18.85a26.78,26.78,0,0,1-11.5,11.44,36.11,36.11,0,0,1-16.68,3.76q-14.46,0-23.12-8.65t-8.65-25.39V44.26Z" style="fill:#fff"/><path d="M478.75,45.17v79.48H462.8V69.2l-20.38,55.45H428.53L408.15,69.43v55.23H392.09V45.17h19.47L435.7,105l23.69-59.78Z" style="fill:#fff"/><path d="M532.15,44.26v80.39H516.09V44.26Z" style="fill:#fff"/><path d="M76.7,39.2A19.6,19.6,0,1,1,96.3,19.6,19.62,19.62,0,0,1,76.7,39.2Zm0-29.61a10,10,0,1,0,10,10A10,10,0,0,0,76.7,9.59Z" style="fill:#fff"/><path d="M47,91.49a19.6,19.6,0,1,1,19.6-19.6A19.62,19.62,0,0,1,47,91.49Zm0-29.61a10,10,0,1,0,10,10A10,10,0,0,0,47,61.88Z" style="fill:#fff"/><path d="M109.29,91.49a19.6,19.6,0,1,1,19.6-19.6A19.62,19.62,0,0,1,109.29,91.49Zm0-29.61a10,10,0,1,0,10,10A10,10,0,0,0,109.29,61.88Z" style="fill:#fff"/><path d="M79.87,146a19.6,19.6,0,1,1,19.6-19.6A19.62,19.62,0,0,1,79.87,146Zm0-29.61a10,10,0,1,0,10,10A10,10,0,0,0,79.87,116.43Z" style="fill:#fff"/><path d="M19.6,146a19.6,19.6,0,1,1,19.6-19.6A19.62,19.62,0,0,1,19.6,146Zm0-29.61a10,10,0,1,0,10,10A10,10,0,0,0,19.6,116.43Z" style="fill:#fff"/><path d="M140.15,146a19.6,19.6,0,1,1,19.6-19.6A19.62,19.62,0,0,1,140.15,146Zm0-29.61a10,10,0,1,0,10,10A10,10,0,0,0,140.15,116.43Z" style="fill:#fff"/></g></g></svg>