<?xml version="1.0" encoding="UTF-8"?>
<svg width="196px" height="148px" viewBox="0 0 196 148" version="1.1" xmlns="http://www.w3.org/2000/svg" xmlns:xlink="http://www.w3.org/1999/xlink">
    <!-- Generator: Sketch 46.2 (44496) - http://www.bohemiancoding.com/sketch -->
    <title>aeron-app</title>
    <desc>Created with Sketch.</desc>
    <defs>
        <linearGradient x1="74.3079696%" y1="7.63998644%" x2="30.5123462%" y2="81.9366702%" id="linearGradient-1">
            <stop stop-color="#00A3B5" offset="0%"></stop>
            <stop stop-color="#007BB7" offset="58.4178375%"></stop>
            <stop stop-color="#464168" offset="100%"></stop>
        </linearGradient>
        <linearGradient x1="92.6321659%" y1="18.2327662%" x2="15.8218724%" y2="73.9504094%" id="linearGradient-2">
            <stop stop-color="#00A3B5" offset="0%"></stop>
            <stop stop-color="#007BB7" offset="58.4178375%"></stop>
            <stop stop-color="#464168" offset="100%"></stop>
        </linearGradient>
    </defs>
    <g id="Page-1" stroke="none" stroke-width="1" fill="none" fill-rule="evenodd">
        <g id="aeron-app" transform="translate(3.000000, 3.000000)">
            <g id="AERON-Solution" transform="translate(33.000000, 105.000000)" fill="#FFFFFF">
                <path d="M9.652,12 L8.884,10.016 L4.036,10.016 L3.252,12 L0.244,12 L5.06,0.784 L8.068,0.784 L12.772,12 L9.652,12 Z M4.916,7.776 L8.02,7.776 L6.484,3.776 L4.916,7.776 Z M13.78,0.784 L13.78,12 L22.788,12 L22.788,9.664 L16.708,9.664 L16.708,7.552 L22.052,7.536 L22.052,5.216 L16.708,5.216 L16.708,3.12 L22.628,3.12 L22.628,0.784 L13.78,0.784 Z M34.628,12 L31.316,12 L29.684,8.896 L27.508,8.896 L27.508,12 L24.58,12 L24.58,0.784 L29.62,0.784 C32.596,0.784 34.292,2.224 34.292,4.72 C34.292,6.416 33.588,7.664 32.292,8.336 L34.628,12 Z M27.508,3.12 L27.508,6.56 L29.636,6.56 C30.82,6.56 31.508,5.952 31.508,4.816 C31.508,3.712 30.82,3.12 29.636,3.12 L27.508,3.12 Z M41.508,0.704 C44.98,0.704 47.572,3.136 47.572,6.384 C47.572,9.664 44.98,12.128 41.508,12.128 C38.036,12.128 35.444,9.664 35.444,6.384 C35.444,3.12 38.036,0.704 41.508,0.704 Z M41.54,3.2 C39.86,3.2 38.452,4.576 38.452,6.4 C38.452,8.224 39.876,9.632 41.54,9.632 C43.22,9.632 44.564,8.224 44.564,6.4 C44.564,4.576 43.22,3.2 41.54,3.2 Z M49.028,0.784 L49.028,12 L51.764,12 L51.764,5.28 L56.852,12 L59.412,12 L59.412,0.784 L56.692,0.784 L56.692,7.536 L51.604,0.784 L49.028,0.784 Z" id="AERON"></path>
                <path d="M72.308,2.304 L72.612,1.696 C71.78,1.152 70.548,0.784 69.412,0.784 C67.204,0.784 65.732,1.824 65.732,3.44 C65.732,7.472 72.308,5.68 72.276,9.184 C72.276,10.496 71.044,11.328 69.124,11.328 C67.812,11.328 66.388,10.752 65.476,9.808 L65.124,10.4 C66.1,11.36 67.62,12.016 69.108,12.016 C71.444,12.016 72.996,10.896 72.996,9.168 C73.028,5.04 66.452,6.8 66.452,3.392 C66.452,2.224 67.604,1.488 69.38,1.488 C70.34,1.488 71.476,1.76 72.308,2.304 Z M78.98,3.648 C81.364,3.648 83.092,5.376 83.092,7.824 C83.092,10.288 81.364,12.016 78.98,12.016 C76.612,12.016 74.868,10.288 74.868,7.824 C74.868,5.376 76.612,3.648 78.98,3.648 Z M78.98,4.288 C76.98,4.288 75.524,5.744 75.524,7.824 C75.524,9.936 76.98,11.392 78.98,11.392 C80.996,11.392 82.436,9.936 82.436,7.824 C82.436,5.744 80.996,4.288 78.98,4.288 Z M85.604,0.128 L85.604,12 L86.276,12 L86.276,0.128 L85.604,0.128 Z M95.94,3.664 L95.94,7.744 C95.94,9.92 94.756,11.296 92.74,11.344 C91.06,11.344 90.068,10.336 90.068,8.624 L90.068,3.664 L89.412,3.664 L89.412,8.752 C89.412,10.8 90.58,12.016 92.596,12.016 C94.244,12 95.412,11.216 95.94,9.776 L95.94,12 L96.596,12 L96.596,3.664 L95.94,3.664 Z M103.604,10.88 C103.172,11.184 102.676,11.36 102.196,11.36 C101.332,11.376 100.868,10.8 100.868,9.616 L100.868,4.448 L103.7,4.448 L103.7,3.872 L100.868,3.872 L100.868,1.808 L100.228,1.808 L100.228,3.872 L99.012,3.872 L99.012,4.448 L100.228,4.448 L100.228,9.696 C100.228,11.264 100.932,12.032 102.116,12.016 C102.74,12.016 103.332,11.792 103.86,11.424 L103.604,10.88 Z M106.228,0.688 C105.924,0.688 105.668,0.944 105.668,1.264 C105.668,1.6 105.924,1.856 106.228,1.856 C106.532,1.856 106.788,1.6 106.788,1.264 C106.788,0.944 106.532,0.688 106.228,0.688 Z M105.892,3.664 L105.892,12 L106.548,12 L106.548,3.664 L105.892,3.664 Z M113.108,3.648 C115.492,3.648 117.22,5.376 117.22,7.824 C117.22,10.288 115.492,12.016 113.108,12.016 C110.74,12.016 108.996,10.288 108.996,7.824 C108.996,5.376 110.74,3.648 113.108,3.648 Z M113.108,4.288 C111.108,4.288 109.652,5.744 109.652,7.824 C109.652,9.936 111.108,11.392 113.108,11.392 C115.124,11.392 116.564,9.936 116.564,7.824 C116.564,5.744 115.124,4.288 113.108,4.288 Z M123.732,3.648 C122.068,3.68 120.884,4.416 120.324,5.792 L120.324,3.664 L119.652,3.664 L119.652,12 L120.324,12 L120.324,7.488 C120.468,5.568 121.652,4.368 123.572,4.32 C125.284,4.32 126.292,5.328 126.292,7.04 L126.292,12 L126.964,12 L126.964,6.912 C126.964,4.88 125.764,3.648 123.732,3.648 Z" id="Solution"></path>
            </g>
            <rect id="Rectangle-5" stroke="#FFFFFF" stroke-width="7" opacity="0.229999989" x="0.5" y="0.5" width="189" height="141" rx="20"></rect>
            <g id="ic_aeron" transform="translate(64.000000, 24.000000)">
                <g id="Oval" transform="translate(0.000000, 0.742840)">
                    <g id="Mask">
                        <g id="path-2-link" transform="translate(2.000000, 2.000000)" fill="url(#linearGradient-2)">
                            <path d="M1.56144356,6.28978579 C8.7364339,2.09659526 17.829017,0 28.8391928,0 C39.849364,0 48.941944,2.09659351 56.116933,6.28978052 L56.1169351,6.28977685 C57.1172222,6.87436186 57.7037637,7.97179003 57.6340231,9.12827186 L56.1418037,33.873175 L56.1418037,33.873175 C55.542547,43.8104194 50.3113556,52.8894107 42.0146756,58.3915044 L30.5378014,66.0026015 L30.5378014,66.0026015 C29.5083011,66.6853333 28.1700845,66.6853333 27.1405842,66.0026015 L15.66371,58.3915044 L15.66371,58.3915044 C7.36702991,52.8894107 2.13583858,43.8104194 1.53658187,33.873175 L0.0443631937,9.12828468 L0.0443536715,9.12828525 C-0.025387041,7.97180174 0.561155144,6.87437193 1.56144356,6.28978579 Z" id="path-2"></path>
                        </g>
                        <path d="M3.01868282,7.36106503 C10.3719778,3.06367016 19.6500301,0.92430884 30.8391928,0.92430884 C42.0283508,0.92430884 51.3064,3.06366836 58.65969,7.36105762 C60.0100808,8.15024259 60.8019136,9.63177097 60.7077637,11.1930228 L59.2155442,35.937926 C58.5959592,46.2122666 53.1873128,55.59924 44.6091886,61.2879785 L33.1323144,68.8990756 C31.742489,69.8207635 29.9358966,69.8207635 28.5460711,68.8990756 L17.0691969,61.2879785 C8.49107275,55.59924 3.08242631,46.2122666 2.46284131,35.937926 L0.97062317,11.1930445 C0.87646031,9.63179181 1.66829075,8.15025791 3.01868282,7.36106503 Z" id="Shape" stroke="#FFFFFF" stroke-width="2.15138231"></path>
                    </g>
                </g>
                <path d="M3.30756844,8.18264135 L29.5867972,56.7937578 L29.5867972,56.7937578 C29.9904021,57.5403431 30.9228154,57.8183836 31.6694006,57.4147787 C31.9348166,57.2712945 32.1521216,57.052852 32.2942182,56.7866905 L58.3707282,7.94272392" id="Path-11" stroke="#FFFFFF" stroke-width="2.0766238"></path>
                <path d="M5.34156379,2.41343964 L30.2917381,48.0221258 L30.2917381,48.0221258 C30.536127,48.4688664 31.0963982,48.6329048 31.5431388,48.388516 C31.7014042,48.301937 31.8307946,48.1708323 31.915283,48.0114411 L56.1914475,2.2133313" id="Path-11-Copy" stroke="#FFFFFF" stroke-width="2.0766238" transform="translate(30.766506, 25.357573) scale(-1, 1) rotate(-180.000000) translate(-30.766506, -25.357573) "></path>
                <ellipse id="Oval-3" fill="#FFFFFF" fill-rule="nonzero" cx="46.3120415" cy="30.0793705" rx="3.1962784" ry="3.26849816"></ellipse>
                <ellipse id="Oval-3-Copy-2" fill="#FFFFFF" fill-rule="nonzero" cx="30.911791" cy="58.1587411" rx="3.1962784" ry="3.26849816"></ellipse>
                <ellipse id="Oval-3-Copy" fill="#FFFFFF" fill-rule="nonzero" cx="14.7851136" cy="30.0793705" rx="3.1962784" ry="3.26849816"></ellipse>
                <path d="M30.952611,58.3238053 L30.952611,69.7137195" id="Line" stroke="#FFFFFF" stroke-width="2.0766238" stroke-linecap="square"></path>
                <path d="M8.39255681,53.2730237 C10.5431898,53.7917457 18.1169682,55.6679316 31.113892,58.9015816 L53.721596,52.8102895" id="Path-12" stroke="#FFFFFF" stroke-width="2.0766238"></path>
                <path d="M42.3893355,30.3022227 C42.3893355,29.3576424 41.5808224,28.5311346 40.6568073,28.5311346 L34.304204,28.5311346 L28.5291102,19.0853313 L26.360587,20.0979799 L29.1066195,28.5311346 L22.7540161,28.5311346 L21.021488,26.1696837 L19.2889599,26.1696837 L20.4439786,30.3022227 L19.2889599,34.4347616 L21.021488,34.4347616 L22.7540161,32.0733108 L29.1066195,32.0733108 L26.2156255,40.3618014 L28.5291102,41.5191141 L34.304204,32.0733108 L40.6568073,32.0733108 C41.5808224,32.0733108 42.3893355,31.246803 42.3893355,30.3022227 Z" id="Shape" fill="#FFFFFF" fill-rule="nonzero" transform="translate(30.839148, 30.302223) rotate(-90.000000) translate(-30.839148, -30.302223) "></path>
            </g>
        </g>
    </g>
</svg>