<?xml version="1.0" encoding="UTF-8"?>
<svg width="80px" height="147px" viewBox="0 0 80 147" version="1.1" xmlns="http://www.w3.org/2000/svg" xmlns:xlink="http://www.w3.org/1999/xlink">
    <!-- Generator: Sketch 46.2 (44496) - http://www.bohemiancoding.com/sketch -->
    <title>Avia_app</title>
    <desc>Created with Sketch.</desc>
    <defs></defs>
    <g id="Main_remake" stroke="none" stroke-width="1" fill="none" fill-rule="evenodd">
        <g id="Aeron_full_desctop" transform="translate(-942.000000, -2554.000000)" fill-rule="nonzero" fill="#FFFFFF">
            <g id="Avia_app" transform="translate(942.000000, 2554.000000)">
                <path d="M16.6666667,0 C12.2265633,0 8.16406333,2.12451694 5.14323,5.14836809 C2.12239667,8.17221924 0,12.2387777 0,16.6833167 L0,130.12987 C0,135.877793 2.08333333,140.374471 5.36458333,143.111576 C8.64583333,145.861717 12.7734367,146.813187 16.6666667,146.813187 L63.3333333,146.813187 C67.7734367,146.813187 71.8359367,144.68867 74.85677,141.664819 C77.8776033,138.640968 80,134.574409 80,130.12987 L80,16.6833167 C80,12.2387777 77.8776033,8.17221924 74.85677,5.14836809 C71.8359367,2.12451694 67.7734367,0 63.3333333,0 L16.6666667,0 Z M16.6666667,6.67332667 L63.3333333,6.67332667 C65.5598967,6.67332667 68.1640633,7.88547307 70.14323,9.86661692 C72.1223967,11.8477608 73.3333333,14.454529 73.3333333,16.6833167 L73.3333333,20.01998 L6.66666667,20.01998 L6.66666667,16.6833167 C6.66666667,14.454529 7.87760333,11.8477608 9.85677,9.86661692 C11.8359367,7.88547307 14.4401033,6.67332667 16.6666667,6.67332667 Z M6.66666667,26.6933067 L73.3333333,26.6933067 L73.3333333,113.446553 L6.66666667,113.446553 L6.66666667,26.6933067 Z M6.66666667,120.11988 L73.3333333,120.11988 L73.3333333,130.12987 C73.3333333,132.358658 72.1223967,134.965426 70.14323,136.94657 C68.1640633,138.927714 65.5598967,140.13986 63.3333333,140.13986 L16.6666667,140.13986 C13.89323,140.13986 11.3541667,139.422998 9.63541667,138.00231 C7.91666667,136.568589 6.66666667,134.391937 6.66666667,130.12987 L6.66666667,120.11988 Z M40,123.456543 C36.3151033,123.456543 33.3333333,126.441292 33.3333333,130.12987 C33.3333333,133.818448 36.3151033,136.803197 40,136.803197 C43.6848967,136.803197 46.6666667,133.818448 46.6666667,130.12987 C46.6666667,126.441292 43.6848967,123.456543 40,123.456543 Z" id="Shape-Copy" opacity="0.300000012"></path>
                <path d="M62.8495817,68.7823533 C62.8495817,67.0449272 61.3095817,65.5246793 59.5495817,65.5246793 L47.4495817,65.5246793 L36.4495817,48.1504183 L32.3191287,50.0130466 L37.5495817,65.5246793 L25.4495817,65.5246793 L22.1495817,61.1811141 L18.8495817,61.1811141 L21.0495817,68.7823533 L18.8495817,76.3835925 L22.1495817,76.3835925 L25.4495817,72.0400272 L37.5495817,72.0400272 L32.0430161,87.2855702 L36.4495817,89.4142883 L47.4495817,72.0400272 L59.5495817,72.0400272 C61.3095817,72.0400272 62.8495817,70.5197794 62.8495817,68.7823533 Z" id="ic_plane" transform="translate(40.849582, 68.782353) rotate(-90.000000) translate(-40.849582, -68.782353) "></path>
            </g>
        </g>
    </g>
</svg>