<svg xmlns="http://www.w3.org/2000/svg" width="156" height="31" viewBox="0 0 156 31">
    <g fill="#F3BA2F" fill-rule="nonzero">
        <path d="M10.015 13.128l5.929-6.067 5.931 6.07 3.45-3.53L15.944 0 6.566 9.598zM4.221 12.16l3.316 3.316-3.316 3.317-3.316-3.317zM10.019 17.824l5.926 6.067 5.93-6.07 3.45 3.529-.002.001-9.378 9.601-9.375-9.597-.004-.005zM31.924 15.477l-3.317 3.316-3.316-3.316 3.316-3.317z"/>
        <path d="M20.632 15.943h.001l-3.75-3.75-2.771 2.772-.319.318-.657.657-.005.005.005.005 3.747 3.747 3.75-3.75.002-.002zM37.518 7.504h7.684c1.907 0 3.35.47 4.327 1.412.756.729 1.135 1.633 1.135 2.71v.046c0 .456-.059.858-.177 1.207a3.694 3.694 0 0 1-1.153 1.686 4.588 4.588 0 0 1-.835.547c.958.35 1.713.823 2.263 1.423.55.6.825 1.432.825 2.495v.045c0 .73-.145 1.367-.437 1.914a3.768 3.768 0 0 1-1.253 1.367c-.545.364-1.199.637-1.963.82-.765.182-1.612.273-2.542.273h-7.874V7.504zm6.916 6.446c.806 0 1.445-.133 1.919-.399.473-.265.71-.694.71-1.287v-.045c0-.531-.205-.938-.616-1.219-.41-.28-1.003-.421-1.776-.421h-3.6v3.37h3.363zm.971 6.424c.806 0 1.437-.14 1.895-.421.458-.281.687-.718.687-1.31v-.046c0-.531-.213-.953-.64-1.264-.426-.311-1.113-.467-2.06-.467H41.07v3.508h4.334zM56.277 7.504h3.752v15.945h-3.752zM64.719 7.504h3.425l7.914 9.817V7.504h3.668v15.945h-3.16l-8.18-10.137V23.45h-3.667zM90.683 7.504h3.41l7.206 16.883h-3.867l-1.537-3.76h-7.11l-1.536 3.76h-3.771l7.205-16.883zm3.89 9.866l-2.233-5.436-2.233 5.436h4.467zM105.05 7.504h3.427l7.913 9.817V7.504h3.668v15.945h-3.16l-8.18-10.137V23.45h-3.667V7.504zM132.15 24.387c-1.193 0-2.3-.218-3.323-.653a8.158 8.158 0 0 1-2.648-1.784 8.112 8.112 0 0 1-1.742-2.67 8.627 8.627 0 0 1-.627-3.288v-.047c0-1.166.209-2.258.627-3.276a8.417 8.417 0 0 1 1.742-2.682 8.074 8.074 0 0 1 2.671-1.819c1.038-.443 2.185-.664 3.44-.664.757 0 1.45.062 2.078.186a8.682 8.682 0 0 1 1.708.513c.51.218.983.482 1.417.793.433.311.836.653 1.208 1.026l-2.277 2.635c-.635-.575-1.282-1.026-1.94-1.352-.658-.327-1.398-.49-2.218-.49a4.485 4.485 0 0 0-3.392 1.492 5.127 5.127 0 0 0-.976 1.621 5.535 5.535 0 0 0-.348 1.97v.047c0 .7.116 1.36.348 1.982a5.19 5.19 0 0 0 .964 1.632 4.461 4.461 0 0 0 3.403 1.516c.93 0 1.715-.17 2.358-.513.643-.341 1.282-.808 1.917-1.4l2.277 2.31a11.84 11.84 0 0 1-1.301 1.212c-.45.358-.941.665-1.476.922a7.625 7.625 0 0 1-1.753.582c-.636.132-1.348.199-2.137.199zM143.507 7.504h12.078v3.12h-8.594v3.235h7.563v3.12h-7.563v3.35h8.709v3.12h-12.193z"/>
    </g>
</svg>
