<svg xmlns="http://www.w3.org/2000/svg" width="161" height="36" viewBox="0 0 161 36">
  <g fill="none" fill-rule="evenodd">
    <path fill="#0082D7" d="M7.28825719,0.000403088803 L35.3690057,0.000403088803 L35.3690057,28.0974516 L7.28825719,28.0974516 L7.28825719,13.2620118 L10.7984746,13.2620118 L10.7984746,24.5850728 L31.8587883,24.5850728 L31.8587883,3.51179085 L10.7984746,3.51179085 L10.7984746,5.59107154 L7.28825719,5.59107154 L7.28825719,0.000403088803 Z M0,7.9023635 L28.079758,7.9023635 L28.079758,22.5118376 L24.5705311,22.5118376 L24.5705311,11.4147423 L3.5092269,11.4147423 L3.5092269,32.4880243 L24.5705311,32.4880243 L24.5705311,30.1827779 L28.079758,30.1827779 L28.079758,36.0004031 L0,36.0004031 L0,7.9023635 Z"/>
    <path fill="#FFFFFF" d="M53.3735333,26.3376999 L48.5679551,26.3376999 L48.5679551,18.7908272 L53.5556394,18.7908272 C56.1708856,18.7908272 57.8735778,20.3123496 57.8735778,22.6558789 C57.8735778,24.968026 56.2012366,26.3376999 53.3735333,26.3376999 L53.3735333,26.3376999 Z M48.5679551,9.66169269 L52.7644895,9.66169269 C55.3797357,9.66169269 56.9003218,10.9402574 56.9003218,13.0398167 C56.9003218,15.4440853 55.3797357,16.9656077 53.0386603,16.9656077 L48.5679551,16.9656077 L48.5679551,9.66169269 L48.5679551,9.66169269 Z M55.8967147,17.6954931 C58.6343767,18.3342693 60.2460159,20.1908708 60.2460159,22.6558789 C60.2460159,26.1858514 57.6914717,28.2854106 53.3735333,28.2854106 L46.2572308,28.2854106 L46.2572308,7.71499434 L52.7644895,7.71499434 C56.8699708,7.71499434 59.2727598,9.63132298 59.2727598,12.8575984 C59.2727598,15.3215941 58.0870467,17.0263471 55.8967147,17.6954931 Z M65.387074,28.2848032 L65.387074,7.71438695 L67.6977983,7.71438695 L67.6977983,28.2848032 L65.387074,28.2848032 Z M72.6561433,9.66209762 L72.6561433,7.71438695 L86.524536,7.71438695 L86.524536,9.66209762 L80.7760528,9.66209762 L80.7760528,28.2848032 L78.4653285,28.2848032 L78.4653285,9.66209762 L72.6561433,9.66209762 Z M89.8698254,9.66209762 L89.8698254,7.71438695 L103.738218,7.71438695 L103.738218,9.66209762 L97.989735,9.66209762 L97.989735,28.2848032 L95.6790106,28.2848032 L95.6790106,9.66209762 L89.8698254,9.66209762 Z M117.2425,20.0386173 L117.850532,20.6470238 L122.533694,28.2850057 L119.797044,28.2850057 L115.326339,20.312957 L110.885985,20.312957 L110.885985,28.2850057 L108.57526,28.2850057 L108.57526,7.71458941 L114.504838,7.71458941 C119.036245,7.71458941 121.713205,10.0571063 121.713205,14.0132671 C121.713205,17.3306516 119.980162,19.3998411 117.2425,20.0386173 Z M129.894221,18.88224 L129.894221,26.3380036 L139.534717,26.3380036 L139.534717,28.2857143 L127.583497,28.2857143 L127.583497,7.71428571 L139.442652,7.71428571 L139.442652,9.66199639 L129.894221,9.66199639 L129.894221,17.0266508 L138.53111,17.0266508 L138.53111,18.88224 L129.894221,18.88224 Z M153.13076,17.7868046 L159.426573,28.2856131 L156.597858,28.2856131 L151.852982,19.8256244 L151.670876,19.0339874 L151.48877,19.8256244 L146.775256,28.2856131 L143.946541,28.2856131 L150.242354,17.7868046 L144.129659,7.74455419 L146.89666,7.74455419 L151.48877,15.8998334 L151.670876,16.6914705 L151.852982,15.8998334 L156.445091,7.74455419 L159.243455,7.74455419 L153.13076,17.7868046 Z M114.779009,18.4867252 C117.515659,18.4867252 119.371118,16.9955725 119.371118,14.0132671 C119.371118,11.2749316 117.729128,9.66230008 114.930764,9.66230008 L110.855633,9.66230008 L110.855633,18.4867252 L114.779009,18.4867252 Z"/>
  </g>
</svg>
