<svg xmlns="http://www.w3.org/2000/svg" width="26" height="26" viewBox="0 0 26 26">
    <path fill="#FFF" fill-rule="evenodd" d="M13 26C5.82 26 0 20.18 0 13S5.82 0 13 0s13 5.82 13 13-5.82 13-13 13zm5.077-15.84c-.16-1.709-1.633-2.282-3.492-2.441V5.353h-1.446v2.3c-.375 0-.76.01-1.145.019v-2.32h-1.446V7.72c-.31.01-.62.01-.91.01l-1.99-.01v1.54c1.06-.02 1.041 0 1.041 0 .592 0 .78.337.836.638v2.694c.037 0 .094 0 .15.01h-.15v3.774c-.028.187-.141.478-.545.478 0 0 .019.02-1.042 0l-.29 1.718h1.877c.347 0 .685.01 1.023.01v2.394h1.446v-2.366c.394.01.779.01 1.145.01v2.356h1.446V18.58c2.422-.132 4.112-.742 4.328-3.023.169-1.83-.695-2.648-2.066-2.976.827-.423 1.352-1.174 1.23-2.422zm-2.018 5.116c0 1.793-3.06 1.587-4.037 1.587V13.69c.976 0 4.037-.273 4.037 1.586zm-.667-4.469c0 1.625-2.553 1.437-3.37 1.437V9.362c.817 0 3.37-.254 3.37 1.445z"/>
</svg>
