<svg xmlns="http://www.w3.org/2000/svg" width="21" height="14" viewBox="0 0 21 14">
    <path fill="#FFF" fill-rule="nonzero" d="M10.5 0C8.724 0 6.296 1.114 4.143 2.386c-1.077.637-2.049 1.32-2.79 1.97-.371.322-.686.638-.922.954C.195 5.625 0 5.939 0 6.364c0 .604.336 1.103.738 1.431.403.329.88.54 1.333.696.446.155.88.254 1.21.319v2.207l.123.179s.575.74 1.723 1.432C6.275 13.318 8.039 14 10.5 14c2.46 0 4.225-.681 5.373-1.372 1.148-.691 1.723-1.432 1.723-1.432l.123-.179V8.83a9.15 9.15 0 0 0 1.21-.319c.456-.154.928-.363 1.333-.696.405-.333.738-.842.738-1.451 0-.423-.195-.754-.43-1.074-.237-.32-.552-.63-.924-.955-.743-.651-1.712-1.335-2.789-1.969C14.704 1.101 12.271 0 10.5 0zm0 1.273c1.128 0 3.617.967 5.66 2.167 1.023.6 1.954 1.258 2.605 1.83.325.286.584.547.738.756.154.208.184.362.184.338 0 .186-.076.303-.287.477-.21.174-.558.353-.922.477a7.28 7.28 0 0 1-1.436.318C16.67 7.564 13.684 7 10.5 7c-3.156 0-6.104.557-6.521.636a7.761 7.761 0 0 1-1.457-.338c-.366-.126-.71-.303-.922-.477-.213-.174-.288-.293-.288-.457 0 .04.031-.112.185-.319.154-.206.413-.47.738-.755.651-.57 1.582-1.226 2.605-1.83 2.043-1.208 4.537-2.187 5.66-2.187zM8.45 3.818c-1.2 0-2.544.637-2.544.637 2 0 3.317.69 3.979 1.113-.016.052-.041.102-.041.16 0 .35.295.636.656.636a.648.648 0 0 0 .656-.637c0-.057-.025-.107-.04-.159.66-.422 1.978-1.113 3.978-1.113 0 0-1.344-.637-2.543-.637-1.19 0-2.051.617-2.051.617s-.861-.617-2.05-.617zm2.05 4.455c2.794 0 5.217.412 5.906.537v1.233c-1.05-.194-3.084-.498-5.906-.498-2.822 0-4.855.304-5.906.498V8.81c.69-.125 3.112-.537 5.906-.537zm0 2.545c2.374 0 4.107.221 5.188.398-.138.102-.297.221-.492.338-.964.582-2.481 1.173-4.696 1.173s-3.732-.591-4.696-1.173c-.195-.117-.354-.236-.492-.338 1.081-.177 2.814-.398 5.188-.398z" opacity=".4"/>
</svg>
