<?xml version="1.0" encoding="UTF-8"?>
<svg width="13px" height="18px" viewBox="0 0 13 18" version="1.1" xmlns="http://www.w3.org/2000/svg" xmlns:xlink="http://www.w3.org/1999/xlink">
    <!-- Generator: Sketch 46.2 (44496) - http://www.bohemiancoding.com/sketch -->
    <title>ic_btc_m</title>
    <desc>Created with Sketch.</desc>
    <defs></defs>
    <g id="Main_vars_2" stroke="none" stroke-width="1" fill="none" fill-rule="evenodd" opacity="0.800000012">
        <g id="Aeron_full_desctop_var" transform="translate(-312.000000, -554.000000)" fill="#FFFFFF">
            <g id="Group-3" transform="translate(312.000000, 554.000000)">
                <path d="M12.0134007,5.53632867 C12.1539715,6.97447654 11.5484356,7.8395279 10.5968791,8.32611929 C12.1755978,8.70457925 13.1704069,9.6453226 12.9757703,11.7538853 C12.7270681,14.3814788 10.7807025,15.084333 7.99091189,15.235717 L7.99091189,17.9930682 L6.32568803,17.9930682 L6.32568803,15.2789695 C5.90397549,15.2789695 5.46063667,15.2789695 5.00648471,15.2681564 L5.00648471,17.9930682 L3.34126086,17.9930682 L3.34126086,15.235717 C2.95198775,15.235717 2.56271464,15.2249038 2.16262839,15.2249038 L3.12638804e-13,15.2249038 L0.3352074,13.2460989 C1.55709244,13.2677251 1.53546615,13.2460989 1.53546615,13.2460989 C2.00043126,13.2460989 2.13018896,12.9108915 2.16262839,12.6946286 L2.16262839,8.34774557 L2.33563866,8.34774557 C2.27075981,8.33693243 2.20588095,8.33693243 2.16262839,8.33693243 L2.16262839,5.23356069 C2.09774953,4.88754015 1.8814867,4.49826704 1.20025875,4.49826704 C1.20025875,4.49826704 1.22188504,4.47664076 3.12638804e-13,4.49826704 L3.12638804e-13,2.72491177 L2.29238609,2.73572491 C2.62759349,2.73572491 2.98442717,2.73572491 3.34126086,2.72491177 L3.34126086,-3.41060513e-13 L5.00648471,-3.41060513e-13 L5.00648471,2.67084606 C5.44982353,2.66003291 5.89316235,2.64921977 6.32568803,2.64921977 L6.32568803,-3.41060513e-13 L7.99091189,-3.41060513e-13 L7.99091189,2.72491177 C10.131914,2.90873518 11.8295773,3.56833684 12.0134007,5.53632867 Z M9.68857517,11.429491 C9.68857517,9.28848892 6.1634909,9.60207003 5.03892414,9.60207003 L5.03892414,13.256912 C6.1634909,13.256912 9.68857517,13.4948011 9.68857517,11.429491 Z M8.92084209,6.28243546 C8.92084209,4.32525677 5.97966749,4.6172116 5.03892414,4.6172116 L5.03892414,7.93684618 C5.97966749,7.93684618 8.92084209,8.15310901 8.92084209,6.28243546 Z" id="ic_btc_m"></path>
            </g>
        </g>
    </g>
</svg>