<svg id="Слой_1" data-name="Слой 1" xmlns="http://www.w3.org/2000/svg" xmlns:xlink="http://www.w3.org/1999/xlink" viewBox="0 0 191.21 212.11"><defs><style>.cls-1{fill:#fff;}.cls-2{fill:url(#Безымянный_градиент_22);}.cls-3{fill:url(#Безымянный_градиент_22-2);}.cls-4{fill:url(#Безымянный_градиент_22-3);}.cls-5{fill:url(#Безымянный_градиент_22-4);}.cls-6{fill:url(#Безымянный_градиент_22-5);}.cls-7{fill:url(#Безымянный_градиент_22-6);}.cls-8{fill:url(#Безымянный_градиент_22-7);}.cls-9{fill:url(#Безымянный_градиент_22-8);}.cls-10{fill:url(#Безымянный_градиент_22-9);}.cls-11{fill:url(#Безымянный_градиент_22-10);}.cls-12{fill:url(#Новый_образец_градиентной_залив);}</style><linearGradient id="Безымянный_градиент_22" x1="221.5" y1="88.88" x2="78.44" y2="231.95" gradientUnits="userSpaceOnUse"><stop offset="0" stop-color="#3db0bb"/><stop offset="0.15" stop-color="#399dbc"/><stop offset="0.43" stop-color="#377ab9"/><stop offset="0.72" stop-color="#3f649c"/><stop offset="1" stop-color="#4f4060"/></linearGradient><linearGradient id="Безымянный_градиент_22-2" x1="186.83" y1="54.2" x2="43.76" y2="197.27" xlink:href="#Безымянный_градиент_22"/><linearGradient id="Безымянный_градиент_22-3" x1="209.26" y1="76.64" x2="66.19" y2="219.7" xlink:href="#Безымянный_градиент_22"/><linearGradient id="Безымянный_градиент_22-4" x1="144.97" y1="12.35" x2="1.9" y2="155.41" xlink:href="#Безымянный_градиент_22"/><linearGradient id="Безымянный_градиент_22-5" x1="207.64" y1="75.02" x2="64.57" y2="218.09" xlink:href="#Безымянный_градиент_22"/><linearGradient id="Безымянный_градиент_22-6" x1="120.02" y1="-12.6" x2="-23.04" y2="130.47" xlink:href="#Безымянный_градиент_22"/><linearGradient id="Безымянный_градиент_22-7" x1="160.78" y1="28.16" x2="17.71" y2="171.23" xlink:href="#Безымянный_градиент_22"/><linearGradient id="Безымянный_градиент_22-8" x1="106.57" y1="-26.05" x2="-36.5" y2="117.01" xlink:href="#Безымянный_градиент_22"/><linearGradient id="Безымянный_градиент_22-9" x1="153.38" y1="20.76" x2="10.32" y2="163.83" xlink:href="#Безымянный_градиент_22"/><linearGradient id="Безымянный_градиент_22-10" x1="162.12" y1="29.49" x2="19.05" y2="172.56" xlink:href="#Безымянный_градиент_22"/><linearGradient id="Новый_образец_градиентной_залив" x1="113.47" y1="44.64" x2="50.05" y2="154.48" gradientUnits="userSpaceOnUse"><stop offset="0" stop-color="#3db0bb"/><stop offset="0.28" stop-color="#399dbc"/><stop offset="0.64" stop-color="#377ab9"/><stop offset="0.75" stop-color="#3f649c"/><stop offset="0.91" stop-color="#4f4060"/></linearGradient></defs><title>imgLogo full okt</title><circle class="cls-1" cx="95.86" cy="178.45" r="7.28"/><path class="cls-1" d="M96.07,2.24l-.48-.56-.49.56Z"/><path class="cls-1" d="M95.59,1.68l-.1-.11A12.73,12.73,0,0,0,90,2.86a25.76,25.76,0,0,1,5.14-.62Z"/><path class="cls-1" d="M96.07,2.24a25.76,25.76,0,0,1,4.95.57,12.73,12.73,0,0,0-5.33-1.24l-.1.11Z"/><path class="cls-1" d="M95.59,1.57h.09L97,0a28.16,28.16,0,0,0-2.84,0L95.5,1.57h.1Z"/><path class="cls-1" d="M95.69,1.57H95.5l.1.11Z"/><path class="cls-2" d="M98.08,182.13l-.36,23.38,0,2a23.45,23.45,0,0,0,9.6-3l35.89-20.72L175,165.45l.35-.21-35.9,7.85Z"/><path class="cls-3" d="M92.88,182.3,25,167.29l-9-2,.2.12,67.61,39a23.44,23.44,0,0,0,9.35,3l0-2Z"/><path class="cls-4" d="M155.24,76.84,99.47,177.24,178.06,160a7.15,7.15,0,0,0,5.21-9.39L156.89,76.82a6.9,6.9,0,0,1-1.65,0Z"/><path class="cls-5" d="M40.41,67.36H149.09a7.24,7.24,0,0,1,1-2L101.81,8.94a8.24,8.24,0,0,0-6.23-2.88h0a8.24,8.24,0,0,0-6.22,2.83l-49.6,57A7.23,7.23,0,0,1,40.41,67.36Z"/><path class="cls-6" d="M163.29,69.6A7.25,7.25,0,0,1,161,74.91l25.68,71.91c0-.57.07-1.15.07-1.73V67a23.46,23.46,0,0,0-2.2-9.91L163.22,68.63A7.3,7.3,0,0,1,163.29,69.6Z"/><path class="cls-7" d="M26.21,69.6a7.31,7.31,0,0,1,.14-1.42l-19.7-11A23.46,23.46,0,0,0,4.49,67v78.07c0,.46,0,.93,0,1.39L29.11,75.4A7.26,7.26,0,0,1,26.21,69.6Z"/><path class="cls-8" d="M11.23,159.64l14.69,3.25L90.61,177l-42-75.55L34.89,76.74a7.3,7.3,0,0,1-1.4.14h-.14L7.21,152.46a5.43,5.43,0,0,0,0,3.55q.53,1,1.17,2A5.44,5.44,0,0,0,11.23,159.64Z"/><path class="cls-9" d="M8.91,53.3l19.64,11a7.26,7.26,0,0,1,7.79-1.36L85,7c-.38.19-.77.39-1.14.61l-67.64,39A23.46,23.46,0,0,0,8.91,53.3Z"/><path class="cls-10" d="M153.74,62.69a7.25,7.25,0,0,1,7.53,1.89l21-11.35A23.46,23.46,0,0,0,175,46.66l-67.63-39q-.69-.4-1.41-.75Z"/><path class="cls-11" d="M149.09,71.85H40.41a7.26,7.26,0,0,1-1.6,2.71l7.2,13,49.08,88.35,50-89.93L151.14,75A7.27,7.27,0,0,1,149.09,71.85Zm-94,9.83a1.5,1.5,0,1,1-.55-2A1.5,1.5,0,0,1,55.08,81.68Zm18.36,9.76A1.57,1.57,0,1,1,75,89.86,1.57,1.57,0,0,1,73.44,91.43Zm4.47,30.86a1.5,1.5,0,1,1,.16-2.11A1.5,1.5,0,0,1,77.91,122.3ZM87,82.48a1.5,1.5,0,1,1,1.5-1.5A1.5,1.5,0,0,1,87,82.48ZM93.73,139a1.49,1.49,0,0,1,0,.16s0,.09,0,.14,0,.09,0,.14l-.05.13-.07.13-.08.12-.09.11-.11.12,0,0-.07,0-.13.09-.12.07-.14.06-.14,0-.14,0-.16,0h-.14l-.16,0-.14,0-.14,0-.13-.05-.13-.07-.12-.08-.11-.09-.12-.11,0,0,0-.07-.09-.13-.07-.12-.06-.14,0-.14s0-.09,0-.14a1.48,1.48,0,0,1,0-.16s0-.05,0-.08,0,0,0-.05a1.48,1.48,0,0,1,0-.16s0-.09,0-.14,0-.09,0-.14l.05-.13.07-.13.08-.12.09-.11.11-.12,0,0,.07,0,.13-.09.12-.07.14-.06.14,0,.14,0,.16,0h.13l.16,0,.14,0,.14,0,.13.05.13.07.12.08.11.09.11.11,0,0,0,.07.09.13.07.12.06.14,0,.14s0,.09,0,.14a1.5,1.5,0,0,1,0,.16s0,.05,0,.08S93.73,139,93.73,139Zm36.62-50.6a47.3,47.3,0,0,1-5.23,4.17,2.53,2.53,0,0,0-1.25,2.27c0,4.74-.11,9.49-.18,14.23a6.09,6.09,0,0,1-3.8,6l-2.55-17.3c-.7.39-1.26.67-1.79,1-3.44,2.11-6.84,4.29-10.32,6.33-1.19.7-1.82,1.47-1.46,2.87s-.23,2.29-1.81,2.94a7.25,7.25,0,0,0-5.11-7.13c1-1.13,2-1.62,3.26-.79s2.22.51,3.33-.46c3.08-2.7,6.27-5.26,9.42-7.88.41-.34.79-.72,1.34-1.23L98.59,85.53a6.19,6.19,0,0,1,7-1.7c4.41,1.42,8.84,2.79,13.22,4.28a3,3,0,0,0,3.13-.56,39.76,39.76,0,0,1,5.35-3.43c1.34-.69,3.13-1.25,4.2.24S131.42,87.39,130.35,88.42Z"/><path class="cls-12" d="M149.09,71.85H40.41a7.26,7.26,0,0,1-1.6,2.71l7.2,13,49.08,88.35,50-89.93L151.14,75A7.27,7.27,0,0,1,149.09,71.85Zm-94,9.83a1.5,1.5,0,1,1-.55-2A1.5,1.5,0,0,1,55.08,81.68Zm18.36,9.76A1.57,1.57,0,1,1,75,89.86,1.57,1.57,0,0,1,73.44,91.43Zm4.47,30.86a1.5,1.5,0,1,1,.16-2.11A1.5,1.5,0,0,1,77.91,122.3ZM87,82.48a1.5,1.5,0,1,1,1.5-1.5A1.5,1.5,0,0,1,87,82.48ZM93.73,139a1.49,1.49,0,0,1,0,.16s0,.09,0,.14,0,.09,0,.14l-.05.13-.07.13-.08.12-.09.11-.11.12,0,0-.07,0-.13.09-.12.07-.14.06-.14,0-.14,0-.16,0h-.14l-.16,0-.14,0-.14,0-.13-.05-.13-.07-.12-.08-.11-.09-.12-.11,0,0,0-.07-.09-.13-.07-.12-.06-.14,0-.14s0-.09,0-.14a1.48,1.48,0,0,1,0-.16s0-.05,0-.08,0,0,0-.05a1.48,1.48,0,0,1,0-.16s0-.09,0-.14,0-.09,0-.14l.05-.13.07-.13.08-.12.09-.11.11-.12,0,0,.07,0,.13-.09.12-.07.14-.06.14,0,.14,0,.16,0h.13l.16,0,.14,0,.14,0,.13.05.13.07.12.08.11.09.11.11,0,0,0,.07.09.13.07.12.06.14,0,.14s0,.09,0,.14a1.5,1.5,0,0,1,0,.16s0,.05,0,.08S93.73,139,93.73,139Zm36.62-50.6a47.3,47.3,0,0,1-5.23,4.17,2.53,2.53,0,0,0-1.25,2.27c0,4.74-.11,9.49-.18,14.23a6.09,6.09,0,0,1-3.8,6l-2.55-17.3c-.7.39-1.26.67-1.79,1-3.44,2.11-6.84,4.29-10.32,6.33-1.19.7-1.82,1.47-1.46,2.87s-.23,2.29-1.81,2.94a7.25,7.25,0,0,0-5.11-7.13c1-1.13,2-1.62,3.26-.79s2.22.51,3.33-.46c3.08-2.7,6.27-5.26,9.42-7.88.41-.34.79-.72,1.34-1.23L98.59,85.53a6.19,6.19,0,0,1,7-1.7c4.41,1.42,8.84,2.79,13.22,4.28a3,3,0,0,0,3.13-.56,39.76,39.76,0,0,1,5.35-3.43c1.34-.69,3.13-1.25,4.2.24S131.42,87.39,130.35,88.42Z"/><path class="cls-1" d="M188.47,55a28,28,0,0,0-11.25-12.19h0l-67.61-39h0A28,28,0,0,0,97,0H94.19A28,28,0,0,0,81.62,3.73h0L14,42.77h0A28.09,28.09,0,0,0,0,67v78.07a28,28,0,0,0,3.06,12.7l0,.12a9.72,9.72,0,0,0,1.67,2.81A28,28,0,0,0,14,169.33l67.61,39A27.94,27.94,0,0,0,93.33,212c.76.06,1.51.1,2.27.1s1.34,0,2-.07a27.94,27.94,0,0,0,12-3.66h0l33.81-19.52,33.81-19.52a28.09,28.09,0,0,0,14-24.24V67A27.94,27.94,0,0,0,188.47,55ZM107.36,204.48a23.45,23.45,0,0,1-9.6,3l0-2,.36-23.38,41.34-9,35.9-7.85-.35.21-31.73,18.32ZM16.23,46.67l67.64-39c.37-.22.76-.41,1.14-.61L36.34,62.91a7.26,7.26,0,0,0-7.79,1.36L8.91,53.3A23.46,23.46,0,0,1,16.23,46.67ZM95.54,6.05h0a8.24,8.24,0,0,1,6.23,2.88l48.3,56.42a7.24,7.24,0,0,0-1,2H40.41a7.23,7.23,0,0,0-.69-1.5l49.6-57A8.24,8.24,0,0,1,95.54,6.05ZM175,46.66a23.46,23.46,0,0,1,7.27,6.57l-21,11.35a7.25,7.25,0,0,0-7.53-1.89L105.94,6.87q.71.35,1.41.75Zm11.75,98.43c0,.58,0,1.16-.07,1.73L161,74.91a7.15,7.15,0,0,0,2.24-6.28L184.52,57.1a23.46,23.46,0,0,1,2.2,9.91ZM11.23,159.64A5.44,5.44,0,0,1,8.36,158q-.63-1-1.17-2a5.43,5.43,0,0,1,0-3.55L33.35,76.87h.14a7.3,7.3,0,0,0,1.4-.14l13.75,24.75,42,75.55L25.92,162.89ZM151.14,75l-6.08,10.95-50,89.93L46,87.52l-7.2-13a7.26,7.26,0,0,0,1.6-2.71H149.09A7.27,7.27,0,0,0,151.14,75ZM178.06,160,99.47,177.24l55.78-100.4a6.9,6.9,0,0,0,1.65,0l26.37,73.83a7.15,7.15,0,0,1-5.21,9.39ZM26.35,68.19a7.25,7.25,0,0,0,2.76,7.22L4.53,146.48c0-.46,0-.92,0-1.39V67a23.46,23.46,0,0,1,2.17-9.83ZM16.24,165.45l-.2-.12,9,2,67.85,15,.36,23.21,0,2a23.44,23.44,0,0,1-9.35-3Z"/><path class="cls-1" d="M102,110.94c1.57-.65,2.17-1.54,1.81-2.94s.26-2.17,1.46-2.87c3.48-2,6.88-4.22,10.32-6.33.53-.33,1.09-.61,1.79-1l2.55,17.3a6.09,6.09,0,0,0,3.8-6c.07-4.74.17-9.49.18-14.23a2.53,2.53,0,0,1,1.25-2.27,47.3,47.3,0,0,0,5.23-4.17c1.06-1,2.18-2.57,1.11-4.06s-2.87-.93-4.2-.24a39.76,39.76,0,0,0-5.35,3.43,3,3,0,0,1-3.13.56c-4.39-1.49-8.81-2.86-13.22-4.28a6.19,6.19,0,0,0-7,1.7l15.62,7.92c-.56.51-.93.89-1.34,1.23-3.14,2.62-6.34,5.19-9.42,7.88-1.11,1-2.08,1.29-3.33.46s-2.23-.34-3.26.79A7.25,7.25,0,0,1,102,110.94Z"/><circle class="cls-1" cx="73.44" cy="89.86" r="1.57"/><circle class="cls-1" cx="87.05" cy="80.99" r="1.5"/><circle class="cls-1" cx="53.79" cy="80.93" r="1.5" transform="translate(-43.19 87.04) rotate(-60)"/><path class="cls-1" d="M90.77,139.21s0,.09,0,.14l0,.14.06.14.07.12.09.13,0,.07,0,0,.12.11.11.09.12.08.13.07.13.05.14,0,.14,0,.16,0h.14l.16,0,.14,0,.14,0,.14-.06.12-.07.13-.09.07,0,0,0,.11-.12.09-.11.08-.12.07-.13.05-.13s0-.09,0-.14,0-.09,0-.14a1.49,1.49,0,0,0,0-.16s0,0,0-.05,0-.05,0-.08a1.5,1.5,0,0,0,0-.16s0-.09,0-.14l0-.14-.06-.14-.07-.12-.09-.13,0-.07,0,0-.11-.11-.11-.09-.12-.08-.13-.07-.13-.05-.14,0-.14,0-.16,0h-.13l-.16,0-.14,0-.14,0-.14.06-.12.07-.13.09-.07,0,0,0-.11.12-.09.11-.08.12-.07.13-.05.13s0,.09,0,.14,0,.09,0,.14a1.48,1.48,0,0,0,0,.16s0,0,0,.05,0,.05,0,.08A1.48,1.48,0,0,0,90.77,139.21Z"/><circle class="cls-1" cx="76.94" cy="121.16" r="1.5" transform="translate(-60.39 79.42) rotate(-40.68)"/></svg>