<svg xmlns="http://www.w3.org/2000/svg" xmlns:xlink="http://www.w3.org/1999/xlink" width="285" height="285" viewBox="0 0 285 285">
    <defs>
        <radialGradient id="c" fx="50%" fy="50%">
            <stop offset="0%" stop-color="#47B8FE"/>
            <stop offset="100%" stop-color="#009EFF"/>
        </radialGradient>
        <circle id="a" cx="138" cy="138" r="138"/>
        <filter id="b" width="104.7%" height="104.7%" x="-2.4%" y="-2%" filterUnits="objectBoundingBox">
            <feOffset dy="1" in="SourceAlpha" result="shadowOffsetOuter1"/>
            <feGaussianBlur in="shadowOffsetOuter1" result="shadowBlurOuter1" stdDeviation="2"/>
            <feColorMatrix in="shadowBlurOuter1" values="0 0 0 0 0 0 0 0 0 0 0 0 0 0 0 0 0 0 0.3 0"/>
        </filter>
        <radialGradient id="e" cx="0%" cy="100%" r="101.898%" fx="0%" fy="100%" gradientTransform="scale(-.99109 -1) rotate(-2.416 -47.414 0)">
            <stop offset="0%" stop-color="#7FEDDE"/>
            <stop offset="100%" stop-color="#36D6B3"/>
        </radialGradient>
        <radialGradient id="f" cx="67.566%" cy="47.12%" r="57.278%" fx="67.566%" fy="47.12%" gradientTransform="scale(1 .86808) rotate(-16.012 .93 .507)">
            <stop offset="0%" stop-color="#FF009F"/>
            <stop offset="100%" stop-color="#F06"/>
        </radialGradient>
    </defs>
    <g fill="none" fill-rule="evenodd">
        <g transform="rotate(-144 140.854 140.39)">
            <mask id="d" fill="#fff">
                <use xlink:href="#a"/>
            </mask>
            <use fill="#000" filter="url(#b)" xlink:href="#a"/>
            <use fill="url(#c)" xlink:href="#a"/>
            <path fill="#F6C262" d="M137.159 138.782l158.531 73.221-13.211-84.757 7.087-38.05z" mask="url(#d)"/>
            <path fill="url(#e)" d="M138-7.45v146.14l150.974-49.731-32.07-74.154-89.466-25.744z" mask="url(#d)"/>
            <path fill="url(#f)" d="M138.583-.841v139.178l82.552 113.523-41.276 41.78c-71.072-1.16-107.91-2.104-110.517-2.83-3.91-1.088-83.354-51.536-84.695-55.312-.894-2.517-7.277-34.904-19.147-97.16L20.926-.843h117.657z" mask="url(#d)"/>
            <circle cx="138.421" cy="139.262" r="67.738" fill="#033152"/>
            <circle cx="138.841" cy="139.683" r="82.463" fill="#00213D" opacity=".2"/>
        </g>
        <g fill="#FFF" fill-rule="nonzero" opacity=".3">
            <path d="M150.492 165.766l-8.072 2.04 1.062-11.971a1.247 1.247 0 0 0-.765-1.27 1.194 1.194 0 0 0-1.406.393l-7.043 9.264-4.207-15.078a1.22 1.22 0 0 0-1.17-.903 1.22 1.22 0 0 0-1.168.903l-4.252 15.23-7.043-8.24a1.195 1.195 0 0 0-1.452-.297 1.252 1.252 0 0 0-.654 1.361l2.056 10.534-7.873-1.968a1.209 1.209 0 0 0-1.348.598 1.27 1.27 0 0 0 .196 1.49l9.73 10.022c.23.235.54.367.863.367h21.892c.299 0 .587-.113.81-.316l10.946-10.022a1.265 1.265 0 0 0 .265-1.51 1.206 1.206 0 0 0-1.367-.627z"/>
            <path d="M176.74 142.262c-.485-1.138-1.573-1.843-2.843-1.843h-13.445l11.99-12.252a3.038 3.038 0 0 0 .828-2.501l-1.937-14.84a2.983 2.983 0 0 0-1.73-2.34 2.873 2.873 0 0 0-2.854.308l-5.46 3.984a3.01 3.01 0 0 0-1.22 2.425v5.764c0 .14-.058.276-.16.37L149.168 131.4v-13.38c0-.49-.283-.935-.723-1.132-.44-.2-.952-.112-1.306.22l-5.248 4.907-.094.097c-2.292 2.677-2.958 4.748-3.503 8.055l-2.792 13.254c-.052.25-.007.487.077.707l-4.187 3.922a1.257 1.257 0 0 0-.074 1.749 1.194 1.194 0 0 0 1.712.076l28.515-26.71a3.02 3.02 0 0 0 .946-2.197v-5.764a.51.51 0 0 1 .206-.41l5.46-3.984a.49.49 0 0 1 .776.344l1.936 14.84a.516.516 0 0 1-.14.424l-13.703 14.002h-5.436c-.668 0-1.21.554-1.21 1.238 0 .683.542 1.237 1.21 1.237h22.307c.142 0 .485.035.622.356a.657.657 0 0 1-.136.727l-1.745 1.96c-2.54 2.785-6.095 4.383-9.755 4.383h-12.615c-1.033 0-1.937.259-2.745.812l-2.444 1.883a1.257 1.257 0 0 0-.239 1.734c.239.321.602.492.97.492.252 0 .51-.081.727-.25l2.388-1.84c.345-.237.797-.355 1.343-.355h12.615c4.33 0 8.531-1.885 11.538-5.182l1.745-1.96a3.15 3.15 0 0 0 .574-3.392zm-36.067-11.63c.516-3.128 1.035-4.643 2.903-6.84l3.17-2.963v12.838l-8.363 7.832 2.29-10.868z"/>
        </g>
    </g>
</svg>
