<svg xmlns="http://www.w3.org/2000/svg" width="80" height="147" viewBox="0 0 80 147">
    <g fill="#FFF" fill-rule="nonzero">
        <path d="M16.667 0c-4.44 0-8.503 2.125-11.524 5.148C2.123 8.172 0 12.238 0 16.683V130.13c0 5.748 2.083 10.244 5.365 12.982 3.28 2.75 7.408 3.701 11.302 3.701h46.666c4.44 0 8.503-2.124 11.524-5.148 3.02-3.024 5.143-7.09 5.143-11.535V16.683c0-4.444-2.122-8.51-5.143-11.535C71.836 2.125 67.773 0 63.333 0H16.667zm0 6.673h46.666c2.227 0 4.831 1.212 6.81 3.194 1.98 1.98 3.19 4.588 3.19 6.816v3.337H6.667v-3.337c0-2.228 1.21-4.835 3.19-6.816 1.979-1.982 4.583-3.194 6.81-3.194zm-10 20.02h66.666v86.754H6.667V26.693zm0 93.427h66.666v10.01c0 2.229-1.21 4.835-3.19 6.817-1.979 1.98-4.583 3.193-6.81 3.193H16.667c-2.774 0-5.313-.717-7.032-2.138-1.718-1.433-2.968-3.61-2.968-7.872v-10.01zM40 123.457a6.666 6.666 0 0 0-6.667 6.673 6.666 6.666 0 1 0 13.334 0A6.666 6.666 0 0 0 40 123.457z" opacity=".3"/>
        <path d="M41 54c-3.722 0-8.809 2.414-13.32 5.172-2.256 1.38-4.292 2.861-5.844 4.268-.779.7-1.44 1.384-1.934 2.069-.494.684-.902 1.363-.902 2.284 0 1.31.704 2.392 1.547 3.104.843.71 1.842 1.169 2.793 1.508.934.334 1.842.55 2.535.69v4.784l.258.388s1.203 1.606 3.61 3.104c2.405 1.498 6.1 2.974 11.257 2.974 5.156 0 8.852-1.476 11.258-2.974 2.406-1.498 3.61-3.104 3.61-3.104l.257-.388v-4.741a18.659 18.659 0 0 0 2.535-.69c.956-.334 1.944-.786 2.793-1.508.849-.722 1.547-1.827 1.547-3.147 0-.916-.408-1.632-.902-2.327-.494-.696-1.155-1.364-1.934-2.07-1.558-1.411-3.588-2.893-5.844-4.267C49.81 56.387 44.711 54 41 54zm0 2.759c2.363 0 7.579 2.096 11.86 4.698 2.142 1.298 4.092 2.726 5.456 3.965.683.62 1.225 1.186 1.547 1.638.323.453.387.787.387.733 0 .404-.161.657-.602 1.035-.44.377-1.17.765-1.933 1.034-1.461.512-2.884.679-3.008.69-.779-.157-7.036-1.38-13.707-1.38-6.612 0-12.789 1.207-13.664 1.38a15.799 15.799 0 0 1-3.05-.733c-.769-.275-1.489-.657-1.934-1.035-.446-.377-.602-.635-.602-.99 0 .085.064-.243.387-.69.322-.448.864-1.019 1.547-1.638 1.364-1.234 3.314-2.657 5.457-3.966 4.28-2.619 9.506-4.741 11.859-4.741zm-4.297 5.517c-2.514 0-5.328 1.38-5.328 1.38 4.19 0 6.95 1.497 8.336 2.413-.032.113-.086.22-.086.345 0 .76.618 1.38 1.375 1.38a1.38 1.38 0 0 0 1.375-1.38c0-.124-.054-.232-.086-.345 1.386-.916 4.147-2.414 8.336-2.414 0 0-2.814-1.38-5.328-1.38-2.492 0-4.297 1.337-4.297 1.337s-1.805-1.336-4.297-1.336zM41 71.93c5.854 0 10.93.894 12.375 1.164v2.672c-2.202-.42-6.461-1.077-12.375-1.077s-10.173.657-12.375 1.077v-2.672c1.445-.27 6.52-1.164 12.375-1.164zm0 5.517c4.974 0 8.604.48 10.871.862-.29.221-.623.48-1.031.733-2.02 1.26-5.2 2.543-9.84 2.543s-7.82-1.282-9.84-2.543c-.408-.253-.741-.512-1.031-.733 2.267-.382 5.897-.862 10.871-.862z"/>
    </g>
</svg>
