<svg xmlns="http://www.w3.org/2000/svg" width="278" height="230" viewBox="0 0 278 230">
    <g fill="none" fill-rule="evenodd" opacity=".2">
        <path fill="#FFF" d="M62.575 72.235l-7.61 11.141-2.681-6.562 3.071-13.31L39.05 43.778l-14.891-18.02A9824.411 9824.411 0 0 1 9.998 8.6C2.89-.08 6.732-3.364 14 4.303A70269.52 70269.52 0 0 1 30.777 22.01l.764-.618 51.076-16.3 10.557 3-46.958 29.05-.592.548A74059.729 74059.729 0 0 1 227 230h-33.956c-56.59-68.42-100.08-121.008-130.47-157.765zM22.73 31.654c2.093 2.774 6.488 8.186 13.186 16.238L2.675 91.569 0 79.313l22.73-47.659z"/>
        <path fill="#FFF" d="M156.458 114.09l-5.847 8.737-2.28-4.822 2.75-10.38-12.024-14.458-11.009-13.24c-6.1-7.34-9.59-11.543-10.468-12.608-5.254-6.377-2.413-8.79 2.959-3.158 4.13 4.331 8.264 8.668 12.403 13.012l.564-.455 37.758-11.977 7.805 2.205-34.714 21.346-.438.402A54555.471 54555.471 0 0 1 278 230h-25.102a898623.81 898623.81 0 0 1-96.44-115.91zm-29.527-29.913c1.522 2.013 4.796 6.021 9.82 12.024l-25.917 34.091-.834-12.765 16.931-33.35z" opacity=".76"/>
        <path fill="#AFE9F7" d="M73.66 147.73l-4.101 6.904-1.37-3.424 1.7-8.062-8.48-10.307-7.732-9.402a5120.695 5120.695 0 0 1-7.353-8.952c-3.69-4.529-1.695-6.242 2.078-2.242 2.9 3.075 5.805 6.154 8.712 9.239l.396-.323 26.57-9.28 5.433 2.341-24.383 15.157-.307.285A38564.094 38564.094 0 0 1 159 230h-17.631c-29.362-35.67-51.932-63.094-67.71-82.27zm-20.768-21.273c1.07 1.43 3.368 4.275 6.897 8.538l-18.203 24.207-.586-9.065 11.892-23.68z" opacity=".44"/>
    </g>
</svg>
