<svg xmlns="http://www.w3.org/2000/svg" width="569" height="298" viewBox="0 0 569 298">
    <g fill="#033152" fill-rule="evenodd">
        <path d="M448.482 290.376c-1.73-.915-2.42-3.28-1.543-5.284.878-2.003 2.992-2.886 4.722-1.971 1.73.914 2.42 3.28 1.542 5.283-.877 2.003-2.992 2.886-4.72 1.972M31.393 117.546a3.5 3.5 0 1 1 4.836-5.06 3.5 3.5 0 0 1-4.836 5.06M572.522 254.512a5.5 5.5 0 1 1-10.462 3.393 5.5 5.5 0 0 1 10.462-3.393M543.888 263.35a5.499 5.499 0 1 1-10.594 2.95 5.499 5.499 0 0 1 10.594-2.95M515.546 270.17a5.498 5.498 0 1 1-10.687 2.592 5.498 5.498 0 0 1 10.687-2.591M486.06 277.853a5.498 5.498 0 1 1-10.78 2.17 5.498 5.498 0 0 1 10.78-2.17"/>
        <path d="M456.053 282.453a5.498 5.498 0 1 1-10.868 1.677 5.498 5.498 0 0 1 10.868-1.677M426.196 286.111a5.5 5.5 0 1 1-10.944 1.09 5.5 5.5 0 0 1 10.944-1.09M397.133 290.62a5.5 5.5 0 1 1-10.945 1.09 5.5 5.5 0 0 1 10.945-1.09M367.732 291.37a5.499 5.499 0 1 1-10.99.393 5.499 5.499 0 0 1 10.99-.392M338.306 292.19a5.5 5.5 0 1 1-10.99-.444 5.5 5.5 0 0 1 10.99.445M309.307 290.13a5.5 5.5 0 1 1-10.904-1.445 5.5 5.5 0 1 1 10.904 1.444M278.533 286.267a5.5 5.5 0 1 1-10.906-1.444 5.5 5.5 0 0 1 10.906 1.444M250.091 280.344a5.499 5.499 0 0 1-6.652 4.03 5.5 5.5 0 1 1 6.652-4.03M221.028 271.392a5.5 5.5 0 1 1-10.254-3.981 5.5 5.5 0 0 1 10.254 3.98M117.674 209.334a5.5 5.5 0 0 1-8.106-7.435 5.5 5.5 0 0 1 8.106 7.435M95.328 190.607a5.499 5.499 0 1 1-8.106-7.432 5.499 5.499 0 0 1 8.106 7.432M74.212 168.466a5.5 5.5 0 1 1-7.34-8.194 5.5 5.5 0 0 1 7.34 8.194M55.341 144.63a5.5 5.5 0 1 1-6.485-8.886 5.5 5.5 0 0 1 6.485 8.885M38.257 122.048a5.5 5.5 0 1 1-5.566-9.487 5.5 5.5 0 0 1 5.566 9.487M25.576 97.076a5.5 5.5 0 1 1-4.616-9.983 5.5 5.5 0 0 1 4.616 9.983M14.305 69.26a5.5 5.5 0 1 1-3.569-10.403 5.5 5.5 0 0 1 3.57 10.403M7.11 41.03a5.499 5.499 0 1 1-2.46-10.72 5.499 5.499 0 0 1 2.46 10.72M3.51 11.36c-.444.022-1.362-.074-1.362-.074L3.872.422s.697.14 1.025.248c2.706.89 4.463 3.448 4.038 6.123-.409 2.579-2.709 4.426-5.424 4.566M140.858 251.05c8.076-6.125 11.69-11.892 11.69-11.892s-12.824-8.504-13.737-9.171c-.914-.667-2.703-2.1-2.703-2.1l-16.306 3.954-4.33-2.751 13.337-8.387s-2.499-2.526-2.097-3.133c.549-.826 3.691.57 3.691.57l2.16-15.406 4.519 2.766 2.773 16.247s1.406.492 2.994 1.239c1.588.746 14.598 8.851 14.598 8.851s3.352-4.903 5.734-16.789c2.38-11.886 2.234-22.996 2.234-22.996l6.799 3.836 6.533 49.581s20.876 12.954 22.733 16.314c1.085 1.962 2.73 3.605 2.224 4.42-.429.691-2.462.094-4.88-.148-5.308-.535-25.476-13.274-25.476-13.274l-47.275 14.037-6.455-4.263s13.163-5.38 21.24-11.505"/>
    </g>
</svg>
