<svg xmlns="http://www.w3.org/2000/svg" width="565" height="162" viewBox="0 0 565 162">
    <g fill="#033152" fill-rule="evenodd" opacity=".06">
        <path d="M447.498 133.831c-1.852-.632-2.904-2.86-2.35-4.976.553-2.117 2.503-3.319 4.355-2.686 1.85.632 2.903 2.86 2.35 4.977-.554 2.116-2.504 3.318-4.355 2.685M8.507 28.377a3.5 3.5 0 1 1 3.985-5.754 3.5 3.5 0 0 1-3.985 5.754M564.4 79.005a5.5 5.5 0 1 1-9.802 4.989 5.5 5.5 0 0 1 9.803-4.989M537.501 92.214a5.499 5.499 0 1 1-10.002 4.572 5.499 5.499 0 0 1 10.002-4.572M510.575 103.384a5.498 5.498 0 1 1-10.15 4.232 5.498 5.498 0 0 1 10.15-4.232M482.654 115.585a5.498 5.498 0 1 1-10.307 3.83 5.498 5.498 0 0 1 10.307-3.83"/>
        <path d="M453.736 124.822a5.498 5.498 0 1 1-10.472 3.356 5.498 5.498 0 0 1 10.472-3.356M424.819 133.106a5.5 5.5 0 1 1-10.639 2.788 5.5 5.5 0 0 1 10.639-2.788M396.819 142.106a5.5 5.5 0 1 1-10.64 2.788 5.5 5.5 0 0 1 10.64-2.788M367.897 147.447a5.499 5.499 0 1 1-10.793 2.107 5.499 5.499 0 0 1 10.793-2.107M338.962 152.86a5.5 5.5 0 1 1-10.925 1.28 5.5 5.5 0 0 1 10.925-1.28M309.998 155.36a5.5 5.5 0 1 1-10.996.28 5.5 5.5 0 1 1 10.996-.28M278.998 156.36a5.5 5.5 0 1 1-10.997.28 5.5 5.5 0 0 1 10.997-.28M249.98 154.959a5.499 5.499 0 0 1-5.94 5.021 5.5 5.5 0 1 1 5.94-5.022M219.874 150.663a5.5 5.5 0 1 1-10.75-2.328 5.5 5.5 0 0 1 10.75 2.328M108.085 105.537a5.5 5.5 0 0 1-9.17-6.074 5.5 5.5 0 0 1 9.17 6.074M83.085 90.537a5.499 5.499 0 1 1-9.17-6.073 5.499 5.499 0 0 1 9.17 6.073M58.765 71.972a5.5 5.5 0 1 1-8.532-6.945 5.5 5.5 0 0 1 8.532 6.945M36.397 51.38a5.5 5.5 0 1 1-7.794-7.76 5.5 5.5 0 0 1 7.794 7.76M15.99 31.75a5.5 5.5 0 1 1-6.982-8.5 5.5 5.5 0 0 1 6.983 8.5M-.44 9.07A5.5 5.5 0 1 1-6.56-.07 5.5 5.5 0 0 1-.44 9.07M137.51 143.113c7.017-7.312 9.686-13.574 9.686-13.574s-13.997-6.394-15.004-6.91c-1.007-.515-2.998-1.65-2.998-1.65l-15.487 6.456-4.707-2.04 11.862-10.37s-2.864-2.104-2.562-2.766c.413-.903 3.735-.015 3.735-.015l-.277-15.555 4.896 2.026 5.281 15.613s1.465.266 3.151.755c1.685.488 15.803 6.459 15.803 6.459s2.544-5.368 3.037-17.48C154.417 91.95 152.535 81 152.535 81l7.315 2.725 14.209 47.949s22.645 9.529 25.005 12.556c1.379 1.768 3.26 3.134 2.888 4.018-.316.75-2.417.478-4.843.617-5.327.302-27.238-9.124-27.238-9.124L125.373 161l-7.042-3.2s12.16-7.373 19.178-14.687"/>
    </g>
</svg>
