<svg xmlns="http://www.w3.org/2000/svg" width="212" height="77" viewBox="0 0 212 77">
    <g fill="#033152" fill-rule="evenodd" opacity=".08">
        <path d="M1.528-.511a3 3 0 1 0 4.55 3.91 3 3 0 0 0-4.55-3.91M14.474 9.348a3 3 0 1 0 4.788 3.614 3 3 0 0 0-4.788-3.614M28.308 19.684a3 3 0 1 0 5.05 3.24 3 3 0 0 0-5.05-3.24M42.113 27.833a3 3 0 1 0 5.323 2.767 3 3 0 0 0-5.323-2.767M57.853 36.622a3 3 0 1 0 5.325 2.767 3 3 0 0 0-5.325-2.767M72.538 43.035a3 3 0 1 0 5.592 2.172 3 3 0 0 0-5.592-2.172M89.016 48.162a3 3 0 1 0 5.826 1.43 3 3 0 0 0-5.826-1.43M157.415 52.62a3 3 0 1 0 5.949-.787 3 3 0 0 0-5.95.786M174.404 52.004a3 3 0 1 0 5.947-.784 3 3 0 0 0-5.947.784M190.963 48.106a3 3 0 1 0 5.841-1.364 3 3 0 0 0-5.841 1.364M207.99 43.308a3 3 0 1 0 5.677-1.94 3 3 0 0 0-5.677 1.94M133.034 64.406c-1.792-5.45-1.615-9.282-1.615-9.282s8.746.264 9.39.255c.642-.01 1.942-.086 1.942-.086l6.34 7.133 2.915.145-3.519-8.207s1.985-.348 1.994-.758c.011-.56-1.91-.94-1.91-.94l3.978-7.795-3.007-.2-6.555 6.575s-.816-.232-1.8-.406c-.983-.174-9.687-.682-9.687-.682s.02-3.35 2.754-9.596c2.735-6.246 6.4-11.312 6.4-11.312l-4.42-.45-19.1 20.692s-13.95-.84-15.905.101c-1.142.55-2.443.77-2.47 1.31-.023.458 1.12.846 2.329 1.522 2.653 1.483 16.201 2.192 16.201 2.192l17.55 21.864 4.397.141s-4.41-6.765-6.202-12.216"/>
    </g>
</svg>
