<?xml version="1.0" encoding="UTF-8"?>
<svg width="591px" height="324px" viewBox="0 0 591 324" version="1.1" xmlns="http://www.w3.org/2000/svg" xmlns:xlink="http://www.w3.org/1999/xlink">
    <!-- Generator: Sketch 46.2 (44496) - http://www.bohemiancoding.com/sketch -->
    <title>team_bottom_plane</title>
    <desc>Created with Sketch.</desc>
    <defs></defs>
    <g id="Main_remake" stroke="none" stroke-width="1" fill="none" fill-rule="evenodd">
        <g id="Aeron_full_desctop" transform="translate(-836.000000, -7809.000000)" fill="#033152">
            <g id="team_bottom_plane" transform="translate(833.000000, 7807.000000)">
                <path d="M461.610858,18.8989816 C459.064262,17.9469413 457.616905,14.595534 458.378553,11.4132947 C459.139449,8.23011566 461.820631,6.42189702 464.367979,7.37299747 C466.913071,8.32503774 468.360428,11.6764451 467.59878,14.8596241 C466.837884,18.0418634 464.15595,19.850082 461.610858,18.8989816" id="Fill-98" transform="translate(462.988671, 13.135992) scale(-1, 1) rotate(-155.000000) translate(-462.988671, -13.135992) "></path>
                <path d="M592.915341,7.04568568 C594.57248,10.6728188 592.976243,14.9548511 589.350688,16.611272 C585.72438,18.2684447 581.442436,16.6729272 579.785297,13.0465459 C578.12891,9.42091654 579.724395,5.13813243 583.34995,3.48171154 C586.975505,1.82453876 591.258202,3.42080818 592.915341,7.04568568" id="Fill-208" transform="translate(586.350481, 10.046544) scale(-1, 1) rotate(-155.000000) translate(-586.350481, -10.046544) "></path>
                <path d="M554.193774,9.4387306 C555.727553,13.119268 553.987767,17.3449309 550.308202,18.8780495 C546.628638,20.41192 542.402476,18.6727815 540.868698,14.9914923 C539.335671,11.3132106 541.076209,7.08679579 544.755022,5.55367717 C548.435338,4.01980664 552.660748,5.75969703 554.193774,9.4387306" id="Fill-209" transform="translate(547.531503, 12.215904) scale(-1, 1) rotate(-155.000000) translate(-547.531503, -12.215904) "></path>
                <path d="M512.280366,10.7073852 C513.668313,14.4441667 511.765337,18.5989866 508.027803,19.986934 C504.291774,21.3756333 500.136954,19.4719048 498.748254,15.7343714 C497.360307,11.9975898 499.264036,7.84352181 503.000817,6.45482252 C506.737599,5.06762695 510.892419,6.97060363 512.280366,10.7073852" id="Fill-210" transform="translate(505.514353, 13.221224) scale(-1, 1) rotate(-155.000000) translate(-505.514353, -13.221224) "></path>
                <path d="M472.404869,16.3860833 C473.62141,20.1829961 471.529682,24.2468207 467.733445,25.4625847 C463.937208,26.6783487 459.874054,24.5874151 458.657514,20.7905022 C457.441726,16.9943412 459.532701,12.9312685 463.32969,11.7155045 C467.125175,10.4982368 471.189081,12.5906741 472.404869,16.3860833" id="Fill-211" transform="translate(465.531336, 18.588756) scale(-1, 1) rotate(-155.000000) translate(-465.531336, -18.588756) "></path>
                <path d="M431.366497,25.3244323 C432.377011,29.1814757 430.070273,33.1257349 426.214682,34.1369871 C422.35834,35.1467355 418.413277,32.840028 417.402011,28.9837364 C416.391498,25.1274448 418.698987,21.1831856 422.554578,20.1719335 C426.410921,19.1621851 430.356736,21.4688925 431.366497,25.3244323" id="Fill-212" transform="translate(424.384280, 27.154459) scale(-1, 1) rotate(-155.000000) translate(-424.384280, -27.154459) "></path>
                <path d="M391.38348,30.6915887 C392.393994,34.5486839 390.087256,38.492996 386.231665,39.5042617 C382.375323,40.5147755 378.43026,38.2072852 377.418994,34.3509419 C376.408481,30.4953505 378.71597,26.5502865 382.571561,25.5397727 C386.427903,24.5292589 390.373718,26.8359973 391.38348,30.6915887" id="Fill-213" transform="translate(384.401263, 32.521990) scale(-1, 1) rotate(-155.000000) translate(-384.401263, -32.521990) "></path>
                <path d="M353.537273,40.8692183 C354.300466,44.7837312 351.746966,48.5741768 347.834006,49.3366271 C343.921045,50.0998292 340.130647,47.5462976 339.367454,43.6325366 C338.604262,39.7202794 341.158514,35.9298339 345.070722,35.1666317 C348.983682,34.4041814 352.77408,36.9569612 353.537273,40.8692183" id="Fill-214" transform="translate(346.452378, 42.251732) scale(-1, 1) rotate(-155.000000) translate(-346.452378, -42.251732) "></path>
                <path d="M313.492401,52.1582347 C313.956389,56.1183434 311.122074,59.7047009 307.162004,60.1686939 C303.201933,60.6319348 299.616362,57.798344 299.152374,53.8374833 C298.688385,49.8781266 301.522701,46.2917691 305.483523,45.8285281 C309.442842,45.3645352 313.029164,48.1988781 313.492401,52.1582347" id="Fill-215" transform="translate(306.322388, 52.998541) scale(-1, 1) rotate(-155.000000) translate(-306.322388, -52.998541) "></path>
                <path d="M277.624998,66.9066272 C277.726529,70.8934088 274.577558,74.2070778 270.591519,74.3078566 C266.60548,74.4093876 263.291803,71.2604243 263.190272,67.2736428 C263.088741,63.2876133 266.237712,59.9746964 270.224503,59.8731655 C274.20979,59.7708824 277.524219,62.9205978 277.624998,66.9066272" id="Fill-216" transform="translate(270.407635, 67.090494) scale(-1, 1) rotate(-155.000000) translate(-270.407635, -67.090494) "></path>
                <path d="M237.348035,83.031961 C237.449566,87.0187426 234.299843,90.3324116 230.313804,90.4339425 C226.327765,90.5354734 223.014088,87.3857581 222.913309,83.3989766 C222.811778,79.4136992 225.959997,76.1000302 229.946788,75.9992513 C233.932827,75.8969683 237.246504,79.0459316 237.348035,83.031961" id="Fill-217" transform="translate(230.130672, 83.216579) scale(-1, 1) rotate(-155.000000) translate(-230.130672, -83.216579) "></path>
                <path d="M203.444041,102.273074 C203.110889,106.247623 199.619931,109.19864 195.646917,108.864733 C191.673152,108.53233 188.722157,105.040593 189.056061,101.066797 C189.389214,97.094505 192.880172,94.1434876 196.853185,94.4766428 C200.826951,94.8097979 203.777946,98.3007823 203.444041,102.273074" id="Fill-218" transform="translate(196.250051, 101.670743) scale(-1, 1) rotate(-155.000000) translate(-196.250051, -101.670743) "></path>
                <path d="M169.277435,127.03093 C168.433032,130.928057 164.590735,133.402579 160.694299,132.558941 C156.798616,131.715302 154.324056,127.873064 155.167707,123.975937 C156.011358,120.080314 159.853656,117.605792 163.750091,118.44943 C167.646526,119.293068 170.120334,123.135307 169.277435,127.03093" id="Fill-219" transform="translate(162.222458, 125.504184) scale(-1, 1) rotate(-155.000000) translate(-162.222458, -125.504184) "></path>
                <path d="M58.292351,252.45603 C56.0898108,255.779804 51.6102847,256.688953 48.2865471,254.487893 C44.9628094,252.286081 44.0536694,247.806507 46.2554576,244.481981 C48.4572458,241.15896 52.9367719,240.249058 56.2597576,242.45087 C59.5842472,244.653434 60.4933872,249.132256 58.292351,252.45603" id="Fill-220" transform="translate(52.273604, 248.469197) scale(-1, 1) rotate(-155.000000) translate(-52.273604, -248.469197) "></path>
                <path d="M33.7117479,285.160332 C31.5099814,288.484866 27.0304996,289.394018 23.7067948,287.1922 C20.38309,284.991135 19.473207,280.511548 21.6757254,277.187014 C23.8774918,273.863984 28.3562217,272.95408 31.6799265,275.155146 C35.0043833,277.357715 35.9135144,281.836549 33.7117479,285.160332" id="Fill-221" transform="translate(27.693552, 281.174033) scale(-1, 1) rotate(-155.000000) translate(-27.693552, -281.174033) "></path>
                <path d="M16.1260407,322.945498 C13.6082621,326.038608 9.06076888,326.504116 5.96919544,323.986311 C2.87686999,321.469259 2.41061469,316.92247 4.9283933,313.829361 C7.44541988,310.737755 11.9921611,310.272247 15.0844865,312.7893 C18.176812,315.306352 18.6430673,319.853893 16.1260407,322.945498" id="Fill-222" transform="translate(10.526909, 318.388052) scale(-1, 1) rotate(-155.000000) translate(-10.526909, -318.388052) "></path>
                <path d="M81.262692,225.499045 C90.8882409,215.599902 94.5475472,207.123218 94.5475472,207.123218 C94.5475472,207.123218 75.350808,198.468323 73.9704349,197.769996 C72.5892383,197.07167 69.8589658,195.535512 69.8589658,195.535512 L48.6188462,204.275078 L42.1625548,201.51322 L58.4305312,187.474921 C58.4305312,187.474921 54.5035511,184.627587 54.9170041,183.73089 C55.4836489,182.509222 60.0398683,183.710731 60.0398683,183.710731 L59.6601833,162.654491 L66.3750887,165.396189 L73.6179291,186.53226 C73.6179291,186.53226 75.6275415,186.891907 77.9394192,187.553946 C80.2496498,188.215179 99.6127586,196.297543 99.6127586,196.297543 C99.6127586,196.297543 103.101577,189.031237 103.777762,172.635884 C104.4523,156.239725 101.870278,141.416009 101.870278,141.416009 L111.902691,145.104399 L131.390165,210.01329 C131.390165,210.01329 162.448559,222.912978 165.684529,227.01101 C167.575541,229.404351 170.155916,231.253384 169.6461,232.449249 C169.212881,233.46529 166.331064,233.097579 163.002849,233.285466 C155.698238,233.694302 125.646298,220.933311 125.646298,220.933311 L64.6183252,249.712269 L54.9598319,245.37958 C54.9598319,245.37958 71.6363196,235.398993 81.262692,225.499045" id="Fill-229" transform="translate(105.937019, 195.564139) scale(-1, 1) rotate(-155.000000) translate(-105.937019, -195.564139) "></path>
            </g>
        </g>
    </g>
</svg>