<?xml version="1.0" encoding="UTF-8"?>
<svg width="944px" height="236px" viewBox="0 0 944 236" version="1.1" xmlns="http://www.w3.org/2000/svg" xmlns:xlink="http://www.w3.org/1999/xlink">
    <!-- Generator: Sketch 44.1 (41455) - http://www.bohemiancoding.com/sketch -->
    <title>logo 1</title>
    <desc>Created with Sketch.</desc>
    <defs></defs>
    <g id="Logo" stroke="none" stroke-width="1" fill="none" fill-rule="evenodd">
        <g id="Artboard-3-Copy-2" transform="translate(0.000000, -139.000000)">
            <g id="logo-1" transform="translate(-2.000000, 139.000000)">
                <g id="Group">
                    <g id="Group-3">
                        <g id="Group-2" transform="translate(556.016907, 0.000000)">
                            <polygon id="х" fill="#C0C0C0" points="288.741821 91.6752104 346.150931 4.60354136 383.450635 4.60354136 308.202536 113.362206 392.207957 233.773585 352.962181 233.773585 287.768785 136.343948 223.548425 233.773585 184.95134 233.773585 268.30807 113.03852 192.086935 4.60354136 231.008366 4.60354136"></polygon>
                            <polyline id="х" fill="#058C6C" points="287.768785 136.343948 223.548425 233.773585 184.95134 233.773585 268.30807 113.03852 192.086935 4.60354136 231.008366 4.60354136 288.741821 91.6752104 288.741821 91.6752104"></polyline>
                            <rect id="Rectangle" fill="#C0C0C0" x="0.867388724" y="0" width="153.163037" height="35.9651669"></rect>
                            <rect id="Rectangle-Copy" fill="#C0C0C0" x="0.867388724" y="98.904209" width="153.163037" height="35.9651669"></rect>
                            <rect id="Rectangle-Copy-2" fill="#C0C0C0" x="0.867388724" y="197.808418" width="153.163037" height="35.9651669"></rect>
                            <polygon id="Triangle-2" fill="#058C6C" transform="translate(297.476554, 113.694604) rotate(90.000000) translate(-297.476554, -113.694604) " points="296.89509 103.493552 320.671249 123.895657 274.281859 123.323188"></polygon>
                        </g>
                        <path d="M257.748669,233.773585 L225.367831,233.773585 L225.367831,2.05720755 L257.748669,2.05720755 L257.748669,233.773585 Z M314.006286,2.05720755 L393.486524,2.05720755 C408.314187,2.05720755 423.141628,4.23907252 437.969291,8.60286792 C452.796954,12.9666633 466.207066,19.839538 478.200028,29.2216981 C490.192991,38.6038582 499.896243,50.6041156 507.310074,65.2228302 C514.723906,79.8415448 518.430766,97.4055578 518.430766,117.915396 C518.430766,137.770665 514.723906,154.952852 507.310074,169.462472 C499.896243,183.972091 490.192991,195.972349 478.200028,205.463604 C466.207066,214.954859 452.796954,222.04592 437.969291,226.737 C423.141628,231.42808 408.314187,233.773585 393.486524,233.773585 L314.006286,233.773585 L314.006286,2.05720755 Z M346.387124,205.299962 L386.94494,205.299962 C400.900388,205.299962 413.819886,203.336284 425.703822,199.408868 C437.587758,195.481452 447.836136,189.808603 456.449264,182.390151 C465.062391,174.971699 471.767447,165.807866 476.564632,154.898377 C481.361818,143.988889 483.760374,131.661352 483.760374,117.915396 C483.760374,103.514871 481.361818,90.8600545 476.564632,79.950566 C471.767447,69.0410775 465.062391,59.9317913 456.449264,52.622434 C447.836136,45.3130767 437.587758,39.749321 425.703822,35.931 C413.819886,32.112679 400.900388,30.2035472 386.94494,30.2035472 L346.387124,30.2035472 L346.387124,205.299962 Z" id="tidex" fill="#C0C0C0"></path>
                        <g id="Group-4" transform="translate(13.000000, 0.000000)">
                            <polygon id="Path" fill="#000000" points="119.617524 2.05720755 181.62239 2.05720755 181.62239 30.5308302 119.617524 30.5308302"></polygon>
                            <polygon id="Path" fill="#058C6C" points="107.375418 233.773585 74.9945807 233.773585 74.9945807 30.5308302 0.747609527 30.5308302 0.747609527 2.05720755 107.375418 2.05720755 107.375418 30.5308302"></polygon>
                        </g>
                        <g id="Group-5" transform="translate(0.000000, 1.000000)">
                            <polygon id="Rectangle-22" fill="#058C6C" points="0 0 119.073612 0 164.079821 31.3608247 0 31.3608247"></polygon>
                            <polygon id="Rectangle-22" fill="#C0C0C0" points="119.159642 0 209 0 209 31.3608247 162.488439 31.3608247"></polygon>
                            <rect id="Rectangle-22" fill="#058C6C" transform="translate(102.687861, 124.840206) rotate(90.000000) translate(-102.687861, -124.840206) " x="-6.64450867" y="109.159794" width="218.66474" height="31.3608247"></rect>
                        </g>
                    </g>
                </g>
            </g>
        </g>
    </g>
</svg>