<?xml version="1.0" encoding="UTF-8"?>
<!DOCTYPE svg PUBLIC "-//W3C//DTD SVG 1.1//EN" "http://www.w3.org/Graphics/SVG/1.1/DTD/svg11.dtd">
<!-- Creator: CorelDRAW 2018 (64-Bit) -->
<svg xmlns="http://www.w3.org/2000/svg" xml:space="preserve" width="310mm" height="300mm" version="1.1" style="shape-rendering:geometricPrecision; text-rendering:geometricPrecision; image-rendering:optimizeQuality; fill-rule:evenodd; clip-rule:evenodd"
viewBox="0 0 31000 30000"
 xmlns:xlink="http://www.w3.org/1999/xlink">
 <defs>
  <style type="text/css">
   <![CDATA[
    .fil0 {fill:#002B4B}
    .fil2 {fill:red}
    .fil1 {fill:url(#id0)}
   ]]>
  </style>
  <linearGradient id="id0" gradientUnits="userSpaceOnUse" x1="190.02" y1="3.38" x2="190.02" y2="19952.96">
   <stop offset="0" style="stop-opacity:1; stop-color:#00CCEA"/>
   <stop offset="1" style="stop-opacity:1; stop-color:#FF0059"/>
  </linearGradient>
 </defs>
 <g id="Layer_x0020_1">
  <metadata id="CorelCorpID_0Corel-Layer"/>
  <path class="fil0" d="M30246.69 12491.71l0 132.29c0,15.32 -14.95,26.46 -26.46,26.46 -13.41,0 -26.46,-10.18 -26.46,-26.46l0 -132.29 -211.66 -132.29 0 -52.92 211.66 66.15 0 -145.52 -52.91 -39.69 0 -39.69 79.37 26.46 79.38 -26.46 0 39.69 -52.92 39.69 0 145.52 211.67 -66.15 0 52.92 -211.67 132.29zm0 -9604.37c0,15.32 -14.95,26.45 -26.46,26.45 -13.41,0 -26.46,-10.18 -26.46,-26.45l0 -132.3 -211.66 -132.29 0 -52.91 211.66 66.14 0 -145.52 -52.91 -39.69 0 -39.68 79.37 26.45 79.38 -26.45 0 39.68 -52.92 39.69 0 145.52 211.67 -66.14 0 52.91 -211.67 132.29 0 132.3zm-2434.17 -2619.38l-5212.29 0 0 -52.92 5212.29 0 26.46 0 0 0.32c1193.4,12.62 2182.39,874.9 2392.28,2010.52l-53.78 0c-210.75,-1114.66 -1189.04,-1957.92 -2364.96,-1957.92zm-5423.95 0l-132.3 0 -132.29 211.67 -52.91 0 66.14 -211.67 -145.52 0 -39.69 52.92 -39.68 0 26.45 -79.38 -26.45 -79.37 39.68 0 39.69 52.91 145.52 0 -66.14 -211.66 52.91 0 132.29 211.66 132.3 0c15.31,0 26.45,14.93 26.45,26.46 0,13.42 -10.18,26.46 -26.45,26.46zm-5688.55 -52.92l5027.09 0 0 52.92 -5027.09 0 0 -52.92zm-211.66 52.92l-132.29 0 -132.3 211.67 -52.91 0 66.14 -211.67 -145.52 0 -39.69 52.92 -39.68 0 26.46 -79.38 -26.46 -79.37 39.68 0 39.69 52.91 145.52 0 -66.14 -211.66 52.91 0 132.3 211.66 132.29 0c15.32,0 26.46,14.93 26.46,26.46 0,13.42 -10.19,26.46 -26.46,26.46zm-5582.71 -52.92l4921.25 0 0 52.92 -4921.25 0 0 -52.92zm-211.67 52.92l-132.29 0 -132.29 211.67 -52.92 0 66.15 -211.67 -145.52 0 -39.69 52.92 -39.69 0 26.46 -79.38 -26.46 -79.37 39.69 0 39.69 52.91 145.52 0 -66.15 -211.66 52.92 0 132.29 211.66 132.29 0c15.32,0 26.46,14.93 26.46,26.46 0,13.42 -10.19,26.46 -26.46,26.46zm-5609.16 -52.92l4947.7 0 0 52.92 -4947.7 0 0 -52.92zm-211.67 52.92l-132.29 0 -132.29 211.67 -52.92 0 66.14 -211.67 -145.52 0 -39.68 52.92 -39.69 0 26.46 -79.38 -26.46 -79.37 39.69 0 39.68 52.91 145.52 0 -66.14 -211.66 52.92 0 132.29 211.66 132.29 0c15.32,0 26.46,14.93 26.46,26.46 0,13.42 -10.22,26.46 -26.46,26.46zm-3122.08 -52.92l2460.62 0 0 52.92 -2460.62 0 0 -52.92zm1031.87 4868.34l3280.83 0 0 52.91 -3201.45 0c-1175.95,0 -2154.24,843.26 -2364.98,1957.92l-53.85 0c206.8,-1118.76 1169.78,-1972.18 2339.45,-2009.27l0 -1.56zm-2275.42 2235.73l-52.91 39.68 0 145.53 211.66 -66.15 0 52.92 -211.66 132.29 0 132.29c0,15.32 -14.95,26.46 -26.46,26.46 -13.42,0 -26.46,-10.19 -26.46,-26.46l0 -132.29 -211.67 -132.29 0 -52.92 211.67 66.15 0 -145.53 -52.92 -39.68 0 -39.69 79.38 26.46 79.37 -26.46 0 39.69zm-105.83 9776.35l-52.92 -39.69 0 -39.68 79.38 26.46 79.37 -26.46 0 39.68 -52.91 39.69 0 145.52 211.66 -66.14 0 52.91 -211.66 132.3 0 132.29c0,15.32 -14.95,26.46 -26.46,26.46 -13.42,0 -26.46,-10.19 -26.46,-26.46l0 -132.29 -211.67 -132.3 0 -52.91 211.67 66.14 0 -145.52zm2434.17 -7090.83l0 -0.35c-1202.77,-12.67 -2198.56,-888.18 -2397.79,-2036.94l53.71 0c200.05,1127.84 1185.23,1984.37 2370.54,1984.37l3201.45 0 0 52.92 -3201.45 0 -26.46 0zm3227.91 4868.33l-3201.45 0c-1175.97,0 -2154.4,843.26 -2365.14,1957.92l-53.74 0c211.46,-1144.06 1213.62,-2010.83 2418.88,-2010.83l3201.45 0 0 52.91zm-3201.45 4815.42l3201.45 0 0 52.92 -3307.29 0 0 -2.68c-1166.86,-49.42 -2122.86,-911.41 -2317.77,-2034.62l53.76 0c200.16,1127.74 1184.62,1984.38 2369.85,1984.38zm3849.68 -14499.17l-39.68 -52.92 -145.53 0 66.15 211.67 -52.92 0 -132.29 -211.67 -132.29 0c-15.32,0 -26.46,-14.94 -26.46,-26.45 0,-13.42 10.19,-26.46 26.46,-26.46l132.29 0 132.29 -211.67 52.92 0 -66.15 211.67 145.53 0 39.68 -52.92 39.69 0 -26.46 79.38 26.46 79.37 -39.69 0zm-423.33 4709.58l39.69 52.92 145.52 0 -66.15 -211.67 52.92 0 132.29 211.67 132.29 0c15.32,0 26.46,14.95 26.46,26.46 0,13.41 -10.19,26.46 -26.46,26.46l-132.29 0 -132.29 211.67 -52.92 0 66.15 -211.67 -145.52 0 -39.69 52.92 -39.69 0 26.46 -79.38 -26.46 -79.38 39.69 0zm423.33 5027.09l-39.68 -52.92 -145.53 0 66.15 211.67 -52.92 0 -132.29 -211.67 -132.29 0c-15.32,0 -26.46,-14.95 -26.46,-26.46 0,-13.41 10.19,-26.45 26.46,-26.45l132.29 0 132.29 -211.67 52.92 0 -66.15 211.67 145.53 0 39.68 -52.92 39.69 0 -26.46 79.37 26.46 79.38 -39.69 0zm-423.33 4709.58l39.69 52.92 145.52 0 -66.15 -211.67 52.92 0 132.29 211.67 132.29 0c15.32,0 26.46,14.92 26.46,26.46 0,13.41 -10.19,26.46 -26.46,26.46l-132.29 0 -132.29 211.66 -52.92 0 66.15 -211.66 -145.52 0 -39.69 52.91 -39.69 0 26.46 -79.37 -26.46 -79.38 39.69 0zm5675.31 -14499.17l-5027.08 0 0 -52.91 5027.08 0 0 52.91zm-79.37 4868.34l-4947.71 0 0 -52.92 4947.71 0 0 52.92zm0 4868.33l-4947.71 0 0 -52.91 4947.71 0 0 52.91zm0 4868.34l-4947.71 0 0 -52.92 4947.71 0 0 52.92zm224.89 -9842.51l39.69 52.92 145.52 0 -66.14 -211.67 52.91 0 132.29 211.67 132.3 0c15.31,0 26.45,14.95 26.45,26.46 0,13.41 -10.18,26.46 -26.45,26.46l-132.3 0 -132.29 211.67 -52.91 0 66.14 -211.67 -145.52 0 -39.69 52.92 -39.68 0 26.45 -79.38 -26.45 -79.38 39.68 0zm-13.23 4921.26l132.3 0 132.29 -211.67 52.91 0 -66.14 211.67 145.52 0 39.69 -52.92 39.68 0 -26.45 79.37 26.45 79.38 -39.68 0 -39.69 -52.92 -145.52 0 66.14 211.67 -52.91 0 -132.29 -211.67 -132.3 0c-15.32,0 -26.45,-14.95 -26.45,-26.46 0,-13.41 10.18,-26.45 26.45,-26.45zm13.23 4815.41l39.69 52.92 145.52 0 -66.14 -211.67 52.91 0 132.29 211.67 132.3 0c33,0 36.07,52.92 0,52.92l-132.3 0 -132.29 211.66 -52.91 0 66.14 -211.66 -145.52 0 -39.69 52.91 -39.68 0 26.45 -79.37 -26.45 -79.38 39.68 0zm317.5 -14499.17l66.15 211.67 -52.92 0 -132.29 -211.67 -132.29 0c-15.32,0 -26.46,-14.94 -26.46,-26.45 0,-13.42 10.19,-26.46 26.46,-26.46l132.29 0 132.29 -211.67 52.92 0 -66.15 211.67 145.52 0 39.69 -52.92 39.69 0 -26.46 79.38 26.46 79.37 -39.69 0 -39.69 -52.92 -145.52 0zm5251.98 4868.34l-4921.25 0 0 -52.92 4921.25 0 0 52.92zm-4841.87 -4921.25l4921.25 0 0 52.91 -4921.25 0 0 -52.91zm4841.87 9789.58l-4921.25 0 0 -52.91 4921.25 0 0 52.91zm224.9 -4974.17l39.69 52.92 145.52 0 -66.15 -211.67 52.92 0 132.29 211.67 132.29 0c15.32,0 26.46,14.95 26.46,26.46 0,13.41 -10.19,26.46 -26.46,26.46l-132.29 0 -132.29 211.67 -52.92 0 66.15 -211.67 -145.52 0 -39.69 52.92 -39.69 0 26.46 -79.38 -26.46 -79.38 39.69 0zm-13.23 4921.26l132.29 0 132.29 -211.67 52.92 0 -66.15 211.67 145.52 0 39.69 -52.92 39.69 0 -26.46 79.37 26.46 79.38 -39.69 0 -39.69 -52.92 -145.52 0 66.15 211.67 -52.92 0 -132.29 -211.67 -132.29 0c-15.32,0 -26.46,-14.95 -26.46,-26.46 0,-13.41 10.19,-26.45 26.46,-26.45zm330.73 -9683.76l66.14 211.67 -52.91 0 -132.29 -211.67 -132.3 0c-15.32,0 -26.45,-14.94 -26.45,-26.45 0,-13.42 10.18,-26.46 26.45,-26.46l132.3 0 132.29 -211.67 52.91 0 -66.14 211.67 145.52 0 39.69 -52.92 39.68 0 -26.45 79.38 26.45 79.37 -39.68 0 -39.69 -52.92 -145.52 0zm5357.81 -52.91l0 52.91 -4947.71 0 0 -52.91 4947.71 0zm0 4921.25l-5027.08 0 0 -52.92 5027.08 0 0 52.92zm0 4868.33l-5027.08 0 0 -52.91 5027.08 0 0 52.91zm211.67 -9789.58l132.29 0 132.29 -211.67 52.92 0 -66.15 211.67 145.52 0 39.69 -52.92 39.69 0 -26.46 79.38 26.46 79.37 -39.69 0 -39.69 -52.92 -145.52 0 66.15 211.67 -52.92 0 -132.29 -211.67 -132.29 0c-15.32,0 -26.46,-14.94 -26.46,-26.45 0,-13.42 10.18,-26.46 26.46,-26.46zm13.23 4815.41l39.68 52.92 145.52 0 -66.14 -211.67 52.92 0 132.29 211.67 132.29 0c15.32,0 26.46,14.95 26.46,26.46 0,13.41 -10.19,26.46 -26.46,26.46l-132.29 0 -132.29 211.67 -52.92 0 66.14 -211.67 -145.52 0 -39.68 52.92 -39.69 0 26.46 -79.38 -26.46 -79.38 39.69 0zm-13.23 4921.26l132.29 0 132.29 -211.67 52.92 0 -66.15 211.67 145.52 0 39.69 -52.92 39.69 0 -26.46 79.37 26.46 79.38 -39.69 0 -39.69 -52.92 -145.52 0 66.15 211.67 -52.92 0 -132.29 -211.67 -132.29 0c-15.32,0 -26.46,-14.95 -26.46,-26.46 0,-13.41 10.18,-26.45 26.46,-26.45zm6392.2 -11721.05l53.63 0c-197.75,1140.36 -1180.39,2011.5 -2371.25,2036.63l0 0.66 -3413.12 0 0 -52.91 3360.2 0c1185.28,0 2170.46,-856.54 2370.54,-1984.38zm-2370.54 6852.71l0 0.35c1193.41,12.59 2182.39,874.87 2392.29,2010.49l-53.79 0c-210.74,-1114.67 -1189.04,-1957.92 -2364.95,-1957.92l-3333.75 0 0 -52.92 3333.75 0 26.45 0zm2344.08 2883.96l53.6 0c-197.72,1140.35 -1180.36,2011.47 -2371.22,2036.6l0 0.69 -3386.66 0 0 -52.91 3333.75 0c1185.28,0 2170.48,-856.54 2370.53,-1984.38z"/>
  <path class="fil0" d="M30167.28 22233.15l0 132.29c0,15.32 -14.95,26.46 -26.46,26.46 -13.41,0 -26.46,-10.18 -26.46,-26.46l0 -132.29 -211.66 -132.29 0 -52.92 211.66 66.15 0 -145.52 -52.91 -39.69 0 -39.69 79.37 26.46 79.38 -26.46 0 39.69 -52.92 39.69 0 145.52 211.67 -66.15 0 52.92 -211.67 132.29zm-12567.71 -2487.08l-4921.25 0 0 -52.92 4921.25 0 0 52.92zm0 4868.33l-4921.25 0 0 -52.91 4921.25 0 0 52.91zm224.9 -4974.17l39.69 52.92 145.52 0 -66.15 -211.67 52.92 0 132.29 211.67 132.29 0c15.32,0 26.46,14.95 26.46,26.46 0,13.41 -10.19,26.46 -26.46,26.46l-132.29 0 -132.29 211.67 -52.92 0 66.15 -211.67 -145.52 0 -39.69 52.92 -39.69 0 26.46 -79.38 -26.46 -79.38 39.69 0zm-13.23 4921.26l132.29 0 132.29 -211.67 52.92 0 -66.15 211.67 145.52 0 39.69 -52.92 39.69 0 -26.46 79.37 26.46 79.38 -39.69 0 -39.69 -52.92 -145.52 0 66.15 211.67 -52.92 0 -132.29 -211.67 -132.29 0c-15.32,0 -26.46,-14.95 -26.46,-26.46 0,-13.41 10.19,-26.45 26.46,-26.45zm5688.54 -4815.42l-5027.08 0 0 -52.92 5027.08 0 0 52.92zm0 4868.33l-5027.08 0 0 -52.91 5027.08 0 0 52.91zm224.9 -4974.17l39.68 52.92 145.52 0 -66.14 -211.67 52.92 0 132.29 211.67 132.29 0c15.32,0 26.46,14.95 26.46,26.46 0,13.41 -10.19,26.46 -26.46,26.46l-132.29 0 -132.29 211.67 -52.92 0 66.14 -211.67 -145.52 0 -39.68 52.92 -39.69 0 26.46 -79.38 -26.46 -79.38 39.69 0zm-13.23 4921.26l132.29 0 132.29 -211.67 52.92 0 -66.15 211.67 145.52 0 39.69 -52.92 39.69 0 -26.46 79.37 26.46 79.38 -39.69 0 -39.69 -52.92 -145.52 0 66.15 211.67 -52.92 0 -132.29 -211.67 -132.29 0c-15.32,0 -26.46,-14.95 -26.46,-26.46 0,-13.41 10.18,-26.45 26.46,-26.45zm4021.66 -4868.34l0 0.35c1193.41,12.59 2182.39,874.87 2392.29,2010.49l-53.79 0c-210.74,-1114.67 -1189.04,-1957.92 -2364.95,-1957.92l-3333.75 0 0 -52.92 3333.75 0 26.45 0zm2344.08 2883.96l53.6 0c-197.72,1140.35 -1180.36,2011.47 -2371.22,2036.6l0 0.69 -3386.66 0 0 -52.91 3333.75 0c1185.28,0 2170.48,-856.54 2370.53,-1984.38z"/>
  <path class="fil1" d="M30246.69 12491.71l0 132.29c0,15.32 -14.95,26.46 -26.46,26.46 -13.41,0 -26.46,-10.18 -26.46,-26.46l0 -132.29 -211.66 -132.29 0 -52.92 211.66 66.15 0 -145.52 -52.91 -39.69 0 -39.69 79.37 26.46 79.38 -26.46 0 39.69 -52.92 39.69 0 145.52 211.67 -66.15 0 52.92 -211.67 132.29zm0 -9604.37c0,15.32 -14.95,26.45 -26.46,26.45 -13.41,0 -26.46,-10.18 -26.46,-26.45l0 -132.3 -211.66 -132.29 0 -52.91 211.66 66.14 0 -145.52 -52.91 -39.69 0 -39.68 79.37 26.45 79.38 -26.45 0 39.68 -52.92 39.69 0 145.52 211.67 -66.14 0 52.91 -211.67 132.29 0 132.3zm-2434.17 -2619.38l-5212.29 0 0 -52.92 5212.29 0 26.46 0 0 0.32c1193.4,12.62 2182.39,874.9 2392.28,2010.52l-53.78 0c-210.75,-1114.66 -1189.04,-1957.92 -2364.96,-1957.92zm-5423.95 0l-132.3 0 -132.29 211.67 -52.91 0 66.14 -211.67 -145.52 0 -39.69 52.92 -39.68 0 26.45 -79.38 -26.45 -79.37 39.68 0 39.69 52.91 145.52 0 -66.14 -211.66 52.91 0 132.29 211.66 132.3 0c15.31,0 26.45,14.93 26.45,26.46 0,13.42 -10.18,26.46 -26.45,26.46zm-5688.55 -52.92l5027.09 0 0 52.92 -5027.09 0 0 -52.92zm-211.66 52.92l-132.29 0 -132.3 211.67 -52.91 0 66.14 -211.67 -145.52 0 -39.69 52.92 -39.68 0 26.46 -79.38 -26.46 -79.37 39.68 0 39.69 52.91 145.52 0 -66.14 -211.66 52.91 0 132.3 211.66 132.29 0c15.32,0 26.46,14.93 26.46,26.46 0,13.42 -10.19,26.46 -26.46,26.46zm-5582.71 -52.92l4921.25 0 0 52.92 -4921.25 0 0 -52.92zm-211.67 52.92l-132.29 0 -132.29 211.67 -52.92 0 66.15 -211.67 -145.52 0 -39.69 52.92 -39.69 0 26.46 -79.38 -26.46 -79.37 39.69 0 39.69 52.91 145.52 0 -66.15 -211.66 52.92 0 132.29 211.66 132.29 0c15.32,0 26.46,14.93 26.46,26.46 0,13.42 -10.19,26.46 -26.46,26.46zm-5609.16 -52.92l4947.7 0 0 52.92 -4947.7 0 0 -52.92zm-211.67 52.92l-132.29 0 -132.29 211.67 -52.92 0 66.14 -211.67 -145.52 0 -39.68 52.92 -39.69 0 26.46 -79.38 -26.46 -79.37 39.69 0 39.68 52.91 145.52 0 -66.14 -211.66 52.92 0 132.29 211.66 132.29 0c15.32,0 26.46,14.93 26.46,26.46 0,13.42 -10.22,26.46 -26.46,26.46zm-3122.08 -52.92l2460.62 0 0 52.92 -2460.62 0 0 -52.92zm1031.87 4868.34l3280.83 0 0 52.91 -3201.45 0c-1175.95,0 -2154.24,843.26 -2364.98,1957.92l-53.85 0c206.8,-1118.76 1169.78,-1972.18 2339.45,-2009.27l0 -1.56zm-2275.42 2235.73l-52.91 39.68 0 145.53 211.66 -66.15 0 52.92 -211.66 132.29 0 132.29c0,15.32 -14.95,26.46 -26.46,26.46 -13.42,0 -26.46,-10.19 -26.46,-26.46l0 -132.29 -211.67 -132.29 0 -52.92 211.67 66.15 0 -145.53 -52.92 -39.68 0 -39.69 79.38 26.46 79.37 -26.46 0 39.69zm-105.83 9776.35l-52.92 -39.69 0 -39.68 79.38 26.46 79.37 -26.46 0 39.68 -52.91 39.69 0 145.52 211.66 -66.14 0 52.91 -211.66 132.3 0 132.29c0,15.32 -14.95,26.46 -26.46,26.46 -13.42,0 -26.46,-10.19 -26.46,-26.46l0 -132.29 -211.67 -132.3 0 -52.91 211.67 66.14 0 -145.52zm2434.17 -7090.83l0 -0.35c-1202.77,-12.67 -2198.56,-888.18 -2397.79,-2036.94l53.71 0c200.05,1127.84 1185.23,1984.37 2370.54,1984.37l3201.45 0 0 52.92 -3201.45 0 -26.46 0zm3227.91 4868.33l-3201.45 0c-1175.97,0 -2154.4,843.26 -2365.14,1957.92l-53.74 0c211.46,-1144.06 1213.62,-2010.83 2418.88,-2010.83l3201.45 0 0 52.91zm-3201.45 4815.42l3201.45 0 0 52.92 -3307.29 0 0 -2.68c-1166.86,-49.42 -2122.86,-911.41 -2317.77,-2034.62l53.76 0c200.16,1127.74 1184.62,1984.38 2369.85,1984.38zm3849.68 -14499.17l-39.68 -52.92 -145.53 0 66.15 211.67 -52.92 0 -132.29 -211.67 -132.29 0c-15.32,0 -26.46,-14.94 -26.46,-26.45 0,-13.42 10.19,-26.46 26.46,-26.46l132.29 0 132.29 -211.67 52.92 0 -66.15 211.67 145.53 0 39.68 -52.92 39.69 0 -26.46 79.38 26.46 79.37 -39.69 0zm-423.33 4709.58l39.69 52.92 145.52 0 -66.15 -211.67 52.92 0 132.29 211.67 132.29 0c15.32,0 26.46,14.95 26.46,26.46 0,13.41 -10.19,26.46 -26.46,26.46l-132.29 0 -132.29 211.67 -52.92 0 66.15 -211.67 -145.52 0 -39.69 52.92 -39.69 0 26.46 -79.38 -26.46 -79.38 39.69 0zm423.33 5027.09l-39.68 -52.92 -145.53 0 66.15 211.67 -52.92 0 -132.29 -211.67 -132.29 0c-15.32,0 -26.46,-14.95 -26.46,-26.46 0,-13.41 10.19,-26.45 26.46,-26.45l132.29 0 132.29 -211.67 52.92 0 -66.15 211.67 145.53 0 39.68 -52.92 39.69 0 -26.46 79.37 26.46 79.38 -39.69 0zm-423.33 4709.58l39.69 52.92 145.52 0 -66.15 -211.67 52.92 0 132.29 211.67 132.29 0c15.32,0 26.46,14.92 26.46,26.46 0,13.41 -10.19,26.46 -26.46,26.46l-132.29 0 -132.29 211.66 -52.92 0 66.15 -211.66 -145.52 0 -39.69 52.91 -39.69 0 26.46 -79.37 -26.46 -79.38 39.69 0zm5675.31 -14499.17l-5027.08 0 0 -52.91 5027.08 0 0 52.91zm-79.37 4868.34l-4947.71 0 0 -52.92 4947.71 0 0 52.92zm0 4868.33l-4947.71 0 0 -52.91 4947.71 0 0 52.91zm0 4868.34l-4947.71 0 0 -52.92 4947.71 0 0 52.92zm224.89 -9842.51l39.69 52.92 145.52 0 -66.14 -211.67 52.91 0 132.29 211.67 132.3 0c15.31,0 26.45,14.95 26.45,26.46 0,13.41 -10.18,26.46 -26.45,26.46l-132.3 0 -132.29 211.67 -52.91 0 66.14 -211.67 -145.52 0 -39.69 52.92 -39.68 0 26.45 -79.38 -26.45 -79.38 39.68 0zm-13.23 4921.26l132.3 0 132.29 -211.67 52.91 0 -66.14 211.67 145.52 0 39.69 -52.92 39.68 0 -26.45 79.37 26.45 79.38 -39.68 0 -39.69 -52.92 -145.52 0 66.14 211.67 -52.91 0 -132.29 -211.67 -132.3 0c-15.32,0 -26.45,-14.95 -26.45,-26.46 0,-13.41 10.18,-26.45 26.45,-26.45zm13.23 4815.41l39.69 52.92 145.52 0 -66.14 -211.67 52.91 0 132.29 211.67 132.3 0c15.31,0 26.45,14.92 26.45,26.46 0,13.41 -10.18,26.46 -26.45,26.46l-132.3 0 -132.29 211.66 -52.91 0 66.14 -211.66 -145.52 0 -39.69 52.91 -39.68 0 26.45 -79.37 -26.45 -79.38 39.68 0zm317.5 -14499.17l66.15 211.67 -52.92 0 -132.29 -211.67 -132.29 0c-15.32,0 -26.46,-14.94 -26.46,-26.45 0,-13.42 10.19,-26.46 26.46,-26.46l132.29 0 132.29 -211.67 52.92 0 -66.15 211.67 145.52 0 39.69 -52.92 39.69 0 -26.46 79.38 26.46 79.37 -39.69 0 -39.69 -52.92 -145.52 0zm5251.98 4868.34l-4921.25 0 0 -52.92 4921.25 0 0 52.92zm-4841.87 -4921.25l4921.25 0 0 52.91 -4921.25 0 0 -52.91zm4841.87 9789.58l-4921.25 0 0 -52.91 4921.25 0 0 52.91zm224.9 -4974.17l39.69 52.92 145.52 0 -66.15 -211.67 52.92 0 132.29 211.67 132.29 0c15.32,0 26.46,14.95 26.46,26.46 0,13.41 -10.19,26.46 -26.46,26.46l-132.29 0 -132.29 211.67 -52.92 0 66.15 -211.67 -145.52 0 -39.69 52.92 -39.69 0 26.46 -79.38 -26.46 -79.38 39.69 0zm-13.23 4921.26l132.29 0 132.29 -211.67 52.92 0 -66.15 211.67 145.52 0 39.69 -52.92 39.69 0 -26.46 79.37 26.46 79.38 -39.69 0 -39.69 -52.92 -145.52 0 66.15 211.67 -52.92 0 -132.29 -211.67 -132.29 0c-15.32,0 -26.46,-14.95 -26.46,-26.46 0,-13.41 10.19,-26.45 26.46,-26.45zm330.73 -9683.76l66.14 211.67 -52.91 0 -132.29 -211.67 -132.3 0c-15.32,0 -26.45,-14.94 -26.45,-26.45 0,-13.42 10.18,-26.46 26.45,-26.46l132.3 0 132.29 -211.67 52.91 0 -66.14 211.67 145.52 0 39.69 -52.92 39.68 0 -26.45 79.38 26.45 79.37 -39.68 0 -39.69 -52.92 -145.52 0zm5357.81 -52.91l0 52.91 -4947.71 0 0 -52.91 4947.71 0zm0 4921.25l-5027.08 0 0 -52.92 5027.08 0 0 52.92zm0 4868.33l-5027.08 0 0 -52.91 5027.08 0 0 52.91zm211.67 -9789.58l132.29 0 132.29 -211.67 52.92 0 -66.15 211.67 145.52 0 39.69 -52.92 39.69 0 -26.46 79.38 26.46 79.37 -39.69 0 -39.69 -52.92 -145.52 0 66.15 211.67 -52.92 0 -132.29 -211.67 -132.29 0c-15.32,0 -26.46,-14.94 -26.46,-26.45 0,-13.42 10.18,-26.46 26.46,-26.46zm13.23 4815.41l39.68 52.92 145.52 0 -66.14 -211.67 52.92 0 132.29 211.67 132.29 0c15.32,0 26.46,14.95 26.46,26.46 0,13.41 -10.19,26.46 -26.46,26.46l-132.29 0 -132.29 211.67 -52.92 0 66.14 -211.67 -145.52 0 -39.68 52.92 -39.69 0 26.46 -79.38 -26.46 -79.38 39.69 0zm-13.23 4921.26l132.29 0 132.29 -211.67 52.92 0 -66.15 211.67 145.52 0 39.69 -52.92 39.69 0 -26.46 79.37 26.46 79.38 -39.69 0 -39.69 -52.92 -145.52 0 66.15 211.67 -52.92 0 -132.29 -211.67 -132.29 0c-15.32,0 -26.46,-14.95 -26.46,-26.46 0,-13.41 10.18,-26.45 26.46,-26.45zm6392.2 -11721.05l53.63 0c-197.75,1140.36 -1180.39,2011.5 -2371.25,2036.63l0 0.66 -3413.12 0 0 -52.91 3360.2 0c1185.28,0 2170.46,-856.54 2370.54,-1984.38zm-2370.54 6852.71l0 0.35c1193.41,12.59 2182.39,874.87 2392.29,2010.49l-53.79 0c-210.74,-1114.67 -1189.04,-1957.92 -2364.95,-1957.92l-3333.75 0 0 -52.92 3333.75 0 26.45 0zm2344.08 2883.96l53.6 0c-197.72,1140.35 -1180.36,2011.47 -2371.22,2036.6l0 0.69 -3386.66 0 0 -52.91 3333.75 0c1185.28,0 2170.48,-856.54 2370.53,-1984.38z"/>
  <path class="fil2" d="M30177.28 22233.15l0 132.29c0,15.32 -14.95,26.46 -26.46,26.46 -13.41,0 -26.46,-10.18 -26.46,-26.46l0 -132.29 -211.66 -132.29 0 -52.92 211.66 66.15 0 -145.52 -52.91 -39.69 0 -39.69 79.37 26.46 79.38 -26.46 0 39.69 -52.92 39.69 0 145.52 211.67 -66.15 0 52.92 -211.67 132.29zm-12567.71 -2487.08l-4921.25 0 0 -52.92 4921.25 0 0 52.92zm0 4868.33l-4174.34 0 -746.91 0 0 -52.91 4921.25 0 0 52.91zm224.9 -4974.17l39.69 52.92 145.52 0 -66.15 -211.67 52.92 0 132.29 211.67 132.29 0c15.32,0 26.46,14.95 26.46,26.46 0,13.41 -10.19,26.46 -26.46,26.46l-132.29 0 -132.29 211.67 -52.92 0 66.15 -211.67 -145.52 0 -39.69 52.92 -39.69 0 26.46 -79.38 -26.46 -79.38 39.69 0zm-13.23 4921.26l132.29 0 132.29 -211.67 52.92 0 -66.15 211.67 145.52 0 39.69 -52.92 39.69 0 -26.46 79.37 26.46 79.38 -39.69 0 -39.69 -52.92 -145.52 0 66.15 211.67 -52.92 0 -132.29 -211.67 -132.29 0c-15.32,0 -26.46,-14.95 -26.46,-26.46 0,-13.41 10.19,-26.45 26.46,-26.45zm5688.54 -4815.42l-5027.08 0 0 -52.92 5027.08 0 0 52.92zm0 4868.33l-5027.08 0 0 -52.91 5027.08 0 0 52.91zm224.9 -4974.17l39.68 52.92 145.52 0 -66.14 -211.67 52.92 0 132.29 211.67 132.29 0c15.32,0 26.46,14.95 26.46,26.46 0,13.41 -10.19,26.46 -26.46,26.46l-132.29 0 -132.29 211.67 -52.92 0 66.14 -211.67 -145.52 0 -39.68 52.92 -39.69 0 26.46 -79.38 -26.46 -79.38 39.69 0zm-13.23 4921.26l132.29 0 132.29 -211.67 52.92 0 -66.15 211.67 145.52 0 39.69 -52.92 39.69 0 -26.46 79.37 26.46 79.38 -39.69 0 -39.69 -52.92 -145.52 0 66.15 211.67 -52.92 0 -132.29 -211.67 -132.29 0c-15.32,0 -26.46,-14.95 -26.46,-26.46 0,-13.41 10.18,-26.45 26.46,-26.45zm4021.66 -4868.34l0 0.35c1193.41,12.59 2182.39,874.87 2392.29,2010.49l-53.79 0c-210.74,-1114.67 -1189.04,-1957.92 -2364.95,-1957.92l-3333.75 0 0 -52.92 3333.75 0 26.45 0zm2344.08 2883.96l53.6 0c-197.72,1140.35 -1180.36,2011.47 -2371.22,2036.6l0 0.69 -3386.66 0 0 -52.91 3333.75 0c1185.28,0 2170.48,-856.54 2370.53,-1984.38z"/>
  <path class="fil2" d="M11827.15 24614.41l-4174.34 0 -746.91 0 0 -52.91 4921.25 0 0 52.91zm211.67 -52.91l132.29 0 132.29 -211.67 52.92 0 -66.15 211.67 145.52 0 39.69 -52.92 39.69 0 -26.46 79.37 26.46 79.38 -39.69 0 -39.69 -52.92 -145.52 0 66.15 211.67 -52.92 0 -132.29 -211.67 -132.29 0c-15.32,0 -26.46,-14.95 -26.46,-26.46 0,-13.41 10.19,-26.45 26.46,-26.45z"/>
  <path class="fil2" d="M6113.25 24614.41l-2756.24 17.15 -73.7 2.67 -3.47 -40.98 2833.41 -31.75 0 52.91zm178.77 -52.91l111.73 0 111.72 -211.67 44.7 0 -55.87 211.67 122.9 0 33.52 -52.92 33.52 0 -22.35 79.37 22.35 79.38 -33.52 0 -33.52 -52.92 -122.9 0 55.87 211.67 -44.7 0 -111.72 -211.67 -111.73 0c-12.94,0 -22.35,-14.95 -22.35,-26.46 0,-13.41 8.61,-26.45 22.35,-26.45z"/>
 </g>
</svg>
