<svg 
 xmlns="http://www.w3.org/2000/svg"
 xmlns:xlink="http://www.w3.org/1999/xlink"
 width="18px" height="685px">
<defs>
<linearGradient id="PSgrad_0" x1="0%" x2="0%" y1="0%" y2="100%">
  <stop offset="0%" stop-color="rgb(0,204,234)" stop-opacity="1" />
  <stop offset="100%" stop-color="rgb(255,0,89)" stop-opacity="1" />
</linearGradient>

</defs>
<path fill-rule="evenodd"  fill="rgb(0, 43, 75)"
 d="M10.000,626.000 L10.000,631.000 C10.000,631.579 9.435,632.000 9.000,632.000 C8.493,632.000 8.000,631.615 8.000,631.000 L8.000,626.000 L-0.000,621.000 L-0.000,619.000 L8.000,621.500 L8.000,616.000 L6.000,614.500 L6.000,613.000 L9.000,614.000 L12.000,613.000 L12.000,614.500 L10.000,616.000 L10.000,621.500 L18.000,619.000 L18.000,621.000 L10.000,626.000 ZM10.000,607.000 L8.000,607.000 L8.000,539.000 L10.000,539.000 L10.000,607.000 ZM10.000,532.000 C10.000,532.579 9.435,533.000 9.000,533.000 C8.493,533.000 8.000,532.615 8.000,532.000 L8.000,527.000 L-0.000,522.000 L-0.000,520.000 L8.000,522.500 L8.000,517.000 L6.000,515.500 L6.000,514.000 L9.000,515.000 L12.000,514.000 L12.000,515.500 L10.000,517.000 L10.000,522.500 L18.000,520.000 L18.000,522.000 L10.000,527.000 L10.000,532.000 ZM10.000,508.000 L8.000,508.000 L8.000,430.000 L10.000,430.000 L10.000,508.000 ZM10.000,423.000 C10.000,423.579 9.435,424.000 9.000,424.000 C8.493,424.000 8.000,423.615 8.000,423.000 L8.000,418.000 L-0.000,413.000 L-0.000,411.000 L8.000,413.500 L8.000,408.000 L6.000,406.500 L6.000,405.000 L9.000,406.000 L12.000,405.000 L12.000,406.500 L10.000,408.000 L10.000,413.500 L18.000,411.000 L18.000,413.000 L10.000,418.000 L10.000,423.000 ZM10.000,399.000 L8.000,399.000 L8.000,312.000 L10.000,312.000 L10.000,399.000 ZM10.000,305.000 C10.000,305.579 9.435,306.000 9.000,306.000 C8.493,306.000 8.000,305.615 8.000,305.000 L8.000,300.000 L-0.000,295.000 L-0.000,293.000 L8.000,295.500 L8.000,290.000 L6.000,288.500 L6.000,287.000 L9.000,288.000 L12.000,287.000 L12.000,288.500 L10.000,290.000 L10.000,295.500 L18.000,293.000 L18.000,295.000 L10.000,300.000 L10.000,305.000 ZM10.000,281.000 L8.000,281.000 L8.000,194.000 L10.000,194.000 L10.000,281.000 ZM10.000,187.000 C10.000,187.579 9.435,188.000 9.000,188.000 C8.493,188.000 8.000,187.615 8.000,187.000 L8.000,182.000 L-0.000,177.000 L-0.000,175.000 L8.000,177.500 L8.000,172.000 L6.000,170.500 L6.000,169.000 L9.000,170.000 L12.000,169.000 L12.000,170.500 L10.000,172.000 L10.000,177.500 L18.000,175.000 L18.000,177.000 L10.000,182.000 L10.000,187.000 ZM10.000,163.000 L8.000,163.000 L8.000,76.000 L10.000,76.000 L10.000,163.000 ZM10.000,69.000 C10.000,69.579 9.435,70.000 9.000,70.000 C8.493,70.000 8.000,69.615 8.000,69.000 L8.000,64.000 L-0.000,59.000 L-0.000,57.000 L8.000,59.500 L8.000,54.000 L6.000,52.500 L6.000,51.000 L9.000,52.000 L12.000,51.000 L12.000,52.500 L10.000,54.000 L10.000,59.500 L18.000,57.000 L18.000,59.000 L10.000,64.000 L10.000,69.000 ZM8.000,-0.000 L10.000,-0.000 L10.000,45.000 L8.000,45.000 L8.000,-0.000 ZM10.000,685.000 L8.000,685.000 L8.000,638.000 L10.000,638.000 L10.000,685.000 Z"/>
<path fill="url(#PSgrad_0)"
 d="M10.000,626.000 L10.000,631.000 C10.000,631.579 9.435,632.000 9.000,632.000 C8.493,632.000 8.000,631.615 8.000,631.000 L8.000,626.000 L-0.000,621.000 L-0.000,619.000 L8.000,621.500 L8.000,616.000 L6.000,614.500 L6.000,613.000 L9.000,614.000 L12.000,613.000 L12.000,614.500 L10.000,616.000 L10.000,621.500 L18.000,619.000 L18.000,621.000 L10.000,626.000 ZM10.000,607.000 L8.000,607.000 L8.000,539.000 L10.000,539.000 L10.000,607.000 ZM10.000,532.000 C10.000,532.579 9.435,533.000 9.000,533.000 C8.493,533.000 8.000,532.615 8.000,532.000 L8.000,527.000 L-0.000,522.000 L-0.000,520.000 L8.000,522.500 L8.000,517.000 L6.000,515.500 L6.000,514.000 L9.000,515.000 L12.000,514.000 L12.000,515.500 L10.000,517.000 L10.000,522.500 L18.000,520.000 L18.000,522.000 L10.000,527.000 L10.000,532.000 ZM10.000,508.000 L8.000,508.000 L8.000,430.000 L10.000,430.000 L10.000,508.000 ZM10.000,423.000 C10.000,423.579 9.435,424.000 9.000,424.000 C8.493,424.000 8.000,423.615 8.000,423.000 L8.000,418.000 L-0.000,413.000 L-0.000,411.000 L8.000,413.500 L8.000,408.000 L6.000,406.500 L6.000,405.000 L9.000,406.000 L12.000,405.000 L12.000,406.500 L10.000,408.000 L10.000,413.500 L18.000,411.000 L18.000,413.000 L10.000,418.000 L10.000,423.000 ZM10.000,399.000 L8.000,399.000 L8.000,312.000 L10.000,312.000 L10.000,399.000 ZM10.000,305.000 C10.000,305.579 9.435,306.000 9.000,306.000 C8.493,306.000 8.000,305.615 8.000,305.000 L8.000,300.000 L-0.000,295.000 L-0.000,293.000 L8.000,295.500 L8.000,290.000 L6.000,288.500 L6.000,287.000 L9.000,288.000 L12.000,287.000 L12.000,288.500 L10.000,290.000 L10.000,295.500 L18.000,293.000 L18.000,295.000 L10.000,300.000 L10.000,305.000 ZM10.000,281.000 L8.000,281.000 L8.000,194.000 L10.000,194.000 L10.000,281.000 ZM10.000,187.000 C10.000,187.579 9.435,188.000 9.000,188.000 C8.493,188.000 8.000,187.615 8.000,187.000 L8.000,182.000 L-0.000,177.000 L-0.000,175.000 L8.000,177.500 L8.000,172.000 L6.000,170.500 L6.000,169.000 L9.000,170.000 L12.000,169.000 L12.000,170.500 L10.000,172.000 L10.000,177.500 L18.000,175.000 L18.000,177.000 L10.000,182.000 L10.000,187.000 ZM10.000,163.000 L8.000,163.000 L8.000,76.000 L10.000,76.000 L10.000,163.000 ZM10.000,69.000 C10.000,69.579 9.435,70.000 9.000,70.000 C8.493,70.000 8.000,69.615 8.000,69.000 L8.000,64.000 L-0.000,59.000 L-0.000,57.000 L8.000,59.500 L8.000,54.000 L6.000,52.500 L6.000,51.000 L9.000,52.000 L12.000,51.000 L12.000,52.500 L10.000,54.000 L10.000,59.500 L18.000,57.000 L18.000,59.000 L10.000,64.000 L10.000,69.000 ZM8.000,-0.000 L10.000,-0.000 L10.000,45.000 L8.000,45.000 L8.000,-0.000 ZM10.000,685.000 L8.000,685.000 L8.000,638.000 L10.000,638.000 L10.000,685.000 Z"/>
</svg>