<svg 
 xmlns="http://www.w3.org/2000/svg"
 xmlns:xlink="http://www.w3.org/1999/xlink"
 width="944px" height="938px">
<defs>
<linearGradient id="PSgrad_0" x1="0%" x2="0%" y1="0%" y2="100%">
  <stop offset="0%" stop-color="rgb(0,204,234)" stop-opacity="1" />
  <stop offset="100%" stop-color="rgb(255,0,89)" stop-opacity="1" />
</linearGradient>

</defs>
<path fill-rule="evenodd"  fill="rgb(0, 43, 75)"
 d="M936.000,840.000 L936.000,845.000 C936.000,845.579 935.435,846.000 935.000,846.000 C934.493,846.000 934.000,845.615 934.000,845.000 L934.000,840.000 L926.000,835.000 L926.000,833.000 L934.000,835.500 L934.000,830.000 L932.000,828.500 L932.000,827.000 L935.000,828.000 L938.000,827.000 L938.000,828.500 L936.000,830.000 L936.000,835.500 L944.000,833.000 L944.000,835.000 L936.000,840.000 ZM936.000,477.000 C936.000,477.579 935.435,478.000 935.000,478.000 C934.493,478.000 934.000,477.615 934.000,477.000 L934.000,472.000 L926.000,467.000 L926.000,465.000 L934.000,467.500 L934.000,462.000 L932.000,460.500 L932.000,459.000 L935.000,460.000 L938.000,459.000 L938.000,460.500 L936.000,462.000 L936.000,467.500 L944.000,465.000 L944.000,467.000 L936.000,472.000 L936.000,477.000 ZM936.000,109.000 C936.000,109.579 935.435,110.000 935.000,110.000 C934.493,110.000 934.000,109.615 934.000,109.000 L934.000,104.000 L926.000,99.000 L926.000,97.000 L934.000,99.500 L934.000,94.000 L932.000,92.500 L932.000,91.000 L935.000,92.000 L938.000,91.000 L938.000,92.500 L936.000,94.000 L936.000,99.500 L944.000,97.000 L944.000,99.000 L936.000,104.000 L936.000,109.000 ZM844.000,10.000 L675.000,10.000 L675.000,8.000 L844.999,8.000 L844.999,8.012 C890.105,8.489 927.484,41.079 935.417,84.000 L933.384,84.000 C925.419,41.871 888.444,10.000 844.000,10.000 ZM681.000,552.000 L678.500,560.000 L684.000,560.000 L685.500,558.000 L687.000,558.000 L686.000,561.000 L687.000,564.000 L685.500,564.000 L684.000,562.000 L678.500,562.000 L681.000,570.000 L679.000,570.000 L674.000,562.000 L669.000,562.000 C668.421,562.000 668.000,561.435 668.000,561.000 C668.000,560.493 668.385,560.000 669.000,560.000 L674.000,560.000 L679.000,552.000 L681.000,552.000 ZM488.000,376.000 L674.000,376.000 L674.000,378.000 L488.000,378.000 L488.000,376.000 ZM488.000,192.000 L674.000,192.000 L674.000,194.000 L488.000,194.000 L488.000,192.000 ZM667.000,10.000 L662.000,10.000 L657.000,18.000 L655.000,18.000 L657.500,10.000 L652.000,10.000 L650.500,12.000 L649.000,12.000 L650.000,9.000 L649.000,6.000 L650.500,6.000 L652.000,8.000 L657.500,8.000 L655.000,-0.000 L657.000,-0.000 L662.000,8.000 L667.000,8.000 C667.579,8.000 668.000,8.564 668.000,9.000 C668.000,9.507 667.615,10.000 667.000,10.000 ZM435.000,8.000 L642.000,8.000 L642.000,10.000 L435.000,10.000 L435.000,8.000 ZM427.000,10.000 L422.000,10.000 L417.000,18.000 L415.000,18.000 L417.500,10.000 L412.000,10.000 L410.500,12.000 L409.000,12.000 L410.000,9.000 L409.000,6.000 L410.500,6.000 L412.000,8.000 L417.500,8.000 L415.000,-0.000 L417.000,-0.000 L422.000,8.000 L427.000,8.000 C427.579,8.000 428.000,8.564 428.000,9.000 C428.000,9.507 427.615,10.000 427.000,10.000 ZM195.000,8.000 L402.000,8.000 L402.000,10.000 L195.000,10.000 L195.000,8.000 ZM187.000,10.000 L182.000,10.000 L177.000,18.000 L175.000,18.000 L177.500,10.000 L172.000,10.000 L170.500,12.000 L169.000,12.000 L170.000,9.000 L169.000,6.000 L170.500,6.000 L172.000,8.000 L177.500,8.000 L175.000,-0.000 L177.000,-0.000 L182.000,8.000 L187.000,8.000 C187.579,8.000 188.000,8.564 188.000,9.000 C188.000,9.507 187.615,10.000 187.000,10.000 ZM59.000,8.000 L162.000,8.000 L162.000,10.000 L59.000,10.000 L59.000,8.000 ZM98.000,192.000 L235.000,192.000 L235.000,194.000 L101.000,194.000 C56.555,194.000 19.581,225.871 11.616,268.000 L9.580,268.000 C17.396,225.716 53.792,193.461 98.000,192.059 L98.000,192.000 ZM12.000,276.500 L10.000,278.000 L10.000,283.500 L18.000,281.000 L18.000,283.000 L10.000,288.000 L10.000,293.000 C10.000,293.579 9.435,294.000 9.000,294.000 C8.493,294.000 8.000,293.615 8.000,293.000 L8.000,288.000 L-0.000,283.000 L-0.000,281.000 L8.000,283.500 L8.000,278.000 L6.000,276.500 L6.000,275.000 L9.000,276.000 L12.000,275.000 L12.000,276.500 ZM8.000,646.000 L6.000,644.500 L6.000,643.000 L9.000,644.000 L12.000,643.000 L12.000,644.500 L10.000,646.000 L10.000,651.500 L18.000,649.000 L18.000,651.000 L10.000,656.000 L10.000,661.000 C10.000,661.579 9.435,662.000 9.000,662.000 C8.493,662.000 8.000,661.615 8.000,661.000 L8.000,656.000 L-0.000,651.000 L-0.000,649.000 L8.000,651.500 L8.000,646.000 ZM100.000,378.000 L100.000,377.987 C54.541,377.508 16.905,344.418 9.375,301.000 L11.405,301.000 C18.966,343.627 56.201,376.000 101.000,376.000 L235.000,376.000 L235.000,378.000 L101.000,378.000 L100.000,378.000 ZM235.000,562.000 L101.000,562.000 C56.555,562.000 19.574,593.871 11.609,636.000 L9.578,636.000 C17.570,592.760 55.447,560.000 101.000,560.000 L235.000,560.000 L235.000,562.000 ZM101.000,744.000 L235.000,744.000 L235.000,746.000 L97.000,746.000 L97.000,745.899 C52.898,744.031 16.766,711.452 9.399,669.000 L11.431,669.000 C18.996,711.623 56.204,744.000 101.000,744.000 ZM259.500,196.000 L258.000,194.000 L252.500,194.000 L255.000,202.000 L253.000,202.000 L248.000,194.000 L243.000,194.000 C242.421,194.000 242.000,193.435 242.000,193.000 C242.000,192.493 242.385,192.000 243.000,192.000 L248.000,192.000 L253.000,184.000 L255.000,184.000 L252.500,192.000 L258.000,192.000 L259.500,190.000 L261.000,190.000 L260.000,193.000 L261.000,196.000 L259.500,196.000 ZM243.500,374.000 L245.000,376.000 L250.500,376.000 L248.000,368.000 L250.000,368.000 L255.000,376.000 L260.000,376.000 C260.579,376.000 261.000,376.565 261.000,377.000 C261.000,377.507 260.615,378.000 260.000,378.000 L255.000,378.000 L250.000,386.000 L248.000,386.000 L250.500,378.000 L245.000,378.000 L243.500,380.000 L242.000,380.000 L243.000,377.000 L242.000,374.000 L243.500,374.000 ZM259.500,564.000 L258.000,562.000 L252.500,562.000 L255.000,570.000 L253.000,570.000 L248.000,562.000 L243.000,562.000 C242.421,562.000 242.000,561.435 242.000,561.000 C242.000,560.493 242.385,560.000 243.000,560.000 L248.000,560.000 L253.000,552.000 L255.000,552.000 L252.500,560.000 L258.000,560.000 L259.500,558.000 L261.000,558.000 L260.000,561.000 L261.000,564.000 L259.500,564.000 ZM243.500,742.000 L245.000,744.000 L250.500,744.000 L248.000,736.000 L250.000,736.000 L255.000,744.000 L260.000,744.000 C260.579,744.000 261.000,744.564 261.000,745.000 C261.000,745.507 260.615,746.000 260.000,746.000 L255.000,746.000 L250.000,754.000 L248.000,754.000 L250.500,746.000 L245.000,746.000 L243.500,748.000 L242.000,748.000 L243.000,745.000 L242.000,742.000 L243.500,742.000 ZM455.000,194.000 L268.000,194.000 L268.000,192.000 L455.000,192.000 L455.000,194.000 ZM455.000,378.000 L268.000,378.000 L268.000,376.000 L455.000,376.000 L455.000,378.000 ZM455.000,562.000 L268.000,562.000 L268.000,560.000 L455.000,560.000 L455.000,562.000 ZM455.000,746.000 L268.000,746.000 L268.000,744.000 L455.000,744.000 L455.000,746.000 ZM455.000,930.000 L357.000,930.000 L357.000,928.000 L455.000,928.000 L455.000,930.000 ZM463.000,192.000 L468.000,192.000 L473.000,184.000 L475.000,184.000 L472.500,192.000 L478.000,192.000 L479.500,190.000 L481.000,190.000 L480.000,193.000 L481.000,196.000 L479.500,196.000 L478.000,194.000 L472.500,194.000 L475.000,202.000 L473.000,202.000 L468.000,194.000 L463.000,194.000 C462.421,194.000 462.000,193.435 462.000,193.000 C462.000,192.493 462.385,192.000 463.000,192.000 ZM463.500,374.000 L465.000,376.000 L470.500,376.000 L468.000,368.000 L470.000,368.000 L475.000,376.000 L480.000,376.000 C480.579,376.000 481.000,376.565 481.000,377.000 C481.000,377.507 480.615,378.000 480.000,378.000 L475.000,378.000 L470.000,386.000 L468.000,386.000 L470.500,378.000 L465.000,378.000 L463.500,380.000 L462.000,380.000 L463.000,377.000 L462.000,374.000 L463.500,374.000 ZM463.000,560.000 L468.000,560.000 L473.000,552.000 L475.000,552.000 L472.500,560.000 L478.000,560.000 L479.500,558.000 L481.000,558.000 L480.000,561.000 L481.000,564.000 L479.500,564.000 L478.000,562.000 L472.500,562.000 L475.000,570.000 L473.000,570.000 L468.000,562.000 L463.000,562.000 C462.421,562.000 462.000,561.435 462.000,561.000 C462.000,560.493 462.385,560.000 463.000,560.000 ZM463.500,742.000 L465.000,744.000 L470.500,744.000 L468.000,736.000 L470.000,736.000 L475.000,744.000 L480.000,744.000 C480.579,744.000 481.000,744.564 481.000,745.000 C481.000,745.507 480.615,746.000 480.000,746.000 L475.000,746.000 L470.000,754.000 L468.000,754.000 L470.500,746.000 L465.000,746.000 L463.500,748.000 L462.000,748.000 L463.000,745.000 L462.000,742.000 L463.500,742.000 ZM463.000,928.000 L468.000,928.000 L473.000,920.000 L475.000,920.000 L472.500,928.000 L478.000,928.000 L479.500,926.000 L481.000,926.000 L480.000,929.000 L481.000,932.000 L479.500,932.000 L478.000,930.000 L472.500,930.000 L475.000,938.000 L473.000,938.000 L468.000,930.000 L463.000,930.000 C462.421,930.000 462.000,929.435 462.000,929.000 C462.000,928.493 462.385,928.000 463.000,928.000 ZM661.000,562.000 L488.000,562.000 L488.000,560.000 L661.000,560.000 L661.000,562.000 ZM661.000,746.000 L488.000,746.000 L488.000,744.000 L661.000,744.000 L661.000,746.000 ZM661.000,930.000 L488.000,930.000 L488.000,928.000 L661.000,928.000 L661.000,930.000 ZM669.000,744.000 L674.000,744.000 L679.000,736.000 L681.000,736.000 L678.500,744.000 L684.000,744.000 L685.500,742.000 L687.000,742.000 L686.000,745.000 L687.000,748.000 L685.500,748.000 L684.000,746.000 L678.500,746.000 L681.000,754.000 L679.000,754.000 L674.000,746.000 L669.000,746.000 C668.421,746.000 668.000,745.435 668.000,745.000 C668.000,744.493 668.385,744.000 669.000,744.000 ZM669.000,928.000 L674.000,928.000 L679.000,920.000 L681.000,920.000 L678.500,928.000 L684.000,928.000 L685.500,926.000 L687.000,926.000 L686.000,929.000 L687.000,932.000 L685.500,932.000 L684.000,930.000 L678.500,930.000 L681.000,938.000 L679.000,938.000 L674.000,930.000 L669.000,930.000 C668.421,930.000 668.000,929.435 668.000,929.000 C668.000,928.493 668.385,928.000 669.000,928.000 ZM689.500,378.000 L684.000,378.000 L682.500,380.000 L681.000,380.000 L682.000,377.000 L681.000,374.000 L682.500,374.000 L684.000,376.000 L689.500,376.000 L687.000,368.000 L689.000,368.000 L694.000,376.000 L699.000,376.000 C699.579,376.000 700.000,376.565 700.000,377.000 C700.000,377.507 699.615,378.000 699.000,378.000 L694.000,378.000 L689.000,386.000 L687.000,386.000 L689.500,378.000 ZM698.500,196.000 L697.000,194.000 L691.500,194.000 L694.000,202.000 L692.000,202.000 L687.000,194.000 L682.000,194.000 C681.421,194.000 681.000,193.435 681.000,193.000 C681.000,192.493 681.385,192.000 682.000,192.000 L687.000,192.000 L692.000,184.000 L694.000,184.000 L691.500,192.000 L697.000,192.000 L698.500,190.000 L700.000,190.000 L699.000,193.000 L700.000,196.000 L698.500,196.000 ZM842.999,378.000 L707.000,378.000 L707.000,376.000 L842.999,376.000 L844.000,376.000 L844.000,376.013 C889.105,376.489 926.484,409.079 934.417,452.000 L932.384,452.000 C924.419,409.871 887.444,378.000 842.999,378.000 ZM707.000,194.000 L707.000,192.000 L844.000,192.000 C888.798,192.000 926.034,159.627 933.595,117.000 L935.621,117.000 C928.148,160.100 891.009,193.025 846.000,193.975 L846.000,194.000 L707.000,194.000 ZM932.595,485.000 L934.621,485.000 C927.147,528.100 890.009,561.024 844.999,561.974 L844.999,562.000 L694.000,562.000 L694.000,560.000 L842.999,560.000 C887.798,560.000 925.034,527.627 932.595,485.000 ZM844.000,744.013 C889.105,744.489 926.484,777.079 934.417,820.000 L932.384,820.000 C924.419,777.871 887.444,746.000 842.999,746.000 L694.000,746.000 L694.000,744.000 L844.000,744.000 L844.000,744.013 ZM842.999,928.000 C887.798,928.000 925.034,895.627 932.595,853.000 L934.621,853.000 C927.147,896.100 890.009,929.024 844.999,929.975 L844.999,930.000 L807.000,930.000 L807.000,930.000 L776.521,930.000 L775.000,930.000 L694.000,930.000 L694.000,928.000 L785.135,928.000 L842.999,928.000 Z"/>
<path fill="url(#PSgrad_0)"
 d="M936.000,840.000 L936.000,845.000 C936.000,845.579 935.435,846.000 935.000,846.000 C934.493,846.000 934.000,845.615 934.000,845.000 L934.000,840.000 L926.000,835.000 L926.000,833.000 L934.000,835.500 L934.000,830.000 L932.000,828.500 L932.000,827.000 L935.000,828.000 L938.000,827.000 L938.000,828.500 L936.000,830.000 L936.000,835.500 L944.000,833.000 L944.000,835.000 L936.000,840.000 ZM936.000,477.000 C936.000,477.579 935.435,478.000 935.000,478.000 C934.493,478.000 934.000,477.615 934.000,477.000 L934.000,472.000 L926.000,467.000 L926.000,465.000 L934.000,467.500 L934.000,462.000 L932.000,460.500 L932.000,459.000 L935.000,460.000 L938.000,459.000 L938.000,460.500 L936.000,462.000 L936.000,467.500 L944.000,465.000 L944.000,467.000 L936.000,472.000 L936.000,477.000 ZM936.000,109.000 C936.000,109.579 935.435,110.000 935.000,110.000 C934.493,110.000 934.000,109.615 934.000,109.000 L934.000,104.000 L926.000,99.000 L926.000,97.000 L934.000,99.500 L934.000,94.000 L932.000,92.500 L932.000,91.000 L935.000,92.000 L938.000,91.000 L938.000,92.500 L936.000,94.000 L936.000,99.500 L944.000,97.000 L944.000,99.000 L936.000,104.000 L936.000,109.000 ZM844.000,10.000 L675.000,10.000 L675.000,8.000 L844.999,8.000 L844.999,8.012 C890.105,8.489 927.484,41.079 935.417,84.000 L933.384,84.000 C925.419,41.871 888.444,10.000 844.000,10.000 ZM681.000,552.000 L678.500,560.000 L684.000,560.000 L685.500,558.000 L687.000,558.000 L686.000,561.000 L687.000,564.000 L685.500,564.000 L684.000,562.000 L678.500,562.000 L681.000,570.000 L679.000,570.000 L674.000,562.000 L669.000,562.000 C668.421,562.000 668.000,561.435 668.000,561.000 C668.000,560.493 668.385,560.000 669.000,560.000 L674.000,560.000 L679.000,552.000 L681.000,552.000 ZM488.000,376.000 L674.000,376.000 L674.000,378.000 L488.000,378.000 L488.000,376.000 ZM488.000,192.000 L674.000,192.000 L674.000,194.000 L488.000,194.000 L488.000,192.000 ZM667.000,10.000 L662.000,10.000 L657.000,18.000 L655.000,18.000 L657.500,10.000 L652.000,10.000 L650.500,12.000 L649.000,12.000 L650.000,9.000 L649.000,6.000 L650.500,6.000 L652.000,8.000 L657.500,8.000 L655.000,-0.000 L657.000,-0.000 L662.000,8.000 L667.000,8.000 C667.579,8.000 668.000,8.564 668.000,9.000 C668.000,9.507 667.615,10.000 667.000,10.000 ZM435.000,8.000 L642.000,8.000 L642.000,10.000 L435.000,10.000 L435.000,8.000 ZM427.000,10.000 L422.000,10.000 L417.000,18.000 L415.000,18.000 L417.500,10.000 L412.000,10.000 L410.500,12.000 L409.000,12.000 L410.000,9.000 L409.000,6.000 L410.500,6.000 L412.000,8.000 L417.500,8.000 L415.000,-0.000 L417.000,-0.000 L422.000,8.000 L427.000,8.000 C427.579,8.000 428.000,8.564 428.000,9.000 C428.000,9.507 427.615,10.000 427.000,10.000 ZM195.000,8.000 L402.000,8.000 L402.000,10.000 L195.000,10.000 L195.000,8.000 ZM187.000,10.000 L182.000,10.000 L177.000,18.000 L175.000,18.000 L177.500,10.000 L172.000,10.000 L170.500,12.000 L169.000,12.000 L170.000,9.000 L169.000,6.000 L170.500,6.000 L172.000,8.000 L177.500,8.000 L175.000,-0.000 L177.000,-0.000 L182.000,8.000 L187.000,8.000 C187.579,8.000 188.000,8.564 188.000,9.000 C188.000,9.507 187.615,10.000 187.000,10.000 ZM59.000,8.000 L162.000,8.000 L162.000,10.000 L59.000,10.000 L59.000,8.000 ZM98.000,192.000 L235.000,192.000 L235.000,194.000 L101.000,194.000 C56.555,194.000 19.581,225.871 11.616,268.000 L9.580,268.000 C17.396,225.716 53.792,193.461 98.000,192.059 L98.000,192.000 ZM12.000,276.500 L10.000,278.000 L10.000,283.500 L18.000,281.000 L18.000,283.000 L10.000,288.000 L10.000,293.000 C10.000,293.579 9.435,294.000 9.000,294.000 C8.493,294.000 8.000,293.615 8.000,293.000 L8.000,288.000 L-0.000,283.000 L-0.000,281.000 L8.000,283.500 L8.000,278.000 L6.000,276.500 L6.000,275.000 L9.000,276.000 L12.000,275.000 L12.000,276.500 ZM8.000,646.000 L6.000,644.500 L6.000,643.000 L9.000,644.000 L12.000,643.000 L12.000,644.500 L10.000,646.000 L10.000,651.500 L18.000,649.000 L18.000,651.000 L10.000,656.000 L10.000,661.000 C10.000,661.579 9.435,662.000 9.000,662.000 C8.493,662.000 8.000,661.615 8.000,661.000 L8.000,656.000 L-0.000,651.000 L-0.000,649.000 L8.000,651.500 L8.000,646.000 ZM100.000,378.000 L100.000,377.987 C54.541,377.508 16.905,344.418 9.375,301.000 L11.405,301.000 C18.966,343.627 56.201,376.000 101.000,376.000 L235.000,376.000 L235.000,378.000 L101.000,378.000 L100.000,378.000 ZM235.000,562.000 L101.000,562.000 C56.555,562.000 19.574,593.871 11.609,636.000 L9.578,636.000 C17.570,592.760 55.447,560.000 101.000,560.000 L235.000,560.000 L235.000,562.000 ZM101.000,744.000 L235.000,744.000 L235.000,746.000 L97.000,746.000 L97.000,745.899 C52.898,744.031 16.766,711.452 9.399,669.000 L11.431,669.000 C18.996,711.623 56.204,744.000 101.000,744.000 ZM259.500,196.000 L258.000,194.000 L252.500,194.000 L255.000,202.000 L253.000,202.000 L248.000,194.000 L243.000,194.000 C242.421,194.000 242.000,193.435 242.000,193.000 C242.000,192.493 242.385,192.000 243.000,192.000 L248.000,192.000 L253.000,184.000 L255.000,184.000 L252.500,192.000 L258.000,192.000 L259.500,190.000 L261.000,190.000 L260.000,193.000 L261.000,196.000 L259.500,196.000 ZM243.500,374.000 L245.000,376.000 L250.500,376.000 L248.000,368.000 L250.000,368.000 L255.000,376.000 L260.000,376.000 C260.579,376.000 261.000,376.565 261.000,377.000 C261.000,377.507 260.615,378.000 260.000,378.000 L255.000,378.000 L250.000,386.000 L248.000,386.000 L250.500,378.000 L245.000,378.000 L243.500,380.000 L242.000,380.000 L243.000,377.000 L242.000,374.000 L243.500,374.000 ZM259.500,564.000 L258.000,562.000 L252.500,562.000 L255.000,570.000 L253.000,570.000 L248.000,562.000 L243.000,562.000 C242.421,562.000 242.000,561.435 242.000,561.000 C242.000,560.493 242.385,560.000 243.000,560.000 L248.000,560.000 L253.000,552.000 L255.000,552.000 L252.500,560.000 L258.000,560.000 L259.500,558.000 L261.000,558.000 L260.000,561.000 L261.000,564.000 L259.500,564.000 ZM243.500,742.000 L245.000,744.000 L250.500,744.000 L248.000,736.000 L250.000,736.000 L255.000,744.000 L260.000,744.000 C260.579,744.000 261.000,744.564 261.000,745.000 C261.000,745.507 260.615,746.000 260.000,746.000 L255.000,746.000 L250.000,754.000 L248.000,754.000 L250.500,746.000 L245.000,746.000 L243.500,748.000 L242.000,748.000 L243.000,745.000 L242.000,742.000 L243.500,742.000 ZM455.000,194.000 L268.000,194.000 L268.000,192.000 L455.000,192.000 L455.000,194.000 ZM455.000,378.000 L268.000,378.000 L268.000,376.000 L455.000,376.000 L455.000,378.000 ZM455.000,562.000 L268.000,562.000 L268.000,560.000 L455.000,560.000 L455.000,562.000 ZM455.000,746.000 L268.000,746.000 L268.000,744.000 L455.000,744.000 L455.000,746.000 ZM455.000,930.000 L357.000,930.000 L357.000,928.000 L455.000,928.000 L455.000,930.000 ZM463.000,192.000 L468.000,192.000 L473.000,184.000 L475.000,184.000 L472.500,192.000 L478.000,192.000 L479.500,190.000 L481.000,190.000 L480.000,193.000 L481.000,196.000 L479.500,196.000 L478.000,194.000 L472.500,194.000 L475.000,202.000 L473.000,202.000 L468.000,194.000 L463.000,194.000 C462.421,194.000 462.000,193.435 462.000,193.000 C462.000,192.493 462.385,192.000 463.000,192.000 ZM463.500,374.000 L465.000,376.000 L470.500,376.000 L468.000,368.000 L470.000,368.000 L475.000,376.000 L480.000,376.000 C480.579,376.000 481.000,376.565 481.000,377.000 C481.000,377.507 480.615,378.000 480.000,378.000 L475.000,378.000 L470.000,386.000 L468.000,386.000 L470.500,378.000 L465.000,378.000 L463.500,380.000 L462.000,380.000 L463.000,377.000 L462.000,374.000 L463.500,374.000 ZM463.000,560.000 L468.000,560.000 L473.000,552.000 L475.000,552.000 L472.500,560.000 L478.000,560.000 L479.500,558.000 L481.000,558.000 L480.000,561.000 L481.000,564.000 L479.500,564.000 L478.000,562.000 L472.500,562.000 L475.000,570.000 L473.000,570.000 L468.000,562.000 L463.000,562.000 C462.421,562.000 462.000,561.435 462.000,561.000 C462.000,560.493 462.385,560.000 463.000,560.000 ZM463.500,742.000 L465.000,744.000 L470.500,744.000 L468.000,736.000 L470.000,736.000 L475.000,744.000 L480.000,744.000 C480.579,744.000 481.000,744.564 481.000,745.000 C481.000,745.507 480.615,746.000 480.000,746.000 L475.000,746.000 L470.000,754.000 L468.000,754.000 L470.500,746.000 L465.000,746.000 L463.500,748.000 L462.000,748.000 L463.000,745.000 L462.000,742.000 L463.500,742.000 ZM463.000,928.000 L468.000,928.000 L473.000,920.000 L475.000,920.000 L472.500,928.000 L478.000,928.000 L479.500,926.000 L481.000,926.000 L480.000,929.000 L481.000,932.000 L479.500,932.000 L478.000,930.000 L472.500,930.000 L475.000,938.000 L473.000,938.000 L468.000,930.000 L463.000,930.000 C462.421,930.000 462.000,929.435 462.000,929.000 C462.000,928.493 462.385,928.000 463.000,928.000 ZM661.000,562.000 L488.000,562.000 L488.000,560.000 L661.000,560.000 L661.000,562.000 ZM661.000,746.000 L488.000,746.000 L488.000,744.000 L661.000,744.000 L661.000,746.000 ZM661.000,930.000 L488.000,930.000 L488.000,928.000 L661.000,928.000 L661.000,930.000 ZM669.000,744.000 L674.000,744.000 L679.000,736.000 L681.000,736.000 L678.500,744.000 L684.000,744.000 L685.500,742.000 L687.000,742.000 L686.000,745.000 L687.000,748.000 L685.500,748.000 L684.000,746.000 L678.500,746.000 L681.000,754.000 L679.000,754.000 L674.000,746.000 L669.000,746.000 C668.421,746.000 668.000,745.435 668.000,745.000 C668.000,744.493 668.385,744.000 669.000,744.000 ZM669.000,928.000 L674.000,928.000 L679.000,920.000 L681.000,920.000 L678.500,928.000 L684.000,928.000 L685.500,926.000 L687.000,926.000 L686.000,929.000 L687.000,932.000 L685.500,932.000 L684.000,930.000 L678.500,930.000 L681.000,938.000 L679.000,938.000 L674.000,930.000 L669.000,930.000 C668.421,930.000 668.000,929.435 668.000,929.000 C668.000,928.493 668.385,928.000 669.000,928.000 ZM689.500,378.000 L684.000,378.000 L682.500,380.000 L681.000,380.000 L682.000,377.000 L681.000,374.000 L682.500,374.000 L684.000,376.000 L689.500,376.000 L687.000,368.000 L689.000,368.000 L694.000,376.000 L699.000,376.000 C699.579,376.000 700.000,376.565 700.000,377.000 C700.000,377.507 699.615,378.000 699.000,378.000 L694.000,378.000 L689.000,386.000 L687.000,386.000 L689.500,378.000 ZM698.500,196.000 L697.000,194.000 L691.500,194.000 L694.000,202.000 L692.000,202.000 L687.000,194.000 L682.000,194.000 C681.421,194.000 681.000,193.435 681.000,193.000 C681.000,192.493 681.385,192.000 682.000,192.000 L687.000,192.000 L692.000,184.000 L694.000,184.000 L691.500,192.000 L697.000,192.000 L698.500,190.000 L700.000,190.000 L699.000,193.000 L700.000,196.000 L698.500,196.000 ZM842.999,378.000 L707.000,378.000 L707.000,376.000 L842.999,376.000 L844.000,376.000 L844.000,376.013 C889.105,376.489 926.484,409.079 934.417,452.000 L932.384,452.000 C924.419,409.871 887.444,378.000 842.999,378.000 ZM707.000,194.000 L707.000,192.000 L844.000,192.000 C888.798,192.000 926.034,159.627 933.595,117.000 L935.621,117.000 C928.148,160.100 891.009,193.025 846.000,193.975 L846.000,194.000 L707.000,194.000 ZM932.595,485.000 L934.621,485.000 C927.147,528.100 890.009,561.024 844.999,561.974 L844.999,562.000 L694.000,562.000 L694.000,560.000 L842.999,560.000 C887.798,560.000 925.034,527.627 932.595,485.000 ZM844.000,744.013 C889.105,744.489 926.484,777.079 934.417,820.000 L932.384,820.000 C924.419,777.871 887.444,746.000 842.999,746.000 L694.000,746.000 L694.000,744.000 L844.000,744.000 L844.000,744.013 ZM842.999,928.000 C887.798,928.000 925.034,895.627 932.595,853.000 L934.621,853.000 C927.147,896.100 890.009,929.024 844.999,929.975 L844.999,930.000 L807.000,930.000 L807.000,930.000 L776.521,930.000 L775.000,930.000 L694.000,930.000 L694.000,928.000 L785.135,928.000 L842.999,928.000 Z"/>
</svg>