<?xml version="1.0" encoding="UTF-8"?>
<!DOCTYPE svg PUBLIC "-//W3C//DTD SVG 1.1//EN" "http://www.w3.org/Graphics/SVG/1.1/DTD/svg11.dtd">
<!-- Creator: CorelDRAW 2018 (64-Bit) -->
<svg xmlns="http://www.w3.org/2000/svg" xml:space="preserve" width="250mm" height="350mm" version="1.1" style="shape-rendering:geometricPrecision; text-rendering:geometricPrecision; image-rendering:optimizeQuality; fill-rule:evenodd; clip-rule:evenodd"
viewBox="0 0 25000 35000"
 xmlns:xlink="http://www.w3.org/1999/xlink">
 <defs>
  <style type="text/css">
   <![CDATA[
    .fil0 {fill:#002B4B}
    .fil1 {fill:url(#id0)}
    .fil2 {fill:url(#id1);fill-rule:nonzero}
   ]]>
  </style>
  <radialGradient id="id0" gradientUnits="userSpaceOnUse" gradientTransform="matrix(9.50675E-17 1.55257 -1.5625 4.4262E-16 44183 -2484)" cx="14029.68" cy="19297.93" r="7992.53" fx="14029.68" fy="19297.93">
   <stop offset="0" style="stop-opacity:1; stop-color:#FF0059"/>
   <stop offset="0.631373" style="stop-opacity:1; stop-color:#7F66A2"/>
   <stop offset="1" style="stop-opacity:1; stop-color:#00CCEA"/>
  </radialGradient>
  <linearGradient id="id1" gradientUnits="userSpaceOnUse" x1="5.76" y1="24258.77" x2="5.76" y2="34644.19">
   <stop offset="0" style="stop-opacity:1; stop-color:#00CCEA"/>
   <stop offset="0" style="stop-opacity:1; stop-color:#7F66A2"/>
   <stop offset="1" style="stop-opacity:1; stop-color:#FF0059"/>
  </linearGradient>
 </defs>
 <g id="Layer_x0020_1">
  <metadata id="CorelCorpID_0Corel-Layer"/>
  <g>
   <path class="fil0" d="M24754.83 22035.35l0 -144.97 -52.92 -39.53 0 -39.54 79.38 26.36 79.37 -26.36 0 39.54 -52.91 39.53 0 144.97 211.66 -65.9 0 52.72 -211.66 131.78 0 131.78c0,15.26 -14.95,26.36 -26.46,26.36 -13.42,0 -26.46,-10.14 -26.46,-26.36l0 -131.78 -211.67 -131.78 0 -52.72 211.67 65.9zm52.92 -9448.92c0,15.26 -14.95,26.36 -26.46,26.36 -13.42,0 -26.46,-10.15 -26.46,-26.36l0 -131.78 -211.67 -131.8 0 -52.7 211.67 65.88 0 -144.96 -52.92 -39.54 0 -39.52 79.38 26.34 79.37 -26.34 0 39.52 -52.91 39.54 0 144.96 211.66 -65.88 0 52.7 -211.66 131.8 0 131.78zm0 -9699.31c0,15.26 -14.95,26.35 -26.46,26.35 -13.42,0 -26.46,-10.15 -26.46,-26.35l0 -131.79 -211.67 -131.78 0 -52.72 211.67 65.9 0 -144.97 -52.92 -39.53 0 -39.54 79.38 26.36 79.37 -26.36 0 39.54 -52.91 39.53 0 144.97 211.66 -65.9 0 52.72 -211.66 131.78 0 131.79zm-2434.17 -2609.34l-4471.46 0 0 -52.7 4497.89 0 0 0.32c1193.43,12.57 2182.42,871.53 2392.31,2002.79l-53.79 0c-210.74,-1110.38 -1189.04,-1950.41 -2364.95,-1950.41zm-4312.71 14285.4l-66.14 210.86 145.52 0 39.68 -52.71 39.69 0 -26.46 79.07 26.46 79.07 -39.69 0 -39.68 -52.71 -145.52 0 66.14 210.85 -52.91 0 -132.3 -210.85 -132.29 0c-15.32,0 -26.46,-14.89 -26.46,-26.36 0,-13.37 10.19,-26.36 26.46,-26.36l132.29 0 132.3 -210.86 52.91 0zm-5106.46 -4638.8l4921.25 0 0 52.72 -4921.25 0 0 -52.72zm0 -4849.65l4921.25 0 0 52.72 -4921.25 0 0 -52.72zm4736.05 -4796.95l-132.3 0 -132.29 210.86 -52.91 0 66.14 -210.86 -145.52 0 -39.69 52.72 -39.68 0 26.45 -79.06 -26.45 -79.08 39.68 0 39.69 52.72 145.52 0 -66.14 -210.86 52.91 0 132.29 210.86 132.3 0c15.31,0 26.45,14.86 26.45,26.36 0,13.35 -10.18,26.34 -26.45,26.34zm-6138.34 -52.7l5476.88 0 0 52.7 -5476.88 0 0 -52.7zm-211.67 52.7l-132.29 0 -132.29 210.86 -52.92 0 66.15 -210.86 -145.52 0 -39.69 52.72 -39.69 0 26.46 -79.06 -26.46 -79.08 39.69 0 39.69 52.72 145.52 0 -66.15 -210.86 52.92 0 132.29 210.86 132.29 0c15.32,0 26.46,14.86 26.46,26.36 0,13.35 -10.18,26.34 -26.46,26.34zm-6138.33 -52.7l5476.88 0 0 52.7 -5476.88 0 0 -52.7zm-211.67 52.7l-132.29 0 -132.29 210.86 -52.92 0 66.15 -210.86 -145.52 0 -39.69 52.72 -39.69 0 26.46 -79.06 -26.46 -79.08 39.69 0 39.69 52.72 145.52 0 -66.15 -210.86 52.92 0 132.29 210.86 132.29 0c15.32,0 26.46,14.86 26.46,26.36 0,13.35 -10.18,26.34 -26.46,26.34zm-3386.66 -52.7l2725.21 0 0 52.7 -2725.21 0 0 -52.7zm1031.87 4849.65l3624.79 0 0 52.72 -3545.41 0c-1175.94,0 -2154.21,840.01 -2364.95,1950.39l-53.87 0c206.8,-1114.46 1169.77,-1964.6 2339.44,-2001.56l0 -1.55zm-2275.41 2227.15l-52.92 39.54 0 144.96 211.67 -65.9 0 52.72 -211.67 131.78 0 131.79c0,15.26 -14.95,26.36 -26.46,26.36 -13.41,0 -26.46,-10.15 -26.46,-26.36l0 -131.79 -211.66 -131.78 0 -52.72 211.66 65.9 0 -144.96 -52.91 -39.54 0 -39.54 79.37 26.36 79.38 -26.36 0 39.54zm-105.84 9738.85l-52.91 -39.54 0 -39.53 79.37 26.36 79.38 -26.36 0 39.53 -52.92 39.54 0 144.96 211.67 -65.89 0 52.71 -211.67 131.79 0 131.78c0,15.26 -14.95,26.36 -26.46,26.36 -13.41,0 -26.46,-10.15 -26.46,-26.36l0 -131.78 -211.66 -131.79 0 -52.71 211.66 65.89 0 -144.96zm2434.17 -7063.63l0 -0.34c-1202.77,-12.63 -2198.56,-884.77 -2397.79,-2029.14l53.71 0c200.06,1123.52 1185.23,1976.76 2370.54,1976.76l3545.41 0 0 52.72 -3545.41 0 -26.46 0zm3571.87 4849.66l-3545.41 0c-1175.94,0 -2154.4,840.01 -2365.14,1950.4l-53.74 0c211.46,-1139.67 1213.62,-2003.12 2418.88,-2003.12l3545.41 0 0 52.72zm-3545.41 4796.93l3545.41 0 0 52.72 -3651.25 0 0 -2.66c-1166.86,-49.24 -2122.85,-907.91 -2317.77,-2026.81l53.76 0c200.16,1123.4 1184.62,1976.75 2369.85,1976.75zm4193.64 -14443.54l-39.68 -52.7 -145.52 0 66.14 210.84 -52.92 0 -132.29 -210.84 -132.29 0c-15.32,0 -26.46,-14.9 -26.46,-26.36 0,-13.36 10.19,-26.36 26.46,-26.36l132.29 0 132.29 -210.86 52.92 0 -66.14 210.86 145.52 0 39.68 -52.72 39.69 0 -26.46 79.08 26.46 79.06 -39.69 0zm-423.33 4691.52l39.69 52.71 145.52 0 -66.15 -210.85 52.92 0 132.29 210.85 132.29 0c15.32,0 26.46,14.89 26.46,26.36 0,13.37 -10.18,26.36 -26.46,26.36l-132.29 0 -132.29 210.86 -52.92 0 66.15 -210.86 -145.52 0 -39.69 52.72 -39.69 0 26.46 -79.08 -26.46 -79.07 39.69 0zm423.33 5007.8l-39.68 -52.71 -145.52 0 66.14 210.85 -52.92 0 -132.29 -210.85 -132.29 0c-15.32,0 -26.46,-14.89 -26.46,-26.36 0,-13.37 10.19,-26.36 26.46,-26.36l132.29 0 132.29 -210.86 52.92 0 -66.14 210.86 145.52 0 39.68 -52.71 39.69 0 -26.46 79.07 26.46 79.07 -39.69 0zm-423.33 4691.52l39.69 52.7 145.52 0 -66.15 -210.84 52.92 0 132.29 210.84 132.29 0c15.32,0 26.46,14.87 26.46,26.36 0,13.36 -10.18,26.36 -26.46,26.36l-132.29 0 -132.29 210.86 -52.92 0 66.15 -210.86 -145.52 0 -39.69 52.72 -39.69 0 26.46 -79.08 -26.46 -79.06 39.69 0zm5595.94 -14443.54l-4947.71 0 0 -52.72 4947.71 0 0 52.72zm0 4849.65l-4947.71 0 0 -52.72 4947.71 0 0 52.72zm0 4849.66l-4947.71 0 0 -52.72 4947.71 0 0 52.72zm0 4849.65l-4947.71 0 0 -52.72 4947.71 0 0 52.72zm211.66 -14601.68l132.3 0 132.29 -210.86 52.92 0 -66.15 210.86 145.52 0 39.69 -52.72 39.69 0 -26.46 79.08 26.46 79.06 -39.69 0 -39.69 -52.7 -145.52 0 66.15 210.84 -52.92 0 -132.29 -210.84 -132.3 0c-15.31,0 -26.45,-14.9 -26.45,-26.36 0,-13.36 10.18,-26.36 26.45,-26.36zm13.23 4796.94l39.69 52.71 145.52 0 -66.14 -210.85 52.91 0 132.3 210.85 132.29 0c15.32,0 26.46,14.89 26.46,26.36 0,13.37 -10.19,26.36 -26.46,26.36l-132.29 0 -132.3 210.86 -52.91 0 66.14 -210.86 -145.52 0 -39.69 52.72 -39.68 0 26.45 -79.08 -26.45 -79.07 39.68 0zm-13.23 4902.37l132.3 0 132.29 -210.86 52.92 0 -66.15 210.86 145.52 0 39.69 -52.71 39.69 0 -26.46 79.07 26.46 79.07 -39.69 0 -39.69 -52.71 -145.52 0 66.15 210.85 -52.92 0 -132.29 -210.85 -132.3 0c-15.31,0 -26.45,-14.89 -26.45,-26.36 0,-13.37 10.18,-26.36 26.45,-26.36zm13.23 4796.95l39.69 52.7 145.52 0 -66.14 -210.84 52.91 0 132.3 210.84 132.29 0c15.32,0 26.46,14.87 26.46,26.36 0,13.36 -10.19,26.36 -26.46,26.36l-132.29 0 -132.3 210.86 -52.91 0 66.14 -210.86 -145.52 0 -39.69 52.72 -39.68 0 26.45 -79.08 -26.45 -79.06 39.68 0zm-13.23 4902.37l132.3 0 132.29 -210.86 52.92 0 -66.15 210.86 145.52 0 39.69 -52.72 39.69 0 -26.46 79.06 26.46 79.08 -39.69 0 -39.69 -52.72 -145.52 0 66.15 210.86 -52.92 0 -132.29 -210.86 -132.3 0c-15.31,0 -26.45,-14.89 -26.45,-26.36 0,-13.35 10.18,-26.34 26.45,-26.34zm5238.76 -9646.6l-4577.3 0 0 -52.72 4577.3 0 0 52.72zm0 4849.65l-4577.3 0 0 -52.72 4577.3 0 0 52.72zm0 4849.65l-4577.3 0 0 -52.7 4577.3 0 0 52.7zm211.66 -4902.37l132.29 0 132.3 -210.84 52.91 0 -66.14 210.84 145.52 0 39.68 -52.7 39.69 0 -26.46 79.06 26.46 79.08 -39.69 0 -39.68 -52.72 -145.52 0 66.14 210.86 -52.91 0 -132.3 -210.86 -132.29 0c-15.32,0 -26.46,-14.89 -26.46,-26.36 0,-13.36 10.19,-26.36 26.46,-26.36zm0 4849.67l132.29 0 132.3 -210.86 52.91 0 -66.14 210.86 145.52 0 39.68 -52.72 39.69 0 -26.46 79.06 26.46 79.08 -39.69 0 -39.68 -52.72 -145.52 0 66.14 210.86 -52.91 0 -132.3 -210.86 -132.29 0c-15.32,0 -26.46,-14.89 -26.46,-26.36 0,-13.35 10.19,-26.34 26.46,-26.34zm542.4 -14496.26l-145.52 0 -39.69 52.72 -39.69 0 26.46 -79.08 -26.46 -79.07 39.69 0 39.69 52.71 145.52 0 -66.15 -210.85 52.92 0 132.29 210.85 132.29 0c15.32,0 26.46,14.89 26.46,26.36 0,13.37 -10.19,26.36 -26.46,26.36l-132.29 0 -132.29 210.86 -52.92 0 66.15 -210.86zm238.12 -4796.95l-39.68 -52.7 -145.53 0 66.15 210.84 -52.92 0 -132.29 -210.84 -132.29 0c-15.32,0 -26.46,-14.9 -26.46,-26.36 0,-13.36 10.19,-26.36 26.46,-26.36l132.29 0 132.29 -210.86 52.92 0 -66.15 210.86 145.53 0 39.68 -52.72 39.69 0 -26.46 79.08 26.46 79.06 -39.69 0zm3823.21 4796.95l-3598.31 0 0 -52.72 3598.31 0 26.48 0 0 0.35c1193.4,12.54 2182.39,871.51 2392.28,2002.78l-53.79 0c-210.74,-1110.39 -1189.03,-1950.41 -2364.97,-1950.41zm-3598.31 -4849.65l0 -52.72 3624.79 0c1185.28,0 2170.48,-853.24 2370.53,-1976.76l53.61 0c-197.72,1135.98 -1180.36,2003.78 -2371.22,2028.82l0 0.66 -3677.71 0zm5968.87 7669.83l53.6 0c-197.75,1135.98 -1180.36,2003.75 -2371.25,2028.79l0 0.69 -3995.18 0 0 -52.72 3942.27 0c1185.3,0 2170.5,-853.25 2370.56,-1976.76zm-2344.08 6826.76c1193.4,12.54 2182.39,871.52 2392.28,2002.78l-53.79 0c-210.74,-1110.39 -1189.03,-1950.41 -2364.97,-1950.41l-3942.27 0 0 -52.72 3968.75 0 0 0.35zm-26.48 4849.32c1185.3,0 2170.5,-853.26 2370.56,-1976.77l53.6 0c-197.75,1135.97 -1180.36,2003.75 -2371.25,2028.82l0 0.65 -1005.39 0 0 0 -806.42 0 -40.24 0 -2143.13 0 0 -52.7 2411.28 0 1530.99 0z"/>
  </g>
  <path class="fil1" d="M24807.75 22153.95l0 131.78c0,15.26 -14.95,26.36 -26.46,26.36 -13.42,0 -26.46,-10.14 -26.46,-26.36l0 -131.78 -211.67 -131.78 0 -52.72 211.67 65.9 0 -144.97 -52.92 -39.53 0 -39.54 79.38 26.36 79.37 -26.36 0 39.54 -52.91 39.53 0 144.97 211.66 -65.9 0 52.72 -211.66 131.78zm0 -9567.52c0,15.26 -14.95,26.36 -26.46,26.36 -13.42,0 -26.46,-10.15 -26.46,-26.36l0 -131.78 -211.67 -131.8 0 -52.7 211.67 65.88 0 -144.96 -52.92 -39.54 0 -39.52 79.38 26.34 79.37 -26.34 0 39.52 -52.91 39.54 0 144.96 211.66 -65.88 0 52.7 -211.66 131.8 0 131.78zm0 -9699.31c0,15.26 -14.95,26.35 -26.46,26.35 -13.42,0 -26.46,-10.15 -26.46,-26.35l0 -131.79 -211.67 -131.78 0 -52.72 211.67 65.9 0 -144.97 -52.92 -39.53 0 -39.54 79.38 26.36 79.37 -26.36 0 39.54 -52.91 39.53 0 144.97 211.66 -65.9 0 52.72 -211.66 131.78 0 131.79zm-2434.17 -2609.34l-4471.46 0 0 -52.7 4497.89 0 0 0.32c1193.43,12.57 2182.42,871.53 2392.31,2002.79l-53.79 0c-210.74,-1110.38 -1189.04,-1950.41 -2364.95,-1950.41zm-4312.71 14285.4l-66.14 210.86 145.52 0 39.68 -52.71 39.69 0 -26.46 79.07 26.46 79.07 -39.69 0 -39.68 -52.71 -145.52 0 66.14 210.85 -52.91 0 -132.3 -210.85 -132.29 0c-15.32,0 -26.46,-14.89 -26.46,-26.36 0,-13.37 10.19,-26.36 26.46,-26.36l132.29 0 132.3 -210.86 52.91 0zm-5106.46 -4638.8l4921.25 0 0 52.72 -4921.25 0 0 -52.72zm0 -4849.65l4921.25 0 0 52.72 -4921.25 0 0 -52.72zm4736.05 -4796.95l-132.3 0 -132.29 210.86 -52.91 0 66.14 -210.86 -145.52 0 -39.69 52.72 -39.68 0 26.45 -79.06 -26.45 -79.08 39.68 0 39.69 52.72 145.52 0 -66.14 -210.86 52.91 0 132.29 210.86 132.3 0c15.31,0 26.45,14.86 26.45,26.36 0,13.35 -10.18,26.34 -26.45,26.34zm-6138.34 -52.7l5476.88 0 0 52.7 -5476.88 0 0 -52.7zm-211.67 52.7l-132.29 0 -132.29 210.86 -52.92 0 66.15 -210.86 -145.52 0 -39.69 52.72 -39.69 0 26.46 -79.06 -26.46 -79.08 39.69 0 39.69 52.72 145.52 0 -66.15 -210.86 52.92 0 132.29 210.86 132.29 0c15.32,0 26.46,14.86 26.46,26.36 0,13.35 -10.18,26.34 -26.46,26.34zm-6138.33 -52.7l5476.88 0 0 52.7 -5476.88 0 0 -52.7zm-211.67 52.7l-132.29 0 -132.29 210.86 -52.92 0 66.15 -210.86 -145.52 0 -39.69 52.72 -39.69 0 26.46 -79.06 -26.46 -79.08 39.69 0 39.69 52.72 145.52 0 -66.15 -210.86 52.92 0 132.29 210.86 132.29 0c15.32,0 26.46,14.86 26.46,26.36 0,13.35 -10.18,26.34 -26.46,26.34zm-3386.66 -52.7l2725.21 0 0 52.7 -2725.21 0 0 -52.7zm1031.87 4849.65l3624.79 0 0 52.72 -3545.41 0c-1175.94,0 -2154.21,840.01 -2364.95,1950.39l-53.87 0c206.8,-1114.46 1169.77,-1964.6 2339.44,-2001.56l0 -1.55zm-2275.41 2227.15l-52.92 39.54 0 144.96 211.67 -65.9 0 52.72 -211.67 131.78 0 131.79c0,15.26 -14.95,26.36 -26.46,26.36 -13.41,0 -26.46,-10.15 -26.46,-26.36l0 -131.79 -211.66 -131.78 0 -52.72 211.66 65.9 0 -144.96 -52.91 -39.54 0 -39.54 79.37 26.36 79.38 -26.36 0 39.54zm-105.84 9738.85l-52.91 -39.54 0 -39.53 79.37 26.36 79.38 -26.36 0 39.53 -52.92 39.54 0 144.96 211.67 -65.89 0 52.71 -211.67 131.79 0 131.78c0,15.26 -14.95,26.36 -26.46,26.36 -13.41,0 -26.46,-10.15 -26.46,-26.36l0 -131.78 -211.66 -131.79 0 -52.71 211.66 65.89 0 -144.96zm2434.17 -7063.63l0 -0.34c-1202.77,-12.63 -2198.56,-884.77 -2397.79,-2029.14l53.71 0c200.06,1123.52 1185.23,1976.76 2370.54,1976.76l3545.41 0 0 52.72 -3545.41 0 -26.46 0zm3571.87 4849.66l-3545.41 0c-1175.94,0 -2154.4,840.01 -2365.14,1950.4l-53.74 0c211.46,-1139.67 1213.62,-2003.12 2418.88,-2003.12l3545.41 0 0 52.72zm-3545.41 4796.93l3545.41 0 0 52.72 -3651.25 0 0 -2.66c-1166.86,-49.24 -2122.85,-907.91 -2317.77,-2026.81l53.76 0c200.16,1123.4 1184.62,1976.75 2369.85,1976.75zm4193.64 -14443.54l-39.68 -52.7 -145.52 0 66.14 210.84 -52.92 0 -132.29 -210.84 -132.29 0c-15.32,0 -26.46,-14.9 -26.46,-26.36 0,-13.36 10.19,-26.36 26.46,-26.36l132.29 0 132.29 -210.86 52.92 0 -66.14 210.86 145.52 0 39.68 -52.72 39.69 0 -26.46 79.08 26.46 79.06 -39.69 0zm-423.33 4691.52l39.69 52.71 145.52 0 -66.15 -210.85 52.92 0 132.29 210.85 132.29 0c15.32,0 26.46,14.89 26.46,26.36 0,13.37 -10.18,26.36 -26.46,26.36l-132.29 0 -132.29 210.86 -52.92 0 66.15 -210.86 -145.52 0 -39.69 52.72 -39.69 0 26.46 -79.08 -26.46 -79.07 39.69 0zm423.33 5007.8l-39.68 -52.71 -145.52 0 66.14 210.85 -52.92 0 -132.29 -210.85 -132.29 0c-15.32,0 -26.46,-14.89 -26.46,-26.36 0,-13.37 10.19,-26.36 26.46,-26.36l132.29 0 132.29 -210.86 52.92 0 -66.14 210.86 145.52 0 39.68 -52.71 39.69 0 -26.46 79.07 26.46 79.07 -39.69 0zm-423.33 4691.52l39.69 52.7 145.52 0 -66.15 -210.84 52.92 0 132.29 210.84 132.29 0c15.32,0 26.46,14.87 26.46,26.36 0,13.36 -10.18,26.36 -26.46,26.36l-132.29 0 -132.29 210.86 -52.92 0 66.15 -210.86 -145.52 0 -39.69 52.72 -39.69 0 26.46 -79.08 -26.46 -79.06 39.69 0zm5595.94 -14443.54l-4947.71 0 0 -52.72 4947.71 0 0 52.72zm0 4849.65l-4947.71 0 0 -52.72 4947.71 0 0 52.72zm0 4849.66l-4947.71 0 0 -52.72 4947.71 0 0 52.72zm0 4849.65l-4947.71 0 0 -52.72 4947.71 0 0 52.72zm211.66 -14601.68l132.3 0 132.29 -210.86 52.92 0 -66.15 210.86 145.52 0 39.69 -52.72 39.69 0 -26.46 79.08 26.46 79.06 -39.69 0 -39.69 -52.7 -145.52 0 66.15 210.84 -52.92 0 -132.29 -210.84 -132.3 0c-15.31,0 -26.45,-14.9 -26.45,-26.36 0,-13.36 10.18,-26.36 26.45,-26.36zm13.23 4796.94l39.69 52.71 145.52 0 -66.14 -210.85 52.91 0 132.3 210.85 132.29 0c15.32,0 26.46,14.89 26.46,26.36 0,13.37 -10.19,26.36 -26.46,26.36l-132.29 0 -132.3 210.86 -52.91 0 66.14 -210.86 -145.52 0 -39.69 52.72 -39.68 0 26.45 -79.08 -26.45 -79.07 39.68 0zm-13.23 4902.37l132.3 0 132.29 -210.86 52.92 0 -66.15 210.86 145.52 0 39.69 -52.71 39.69 0 -26.46 79.07 26.46 79.07 -39.69 0 -39.69 -52.71 -145.52 0 66.15 210.85 -52.92 0 -132.29 -210.85 -132.3 0c-15.31,0 -26.45,-14.89 -26.45,-26.36 0,-13.37 10.18,-26.36 26.45,-26.36zm13.23 4796.95l39.69 52.7 145.52 0 -66.14 -210.84 52.91 0 132.3 210.84 132.29 0c15.32,0 26.46,14.87 26.46,26.36 0,13.36 -10.19,26.36 -26.46,26.36l-132.29 0 -132.3 210.86 -52.91 0 66.14 -210.86 -145.52 0 -39.69 52.72 -39.68 0 26.45 -79.08 -26.45 -79.06 39.68 0zm-13.23 4902.37l132.3 0 132.29 -210.86 52.92 0 -66.15 210.86 145.52 0 39.69 -52.72 39.69 0 -26.46 79.06 26.46 79.08 -39.69 0 -39.69 -52.72 -145.52 0 66.15 210.86 -52.92 0 -132.29 -210.86 -132.3 0c-15.31,0 -26.45,-14.89 -26.45,-26.36 0,-13.35 10.18,-26.34 26.45,-26.34zm5238.76 -9646.6l-4577.3 0 0 -52.72 4577.3 0 0 52.72zm0 4849.65l-4577.3 0 0 -52.72 4577.3 0 0 52.72zm0 4849.65l-4577.3 0 0 -52.7 4577.3 0 0 52.7zm211.66 -4902.37l132.29 0 132.3 -210.84 52.91 0 -66.14 210.84 145.52 0 39.68 -52.7 39.69 0 -26.46 79.06 26.46 79.08 -39.69 0 -39.68 -52.72 -145.52 0 66.14 210.86 -52.91 0 -132.3 -210.86 -132.29 0c-15.32,0 -26.46,-14.89 -26.46,-26.36 0,-13.36 10.19,-26.36 26.46,-26.36zm0 4849.67l132.29 0 132.3 -210.86 52.91 0 -66.14 210.86 145.52 0 39.68 -52.72 39.69 0 -26.46 79.06 26.46 79.08 -39.69 0 -39.68 -52.72 -145.52 0 66.14 210.86 -52.91 0 -132.3 -210.86 -132.29 0c-15.32,0 -26.46,-14.89 -26.46,-26.36 0,-13.35 10.19,-26.34 26.46,-26.34zm542.4 -14496.26l-145.52 0 -39.69 52.72 -39.69 0 26.46 -79.08 -26.46 -79.07 39.69 0 39.69 52.71 145.52 0 -66.15 -210.85 52.92 0 132.29 210.85 132.29 0c15.32,0 26.46,14.89 26.46,26.36 0,13.37 -10.19,26.36 -26.46,26.36l-132.29 0 -132.29 210.86 -52.92 0 66.15 -210.86zm238.12 -4796.95l-39.68 -52.7 -145.53 0 66.15 210.84 -52.92 0 -132.29 -210.84 -132.29 0c-15.32,0 -26.46,-14.9 -26.46,-26.36 0,-13.36 10.19,-26.36 26.46,-26.36l132.29 0 132.29 -210.86 52.92 0 -66.15 210.86 145.53 0 39.68 -52.72 39.69 0 -26.46 79.08 26.46 79.06 -39.69 0zm3823.21 4796.95l-3598.31 0 0 -52.72 3598.31 0 26.48 0 0 0.35c1193.4,12.54 2182.39,871.51 2392.28,2002.78l-53.79 0c-210.74,-1110.39 -1189.03,-1950.41 -2364.97,-1950.41zm-3598.31 -4849.65l0 -52.72 3624.79 0c1185.28,0 2170.48,-853.24 2370.53,-1976.76l53.61 0c-197.72,1135.98 -1180.36,2003.78 -2371.22,2028.82l0 0.66 -3677.71 0zm5968.87 7669.83l53.6 0c-197.75,1135.98 -1180.36,2003.75 -2371.25,2028.79l0 0.69 -3995.18 0 0 -52.72 3942.27 0c1185.3,0 2170.5,-853.25 2370.56,-1976.76zm-2344.08 6826.76c1193.4,12.54 2182.39,871.52 2392.28,2002.78l-53.79 0c-210.74,-1110.39 -1189.03,-1950.41 -2364.97,-1950.41l-3942.27 0 0 -52.72 3968.75 0 0 0.35zm-26.48 4849.32c1185.3,0 2170.5,-853.26 2370.56,-1976.77l53.6 0c-197.75,1135.97 -1180.36,2003.75 -2371.25,2028.82l0 0.65 -1005.39 0 0 0 -806.42 0 -40.24 0 -2143.13 0 0 -52.7 2411.28 0 1530.99 0z"/>
  <path class="fil2" d="M24770.76 32007.47l0 134.53c0,15.58 -14.95,26.91 -26.46,26.91 -13.42,0 -26.46,-10.36 -26.46,-26.91l0 -134.53 -211.67 -134.52 0 -53.81 211.67 67.26 0 -147.97 -52.92 -40.36 0 -40.36 79.38 26.9 79.37 -26.9 0 40.36 -52.91 40.36 0 147.97 211.66 -67.26 0 53.81 -211.66 134.52zm-24553.34 -5219.6l-52.91 -40.36 0 -40.36 79.37 26.91 79.38 -26.91 0 40.36 -52.92 40.36 0 147.98 211.67 -67.27 0 53.81 -211.67 134.53 0 134.52c0,15.58 -14.95,26.91 -26.46,26.91 -13.41,0 -26.46,-10.36 -26.46,-26.91l0 -134.52 -211.66 -134.53 0 -53.81 211.66 67.27 0 -147.98zm6006.04 -2260.04l-3545.41 0c-1175.94,0 -2154.4,857.49 -2365.14,1990.98l-53.74 0c211.46,-1163.38 1213.62,-2044.79 2418.88,-2044.79l3545.41 0 0 53.81zm-3545.41 4896.74l3545.41 0 0 53.82 -3651.25 0 0 -2.72c-1166.86,-50.26 -2122.85,-926.8 -2317.77,-2068.98l53.76 0c200.16,1146.78 1184.62,2017.88 2369.85,2017.88zm4193.64 -4842.92l-39.68 -53.82 -145.52 0 66.14 215.24 -52.92 0 -132.29 -215.24 -132.29 0c-15.32,0 -26.46,-15.2 -26.46,-26.9 0,-13.65 10.19,-26.91 26.46,-26.91l132.29 0 132.29 -215.25 52.92 0 -66.14 215.25 145.52 0 39.68 -53.82 39.69 0 -26.46 80.73 26.46 80.72 -39.69 0zm-423.33 4789.12l39.69 53.8 145.52 0 -66.15 -215.23 52.92 0 132.29 215.23 132.29 0c15.32,0 26.46,15.18 26.46,26.91 0,13.64 -10.18,26.91 -26.46,26.91l-132.29 0 -132.29 215.24 -52.92 0 66.15 -215.24 -145.52 0 -39.69 53.81 -39.69 0 26.46 -80.72 -26.46 -80.71 39.69 0zm5595.94 -4842.94l-4947.71 0 0 -53.81 4947.71 0 0 53.81zm0 4950.56l-4947.71 0 0 -53.82 4947.71 0 0 53.82zm224.89 -107.62l39.69 53.8 145.52 0 -66.14 -215.23 52.91 0 132.3 215.23 132.29 0c15.32,0 26.46,15.18 26.46,26.91 0,13.64 -10.19,26.91 -26.46,26.91l-132.29 0 -132.3 215.24 -52.91 0 66.14 -215.24 -145.52 0 -39.69 53.81 -39.68 0 26.45 -80.72 -26.45 -80.71 39.68 0zm5225.53 107.62l-4577.3 0 0 -53.82 4577.3 0 0 53.82zm0 4950.55l-1352.03 5.29 -5.3 -53.8 1357.33 -5.29 0 53.8zm211.66 -5004.37l132.29 0 132.3 -215.23 52.91 0 -66.14 215.23 145.52 0 39.68 -53.8 39.69 0 -26.46 80.71 26.46 80.72 -39.69 0 -39.68 -53.81 -145.52 0 66.14 215.24 -52.91 0 -132.3 -215.24 -132.29 0c-15.32,0 -26.46,-15.2 -26.46,-26.91 0,-13.64 10.19,-26.91 26.46,-26.91zm0 4950.57l132.29 0 132.3 -215.24 52.91 0 -66.14 215.24 145.52 0 39.68 -53.81 39.69 0 -26.46 80.71 26.46 80.72 -39.69 0 -39.68 -53.82 -145.52 0 66.14 215.25 -52.91 0 -132.3 -215.25 -132.29 0c-15.32,0 -26.46,-15.2 -26.46,-26.9 0,-13.64 10.19,-26.9 26.46,-26.9zm4630.21 -4950.21c1193.4,12.8 2182.39,889.65 2392.28,2044.45l-53.79 0c-210.74,-1133.5 -1189.03,-1990.99 -2364.97,-1990.99l-3942.27 0 0 -53.82 3968.75 0 0 0.36zm-26.48 4950.21c1185.3,0 2170.5,-871.01 2370.56,-2017.9l53.6 0c-197.75,1159.61 -1180.36,2045.45 -2371.25,2071.03l0 0.67 -1005.39 0 0 0 -806.42 0 -40.24 0 -2143.13 0 0 -53.8 2411.28 0 1530.99 0z"/>
 </g>
</svg>
