<svg 
 xmlns="http://www.w3.org/2000/svg"
 xmlns:xlink="http://www.w3.org/1999/xlink"
 width="1144px" height="754px">
<defs>
<linearGradient id="PSgrad_0" x1="0%" x2="0%" y1="0%" y2="100%">
  <stop offset="0%" stop-color="rgb(0,204,234)" stop-opacity="1" />
  <stop offset="100%" stop-color="rgb(255,0,89)" stop-opacity="1" />
</linearGradient>

</defs>
<path fill-rule="evenodd"  fill="rgb(0, 43, 75)"
 d="M1136.000,472.000 L1136.000,477.000 C1136.000,477.579 1135.435,478.000 1135.000,478.000 C1134.493,478.000 1134.000,477.615 1134.000,477.000 L1134.000,472.000 L1126.000,467.000 L1126.000,465.000 L1134.000,467.500 L1134.000,462.000 L1132.000,460.500 L1132.000,459.000 L1135.000,460.000 L1138.000,459.000 L1138.000,460.500 L1136.000,462.000 L1136.000,467.500 L1144.000,465.000 L1144.000,467.000 L1136.000,472.000 ZM1136.000,109.000 C1136.000,109.579 1135.435,110.000 1135.000,110.000 C1134.493,110.000 1134.000,109.615 1134.000,109.000 L1134.000,104.000 L1126.000,99.000 L1126.000,97.000 L1134.000,99.500 L1134.000,94.000 L1132.000,92.500 L1132.000,91.000 L1135.000,92.000 L1138.000,91.000 L1138.000,92.500 L1136.000,94.000 L1136.000,99.500 L1144.000,97.000 L1144.000,99.000 L1136.000,104.000 L1136.000,109.000 ZM1044.000,10.000 L847.000,10.000 L847.000,8.000 L1044.000,8.000 L1045.000,8.000 L1045.000,8.012 C1090.105,8.489 1127.484,41.079 1135.417,84.000 L1133.384,84.000 C1125.419,41.871 1088.444,10.000 1044.000,10.000 ZM839.000,10.000 L834.000,10.000 L829.000,18.000 L827.000,18.000 L829.500,10.000 L824.000,10.000 L822.500,12.000 L821.000,12.000 L822.000,9.000 L821.000,6.000 L822.500,6.000 L824.000,8.000 L829.500,8.000 L827.000,-0.000 L829.000,-0.000 L834.000,8.000 L839.000,8.000 C839.579,8.000 840.000,8.564 840.000,9.000 C840.000,9.507 839.615,10.000 839.000,10.000 ZM624.000,8.000 L814.000,8.000 L814.000,10.000 L624.000,10.000 L624.000,8.000 ZM616.000,10.000 L611.000,10.000 L606.000,18.000 L604.000,18.000 L606.500,10.000 L601.000,10.000 L599.500,12.000 L598.000,12.000 L599.000,9.000 L598.000,6.000 L599.500,6.000 L601.000,8.000 L606.500,8.000 L604.000,-0.000 L606.000,-0.000 L611.000,8.000 L616.000,8.000 C616.579,8.000 617.000,8.564 617.000,9.000 C617.000,9.507 616.615,10.000 616.000,10.000 ZM405.000,8.000 L591.000,8.000 L591.000,10.000 L405.000,10.000 L405.000,8.000 ZM397.000,10.000 L392.000,10.000 L387.000,18.000 L385.000,18.000 L387.500,10.000 L382.000,10.000 L380.500,12.000 L379.000,12.000 L380.000,9.000 L379.000,6.000 L380.500,6.000 L382.000,8.000 L387.500,8.000 L385.000,-0.000 L387.000,-0.000 L392.000,8.000 L397.000,8.000 C397.579,8.000 398.000,8.564 398.000,9.000 C398.000,9.507 397.615,10.000 397.000,10.000 ZM185.000,8.000 L372.000,8.000 L372.000,10.000 L185.000,10.000 L185.000,8.000 ZM177.000,10.000 L172.000,10.000 L167.000,18.000 L165.000,18.000 L167.500,10.000 L162.000,10.000 L160.500,12.000 L159.000,12.000 L160.000,9.000 L159.000,6.000 L160.500,6.000 L162.000,8.000 L167.500,8.000 L165.000,-0.000 L167.000,-0.000 L172.000,8.000 L177.000,8.000 C177.579,8.000 178.000,8.564 178.000,9.000 C178.000,9.507 177.614,10.000 177.000,10.000 ZM59.000,8.000 L152.000,8.000 L152.000,10.000 L59.000,10.000 L59.000,8.000 ZM98.000,192.000 L222.000,192.000 L222.000,194.000 L101.000,194.000 C56.555,194.000 19.580,225.871 11.615,268.000 L9.580,268.000 C17.396,225.716 53.792,193.461 98.000,192.059 L98.000,192.000 ZM12.000,276.500 L10.000,278.000 L10.000,283.500 L18.000,281.000 L18.000,283.000 L10.000,288.000 L10.000,293.000 C10.000,293.579 9.435,294.000 9.000,294.000 C8.493,294.000 8.000,293.615 8.000,293.000 L8.000,288.000 L0.000,283.000 L0.000,281.000 L8.000,283.500 L8.000,278.000 L6.000,276.500 L6.000,275.000 L9.000,276.000 L12.000,275.000 L12.000,276.500 ZM8.000,646.000 L6.000,644.500 L6.000,643.000 L9.000,644.000 L12.000,643.000 L12.000,644.500 L10.000,646.000 L10.000,651.500 L18.000,649.000 L18.000,651.000 L10.000,656.000 L10.000,661.000 C10.000,661.579 9.435,662.000 9.000,662.000 C8.493,662.000 8.000,661.615 8.000,661.000 L8.000,656.000 L0.000,651.000 L0.000,649.000 L8.000,651.500 L8.000,646.000 ZM100.000,378.000 L100.000,377.987 C54.541,377.508 16.905,344.418 9.375,301.000 L11.405,301.000 C18.966,343.627 56.201,376.000 101.000,376.000 L222.000,376.000 L222.000,378.000 L101.000,378.000 L100.000,378.000 ZM222.000,562.000 L101.000,562.000 C56.554,562.000 19.574,593.871 11.609,636.000 L9.578,636.000 C17.570,592.760 55.447,560.000 101.000,560.000 L222.000,560.000 L222.000,562.000 ZM101.000,744.000 L222.000,744.000 L222.000,746.000 L97.000,746.000 L97.000,745.899 C52.898,744.031 16.766,711.452 9.399,669.000 L11.431,669.000 C18.996,711.623 56.204,744.000 101.000,744.000 ZM246.500,196.000 L245.000,194.000 L239.500,194.000 L242.000,202.000 L240.000,202.000 L235.000,194.000 L230.000,194.000 C229.421,194.000 229.000,193.435 229.000,193.000 C229.000,192.493 229.385,192.000 230.000,192.000 L235.000,192.000 L240.000,184.000 L242.000,184.000 L239.500,192.000 L245.000,192.000 L246.500,190.000 L248.000,190.000 L247.000,193.000 L248.000,196.000 L246.500,196.000 ZM230.500,374.000 L232.000,376.000 L237.500,376.000 L235.000,368.000 L237.000,368.000 L242.000,376.000 L247.000,376.000 C247.579,376.000 248.000,376.565 248.000,377.000 C248.000,377.507 247.615,378.000 247.000,378.000 L242.000,378.000 L237.000,386.000 L235.000,386.000 L237.500,378.000 L232.000,378.000 L230.500,380.000 L229.000,380.000 L230.000,377.000 L229.000,374.000 L230.500,374.000 ZM246.500,564.000 L245.000,562.000 L239.500,562.000 L242.000,570.000 L240.000,570.000 L235.000,562.000 L230.000,562.000 C229.421,562.000 229.000,561.435 229.000,561.000 C229.000,560.493 229.385,560.000 230.000,560.000 L235.000,560.000 L240.000,552.000 L242.000,552.000 L239.500,560.000 L245.000,560.000 L246.500,558.000 L248.000,558.000 L247.000,561.000 L248.000,564.000 L246.500,564.000 ZM230.500,742.000 L232.000,744.000 L237.500,744.000 L235.000,736.000 L237.000,736.000 L242.000,744.000 L247.000,744.000 C247.579,744.000 248.000,744.564 248.000,745.000 C248.000,745.507 247.615,746.000 247.000,746.000 L242.000,746.000 L237.000,754.000 L235.000,754.000 L237.500,746.000 L232.000,746.000 L230.500,748.000 L229.000,748.000 L230.000,745.000 L229.000,742.000 L230.500,742.000 ZM445.000,194.000 L255.000,194.000 L255.000,192.000 L445.000,192.000 L445.000,194.000 ZM442.000,378.000 L255.000,378.000 L255.000,376.000 L442.000,376.000 L442.000,378.000 ZM442.000,562.000 L255.000,562.000 L255.000,560.000 L442.000,560.000 L442.000,562.000 ZM442.000,746.000 L255.000,746.000 L255.000,744.000 L442.000,744.000 L442.000,746.000 ZM450.500,374.000 L452.000,376.000 L457.500,376.000 L455.000,368.000 L457.000,368.000 L462.000,376.000 L467.000,376.000 C467.579,376.000 468.000,376.565 468.000,377.000 C468.000,377.507 467.615,378.000 467.000,378.000 L462.000,378.000 L457.000,386.000 L455.000,386.000 L457.500,378.000 L452.000,378.000 L450.500,380.000 L449.000,380.000 L450.000,377.000 L449.000,374.000 L450.500,374.000 ZM450.000,560.000 L455.000,560.000 L460.000,552.000 L462.000,552.000 L459.500,560.000 L465.000,560.000 L466.500,558.000 L468.000,558.000 L467.000,561.000 L468.000,564.000 L466.500,564.000 L465.000,562.000 L459.500,562.000 L462.000,570.000 L460.000,570.000 L455.000,562.000 L450.000,562.000 C449.421,562.000 449.000,561.435 449.000,561.000 C449.000,560.493 449.385,560.000 450.000,560.000 ZM450.500,742.000 L452.000,744.000 L457.500,744.000 L455.000,736.000 L457.000,736.000 L462.000,744.000 L467.000,744.000 C467.579,744.000 468.000,744.564 468.000,745.000 C468.000,745.507 467.615,746.000 467.000,746.000 L462.000,746.000 L457.000,754.000 L455.000,754.000 L457.500,746.000 L452.000,746.000 L450.500,748.000 L449.000,748.000 L450.000,745.000 L449.000,742.000 L450.500,742.000 ZM462.500,194.000 L465.000,202.000 L463.000,202.000 L458.000,194.000 L453.000,194.000 C452.421,194.000 452.000,193.435 452.000,193.000 C452.000,192.493 452.385,192.000 453.000,192.000 L458.000,192.000 L463.000,184.000 L465.000,184.000 L462.500,192.000 L468.000,192.000 L469.500,190.000 L471.000,190.000 L470.000,193.000 L471.000,196.000 L469.500,196.000 L468.000,194.000 L462.500,194.000 ZM661.000,378.000 L475.000,378.000 L475.000,376.000 L661.000,376.000 L661.000,378.000 ZM478.000,192.000 L664.000,192.000 L664.000,194.000 L478.000,194.000 L478.000,192.000 ZM661.000,562.000 L475.000,562.000 L475.000,560.000 L661.000,560.000 L661.000,562.000 ZM570.000,746.000 L475.000,746.000 L475.000,744.000 L570.000,744.000 L570.000,746.000 ZM669.500,374.000 L671.000,376.000 L676.500,376.000 L674.000,368.000 L676.000,368.000 L681.000,376.000 L686.000,376.000 C686.579,376.000 687.000,376.565 687.000,377.000 C687.000,377.507 686.615,378.000 686.000,378.000 L681.000,378.000 L676.000,386.000 L674.000,386.000 L676.500,378.000 L671.000,378.000 L669.500,380.000 L668.000,380.000 L669.000,377.000 L668.000,374.000 L669.500,374.000 ZM669.000,560.000 L674.000,560.000 L679.000,552.000 L681.000,552.000 L678.500,560.000 L684.000,560.000 L685.500,558.000 L687.000,558.000 L686.000,561.000 L687.000,564.000 L685.500,564.000 L684.000,562.000 L678.500,562.000 L681.000,570.000 L679.000,570.000 L674.000,562.000 L669.000,562.000 C668.421,562.000 668.000,561.435 668.000,561.000 C668.000,560.493 668.385,560.000 669.000,560.000 ZM681.500,194.000 L684.000,202.000 L682.000,202.000 L677.000,194.000 L672.000,194.000 C671.421,194.000 671.000,193.435 671.000,193.000 C671.000,192.493 671.385,192.000 672.000,192.000 L677.000,192.000 L682.000,184.000 L684.000,184.000 L681.500,192.000 L687.000,192.000 L688.500,190.000 L690.000,190.000 L689.000,193.000 L690.000,196.000 L688.500,196.000 L687.000,194.000 L681.500,194.000 ZM884.000,192.000 L884.000,194.000 L697.000,194.000 L697.000,192.000 L884.000,192.000 ZM884.000,378.000 L694.000,378.000 L694.000,376.000 L884.000,376.000 L884.000,378.000 ZM884.000,562.000 L694.000,562.000 L694.000,560.000 L884.000,560.000 L884.000,562.000 ZM892.000,192.000 L897.000,192.000 L902.000,184.000 L904.000,184.000 L901.500,192.000 L907.000,192.000 L908.500,190.000 L910.000,190.000 L909.000,193.000 L910.000,196.000 L908.500,196.000 L907.000,194.000 L901.500,194.000 L904.000,202.000 L902.000,202.000 L897.000,194.000 L892.000,194.000 C891.421,194.000 891.000,193.435 891.000,193.000 C891.000,192.493 891.385,192.000 892.000,192.000 ZM892.500,374.000 L894.000,376.000 L899.500,376.000 L897.000,368.000 L899.000,368.000 L904.000,376.000 L909.000,376.000 C909.579,376.000 910.000,376.565 910.000,377.000 C910.000,377.507 909.615,378.000 909.000,378.000 L904.000,378.000 L899.000,386.000 L897.000,386.000 L899.500,378.000 L894.000,378.000 L892.500,380.000 L891.000,380.000 L892.000,377.000 L891.000,374.000 L892.500,374.000 ZM892.000,560.000 L897.000,560.000 L902.000,552.000 L904.000,552.000 L901.500,560.000 L907.000,560.000 L908.500,558.000 L910.000,558.000 L909.000,561.000 L910.000,564.000 L908.500,564.000 L907.000,562.000 L901.500,562.000 L904.000,570.000 L902.000,570.000 L897.000,562.000 L892.000,562.000 C891.421,562.000 891.000,561.435 891.000,561.000 C891.000,560.493 891.385,560.000 892.000,560.000 ZM1133.595,117.000 L1135.622,117.000 C1128.148,160.100 1091.009,193.025 1046.000,193.975 L1046.000,194.000 L917.000,194.000 L917.000,192.000 L1044.000,192.000 C1088.798,192.000 1126.033,159.627 1133.595,117.000 ZM1044.000,376.000 L1044.000,376.013 C1089.105,376.489 1126.484,409.079 1134.417,452.000 L1132.384,452.000 C1124.419,409.871 1087.444,378.000 1043.000,378.000 L917.000,378.000 L917.000,376.000 L1043.000,376.000 L1044.000,376.000 ZM1132.595,485.000 L1134.621,485.000 C1127.148,528.100 1090.009,561.024 1045.000,561.974 L1045.000,562.000 L917.000,562.000 L917.000,560.000 L1043.000,560.000 C1087.798,560.000 1125.034,527.627 1132.595,485.000 Z"/>
<path fill="url(#PSgrad_0)"
 d="M1136.000,472.000 L1136.000,477.000 C1136.000,477.579 1135.435,478.000 1135.000,478.000 C1134.493,478.000 1134.000,477.615 1134.000,477.000 L1134.000,472.000 L1126.000,467.000 L1126.000,465.000 L1134.000,467.500 L1134.000,462.000 L1132.000,460.500 L1132.000,459.000 L1135.000,460.000 L1138.000,459.000 L1138.000,460.500 L1136.000,462.000 L1136.000,467.500 L1144.000,465.000 L1144.000,467.000 L1136.000,472.000 ZM1136.000,109.000 C1136.000,109.579 1135.435,110.000 1135.000,110.000 C1134.493,110.000 1134.000,109.615 1134.000,109.000 L1134.000,104.000 L1126.000,99.000 L1126.000,97.000 L1134.000,99.500 L1134.000,94.000 L1132.000,92.500 L1132.000,91.000 L1135.000,92.000 L1138.000,91.000 L1138.000,92.500 L1136.000,94.000 L1136.000,99.500 L1144.000,97.000 L1144.000,99.000 L1136.000,104.000 L1136.000,109.000 ZM1044.000,10.000 L847.000,10.000 L847.000,8.000 L1044.000,8.000 L1045.000,8.000 L1045.000,8.012 C1090.105,8.489 1127.484,41.079 1135.417,84.000 L1133.384,84.000 C1125.419,41.871 1088.444,10.000 1044.000,10.000 ZM839.000,10.000 L834.000,10.000 L829.000,18.000 L827.000,18.000 L829.500,10.000 L824.000,10.000 L822.500,12.000 L821.000,12.000 L822.000,9.000 L821.000,6.000 L822.500,6.000 L824.000,8.000 L829.500,8.000 L827.000,-0.000 L829.000,-0.000 L834.000,8.000 L839.000,8.000 C839.579,8.000 840.000,8.564 840.000,9.000 C840.000,9.507 839.615,10.000 839.000,10.000 ZM624.000,8.000 L814.000,8.000 L814.000,10.000 L624.000,10.000 L624.000,8.000 ZM616.000,10.000 L611.000,10.000 L606.000,18.000 L604.000,18.000 L606.500,10.000 L601.000,10.000 L599.500,12.000 L598.000,12.000 L599.000,9.000 L598.000,6.000 L599.500,6.000 L601.000,8.000 L606.500,8.000 L604.000,-0.000 L606.000,-0.000 L611.000,8.000 L616.000,8.000 C616.579,8.000 617.000,8.564 617.000,9.000 C617.000,9.507 616.615,10.000 616.000,10.000 ZM405.000,8.000 L591.000,8.000 L591.000,10.000 L405.000,10.000 L405.000,8.000 ZM397.000,10.000 L392.000,10.000 L387.000,18.000 L385.000,18.000 L387.500,10.000 L382.000,10.000 L380.500,12.000 L379.000,12.000 L380.000,9.000 L379.000,6.000 L380.500,6.000 L382.000,8.000 L387.500,8.000 L385.000,-0.000 L387.000,-0.000 L392.000,8.000 L397.000,8.000 C397.579,8.000 398.000,8.564 398.000,9.000 C398.000,9.507 397.615,10.000 397.000,10.000 ZM185.000,8.000 L372.000,8.000 L372.000,10.000 L185.000,10.000 L185.000,8.000 ZM177.000,10.000 L172.000,10.000 L167.000,18.000 L165.000,18.000 L167.500,10.000 L162.000,10.000 L160.500,12.000 L159.000,12.000 L160.000,9.000 L159.000,6.000 L160.500,6.000 L162.000,8.000 L167.500,8.000 L165.000,-0.000 L167.000,-0.000 L172.000,8.000 L177.000,8.000 C177.579,8.000 178.000,8.564 178.000,9.000 C178.000,9.507 177.614,10.000 177.000,10.000 ZM59.000,8.000 L152.000,8.000 L152.000,10.000 L59.000,10.000 L59.000,8.000 ZM98.000,192.000 L222.000,192.000 L222.000,194.000 L101.000,194.000 C56.555,194.000 19.580,225.871 11.615,268.000 L9.580,268.000 C17.396,225.716 53.792,193.461 98.000,192.059 L98.000,192.000 ZM12.000,276.500 L10.000,278.000 L10.000,283.500 L18.000,281.000 L18.000,283.000 L10.000,288.000 L10.000,293.000 C10.000,293.579 9.435,294.000 9.000,294.000 C8.493,294.000 8.000,293.615 8.000,293.000 L8.000,288.000 L0.000,283.000 L0.000,281.000 L8.000,283.500 L8.000,278.000 L6.000,276.500 L6.000,275.000 L9.000,276.000 L12.000,275.000 L12.000,276.500 ZM8.000,646.000 L6.000,644.500 L6.000,643.000 L9.000,644.000 L12.000,643.000 L12.000,644.500 L10.000,646.000 L10.000,651.500 L18.000,649.000 L18.000,651.000 L10.000,656.000 L10.000,661.000 C10.000,661.579 9.435,662.000 9.000,662.000 C8.493,662.000 8.000,661.615 8.000,661.000 L8.000,656.000 L0.000,651.000 L0.000,649.000 L8.000,651.500 L8.000,646.000 ZM100.000,378.000 L100.000,377.987 C54.541,377.508 16.905,344.418 9.375,301.000 L11.405,301.000 C18.966,343.627 56.201,376.000 101.000,376.000 L222.000,376.000 L222.000,378.000 L101.000,378.000 L100.000,378.000 ZM222.000,562.000 L101.000,562.000 C56.554,562.000 19.574,593.871 11.609,636.000 L9.578,636.000 C17.570,592.760 55.447,560.000 101.000,560.000 L222.000,560.000 L222.000,562.000 ZM101.000,744.000 L222.000,744.000 L222.000,746.000 L97.000,746.000 L97.000,745.899 C52.898,744.031 16.766,711.452 9.399,669.000 L11.431,669.000 C18.996,711.623 56.204,744.000 101.000,744.000 ZM246.500,196.000 L245.000,194.000 L239.500,194.000 L242.000,202.000 L240.000,202.000 L235.000,194.000 L230.000,194.000 C229.421,194.000 229.000,193.435 229.000,193.000 C229.000,192.493 229.385,192.000 230.000,192.000 L235.000,192.000 L240.000,184.000 L242.000,184.000 L239.500,192.000 L245.000,192.000 L246.500,190.000 L248.000,190.000 L247.000,193.000 L248.000,196.000 L246.500,196.000 ZM230.500,374.000 L232.000,376.000 L237.500,376.000 L235.000,368.000 L237.000,368.000 L242.000,376.000 L247.000,376.000 C247.579,376.000 248.000,376.565 248.000,377.000 C248.000,377.507 247.615,378.000 247.000,378.000 L242.000,378.000 L237.000,386.000 L235.000,386.000 L237.500,378.000 L232.000,378.000 L230.500,380.000 L229.000,380.000 L230.000,377.000 L229.000,374.000 L230.500,374.000 ZM246.500,564.000 L245.000,562.000 L239.500,562.000 L242.000,570.000 L240.000,570.000 L235.000,562.000 L230.000,562.000 C229.421,562.000 229.000,561.435 229.000,561.000 C229.000,560.493 229.385,560.000 230.000,560.000 L235.000,560.000 L240.000,552.000 L242.000,552.000 L239.500,560.000 L245.000,560.000 L246.500,558.000 L248.000,558.000 L247.000,561.000 L248.000,564.000 L246.500,564.000 ZM230.500,742.000 L232.000,744.000 L237.500,744.000 L235.000,736.000 L237.000,736.000 L242.000,744.000 L247.000,744.000 C247.579,744.000 248.000,744.564 248.000,745.000 C248.000,745.507 247.615,746.000 247.000,746.000 L242.000,746.000 L237.000,754.000 L235.000,754.000 L237.500,746.000 L232.000,746.000 L230.500,748.000 L229.000,748.000 L230.000,745.000 L229.000,742.000 L230.500,742.000 ZM445.000,194.000 L255.000,194.000 L255.000,192.000 L445.000,192.000 L445.000,194.000 ZM442.000,378.000 L255.000,378.000 L255.000,376.000 L442.000,376.000 L442.000,378.000 ZM442.000,562.000 L255.000,562.000 L255.000,560.000 L442.000,560.000 L442.000,562.000 ZM442.000,746.000 L255.000,746.000 L255.000,744.000 L442.000,744.000 L442.000,746.000 ZM450.500,374.000 L452.000,376.000 L457.500,376.000 L455.000,368.000 L457.000,368.000 L462.000,376.000 L467.000,376.000 C467.579,376.000 468.000,376.565 468.000,377.000 C468.000,377.507 467.615,378.000 467.000,378.000 L462.000,378.000 L457.000,386.000 L455.000,386.000 L457.500,378.000 L452.000,378.000 L450.500,380.000 L449.000,380.000 L450.000,377.000 L449.000,374.000 L450.500,374.000 ZM450.000,560.000 L455.000,560.000 L460.000,552.000 L462.000,552.000 L459.500,560.000 L465.000,560.000 L466.500,558.000 L468.000,558.000 L467.000,561.000 L468.000,564.000 L466.500,564.000 L465.000,562.000 L459.500,562.000 L462.000,570.000 L460.000,570.000 L455.000,562.000 L450.000,562.000 C449.421,562.000 449.000,561.435 449.000,561.000 C449.000,560.493 449.385,560.000 450.000,560.000 ZM450.500,742.000 L452.000,744.000 L457.500,744.000 L455.000,736.000 L457.000,736.000 L462.000,744.000 L467.000,744.000 C467.579,744.000 468.000,744.564 468.000,745.000 C468.000,745.507 467.615,746.000 467.000,746.000 L462.000,746.000 L457.000,754.000 L455.000,754.000 L457.500,746.000 L452.000,746.000 L450.500,748.000 L449.000,748.000 L450.000,745.000 L449.000,742.000 L450.500,742.000 ZM462.500,194.000 L465.000,202.000 L463.000,202.000 L458.000,194.000 L453.000,194.000 C452.421,194.000 452.000,193.435 452.000,193.000 C452.000,192.493 452.385,192.000 453.000,192.000 L458.000,192.000 L463.000,184.000 L465.000,184.000 L462.500,192.000 L468.000,192.000 L469.500,190.000 L471.000,190.000 L470.000,193.000 L471.000,196.000 L469.500,196.000 L468.000,194.000 L462.500,194.000 ZM661.000,378.000 L475.000,378.000 L475.000,376.000 L661.000,376.000 L661.000,378.000 ZM478.000,192.000 L664.000,192.000 L664.000,194.000 L478.000,194.000 L478.000,192.000 ZM661.000,562.000 L475.000,562.000 L475.000,560.000 L661.000,560.000 L661.000,562.000 ZM570.000,746.000 L475.000,746.000 L475.000,744.000 L570.000,744.000 L570.000,746.000 ZM669.500,374.000 L671.000,376.000 L676.500,376.000 L674.000,368.000 L676.000,368.000 L681.000,376.000 L686.000,376.000 C686.579,376.000 687.000,376.565 687.000,377.000 C687.000,377.507 686.615,378.000 686.000,378.000 L681.000,378.000 L676.000,386.000 L674.000,386.000 L676.500,378.000 L671.000,378.000 L669.500,380.000 L668.000,380.000 L669.000,377.000 L668.000,374.000 L669.500,374.000 ZM669.000,560.000 L674.000,560.000 L679.000,552.000 L681.000,552.000 L678.500,560.000 L684.000,560.000 L685.500,558.000 L687.000,558.000 L686.000,561.000 L687.000,564.000 L685.500,564.000 L684.000,562.000 L678.500,562.000 L681.000,570.000 L679.000,570.000 L674.000,562.000 L669.000,562.000 C668.421,562.000 668.000,561.435 668.000,561.000 C668.000,560.493 668.385,560.000 669.000,560.000 ZM681.500,194.000 L684.000,202.000 L682.000,202.000 L677.000,194.000 L672.000,194.000 C671.421,194.000 671.000,193.435 671.000,193.000 C671.000,192.493 671.385,192.000 672.000,192.000 L677.000,192.000 L682.000,184.000 L684.000,184.000 L681.500,192.000 L687.000,192.000 L688.500,190.000 L690.000,190.000 L689.000,193.000 L690.000,196.000 L688.500,196.000 L687.000,194.000 L681.500,194.000 ZM884.000,192.000 L884.000,194.000 L697.000,194.000 L697.000,192.000 L884.000,192.000 ZM884.000,378.000 L694.000,378.000 L694.000,376.000 L884.000,376.000 L884.000,378.000 ZM884.000,562.000 L694.000,562.000 L694.000,560.000 L884.000,560.000 L884.000,562.000 ZM892.000,192.000 L897.000,192.000 L902.000,184.000 L904.000,184.000 L901.500,192.000 L907.000,192.000 L908.500,190.000 L910.000,190.000 L909.000,193.000 L910.000,196.000 L908.500,196.000 L907.000,194.000 L901.500,194.000 L904.000,202.000 L902.000,202.000 L897.000,194.000 L892.000,194.000 C891.421,194.000 891.000,193.435 891.000,193.000 C891.000,192.493 891.385,192.000 892.000,192.000 ZM892.500,374.000 L894.000,376.000 L899.500,376.000 L897.000,368.000 L899.000,368.000 L904.000,376.000 L909.000,376.000 C909.579,376.000 910.000,376.565 910.000,377.000 C910.000,377.507 909.615,378.000 909.000,378.000 L904.000,378.000 L899.000,386.000 L897.000,386.000 L899.500,378.000 L894.000,378.000 L892.500,380.000 L891.000,380.000 L892.000,377.000 L891.000,374.000 L892.500,374.000 ZM892.000,560.000 L897.000,560.000 L902.000,552.000 L904.000,552.000 L901.500,560.000 L907.000,560.000 L908.500,558.000 L910.000,558.000 L909.000,561.000 L910.000,564.000 L908.500,564.000 L907.000,562.000 L901.500,562.000 L904.000,570.000 L902.000,570.000 L897.000,562.000 L892.000,562.000 C891.421,562.000 891.000,561.435 891.000,561.000 C891.000,560.493 891.385,560.000 892.000,560.000 ZM1133.595,117.000 L1135.622,117.000 C1128.148,160.100 1091.009,193.025 1046.000,193.975 L1046.000,194.000 L917.000,194.000 L917.000,192.000 L1044.000,192.000 C1088.798,192.000 1126.033,159.627 1133.595,117.000 ZM1044.000,376.000 L1044.000,376.013 C1089.105,376.489 1126.484,409.079 1134.417,452.000 L1132.384,452.000 C1124.419,409.871 1087.444,378.000 1043.000,378.000 L917.000,378.000 L917.000,376.000 L1043.000,376.000 L1044.000,376.000 ZM1132.595,485.000 L1134.621,485.000 C1127.148,528.100 1090.009,561.024 1045.000,561.974 L1045.000,562.000 L917.000,562.000 L917.000,560.000 L1043.000,560.000 C1087.798,560.000 1125.034,527.627 1132.595,485.000 Z"/>
</svg>