<svg xmlns="http://www.w3.org/2000/svg" width="118" height="73" viewBox="0 0 118 73">
    <defs>
        <linearGradient id="a" x1="25.519%" x2="50%" y1="-18.105%" y2="79.867%">
            <stop offset="0%" stop-color="#FBE39B"/>
            <stop offset="100%" stop-color="#F6C262"/>
        </linearGradient>
    </defs>
    <g fill="url(#a)" fill-rule="evenodd" transform="translate(-940 -4198)">
        <path d="M976.5 4198c20.158 0 36.5 16.342 36.5 36.5s-16.342 36.5-36.5 36.5-36.5-16.342-36.5-36.5 16.342-36.5 36.5-36.5zm.5 18c-1.432 0-2.684 1.26-2.684 2.7v9.9l-14.316 9 1.535 3.38 12.78-4.28v9.9l-3.578 2.7v2.7l6.263-1.8 6.263 1.8v-2.7l-3.579-2.7v-9.9l12.562 4.505L994 4237.6l-14.316-9v-9.9c0-1.44-1.252-2.7-2.684-2.7z"/>
        <path d="M999 4266.599c1.652.264 3.347.401 5.073.401 17.624 0 31.911-14.287 31.911-31.911v-.178c0-17.624-14.287-31.911-31.91-31.911-1.24 0-2.463.07-3.666.208 10.563 6.371 17.626 17.956 17.626 31.19v.203c0 13.815-7.696 25.832-19.034 31.998z" opacity=".8"/>
        <path d="M1025 4262.627c1.492.245 3.023.373 4.584.373h.37c15.463 0 28-12.536 28-28s-12.537-28-28-28h-.37c-1.56 0-3.092.128-4.584.373 9.477 5.556 15.841 15.848 15.841 27.627 0 11.779-6.364 22.071-15.841 27.627z" opacity=".8"/>
    </g>
</svg>
