<?xml version="1.0" encoding="UTF-8"?>
<svg width="582px" height="323px" viewBox="0 0 582 323" version="1.1" xmlns="http://www.w3.org/2000/svg" xmlns:xlink="http://www.w3.org/1999/xlink">
    <!-- Generator: Sketch 46.2 (44496) - http://www.bohemiancoding.com/sketch -->
    <title>white_aeron</title>
    <desc>Created with Sketch.</desc>
    <defs>
        <rect id="path-1" x="0" y="0" width="582" height="323"></rect>
        <linearGradient x1="92.6321659%" y1="7.63998644%" x2="15.8218724%" y2="81.9366702%" id="linearGradient-3">
            <stop stop-color="#00A3B5" offset="0%"></stop>
            <stop stop-color="#007BB7" offset="58.4178375%"></stop>
            <stop stop-color="#464168" offset="100%"></stop>
        </linearGradient>
        <path d="M1.73657045,7.4699382 C10.2910322,2.4899794 21.148407,0 34.3086949,0 C47.4689802,0 58.3263534,2.48997844 66.8808143,7.46993532 L66.8808177,7.46992948 C67.9958621,8.11904963 68.6498608,9.34119104 68.5713288,10.629024 L66.7981677,39.7068037 L66.7981677,39.7068037 C66.0801513,51.4814374 59.8473723,62.2266347 49.9829761,68.6958876 L36.1814362,77.7471918 L36.1814362,77.7471918 C35.0443052,78.4929433 33.5730845,78.4929433 32.4359535,77.7471918 L18.6344136,68.6958876 L18.6344136,68.6958876 C8.77001737,62.2266347 2.53723844,51.4814374 1.81922204,39.7068037 L0.0460608084,10.6290223 L0.0460653317,10.629022 C-0.0324663684,9.34119351 0.621529973,8.11905626 1.73657045,7.4699382 Z" id="path-4"></path>
    </defs>
    <g id="Main_remake" stroke="none" stroke-width="1" fill="none" fill-rule="evenodd">
        <g id="Aeron_full_desctop" transform="translate(-121.000000, -1938.000000)">
            <g id="white_aeron" transform="translate(121.000000, 1938.000000)">
                <g id="aero_pact">
                    <mask id="mask-2" fill="white">
                        <use xlink:href="#path-1"></use>
                    </mask>
                    <use id="Mask" fill="#FFFFFF" xlink:href="#path-1"></use>
                    <g id="shutterstock_8688145-copy-2" opacity="0.100000001" mask="url(#mask-2)" fill="#033152">
                        <g transform="translate(-9.000000, -214.000000)">
                            <path d="M144.560701,544.509491 C142.621976,546.477033 139.456073,546.499269 137.489703,544.560573 C135.523333,542.621877 135.500497,539.456021 137.439823,537.489681 C139.377947,535.523341 142.54385,535.500504 144.51022,537.439801 C146.476589,539.377896 146.499426,542.543752 144.560701,544.509491" id="Fill-6"></path>
                            <path d="M124.115204,526.839497 C122.546813,529.112122 119.433468,529.682982 117.160804,528.11522 C114.88814,526.546856 114.316668,523.433566 115.885059,521.16034 C117.452849,518.888317 120.566194,518.316856 122.839459,519.884618 C125.112124,521.453582 125.682994,524.566272 124.115204,526.839497" id="Fill-7"></path>
                            <path d="M103.540923,513.089606 C102.386136,515.598018 99.4174569,516.695111 96.909611,515.540941 C94.4017652,514.386771 93.3046577,511.417532 94.4594445,508.90912 C95.6136303,506.40251 98.5823094,505.304817 101.090155,506.458987 C103.598001,507.613758 104.695109,510.582997 103.540923,513.089606" id="Fill-8"></path>
                            <path d="M80.8529062,502.198961 C80.1907913,504.879912 77.4810467,506.515401 74.8007427,505.852673 C72.1204388,505.191148 70.4849788,502.481356 71.1470938,499.800405 C71.8092087,497.120656 74.5189533,495.484567 77.1992573,496.147294 C79.8795612,496.810021 81.5150212,499.519212 80.8529062,502.198961" id="Fill-9"></path>
                            <path d="M55.8529062,496.198961 C55.1907913,498.879912 52.4810467,500.515401 49.8007427,499.852673 C47.1204388,499.191148 45.4849788,496.481356 46.1470938,493.800405 C46.8092087,491.120656 49.5189533,489.484567 52.1992573,490.147294 C54.8795612,490.810021 56.5150212,493.519212 55.8529062,496.198961" id="Fill-10"></path>
                            <path d="M30.9972836,492.161942 C30.9077351,494.922762 28.5975057,497.087428 25.837731,496.997284 C23.0773554,496.90774 20.912567,494.597041 21.0027164,491.836821 C21.0922649,489.077203 23.4024943,486.913138 26.16287,487.002682 C28.9226446,487.092826 31.087433,489.402925 30.9972836,492.161942" id="Fill-11"></path>
                            <path d="M288.698852,218.075302 C289.76193,216.80467 291.653721,216.635919 292.924289,217.698425 C294.195483,218.761556 294.364225,220.653441 293.301148,221.924698 C292.238695,223.19533 290.346279,223.364081 289.075711,222.301575 C287.804517,221.238444 287.635775,219.346559 288.698852,218.075302" id="Fill-60"></path>
                            <path d="M298.698876,228.075701 C299.76199,226.804519 301.653845,226.635778 302.925082,227.698846 C304.195694,228.761914 304.363817,230.653688 303.301328,231.92487 C302.238214,233.195427 300.346984,233.364168 299.075747,232.3011 C297.804511,231.238657 297.635762,229.346258 298.698876,228.075701" id="Fill-61"></path>
                            <path d="M309.812831,236.946256 C310.947219,235.738759 312.845992,235.678759 314.053506,236.813131 C315.261645,237.946878 315.321021,239.845623 314.186633,241.053744 C313.052869,242.261241 311.154722,242.321241 309.946582,241.186869 C308.738443,240.052497 308.679067,238.154377 309.812831,236.946256" id="Fill-62"></path>
                            <path d="M320.812372,246.946256 C321.947398,245.738759 323.845567,245.678759 325.05372,246.813131 C326.261248,247.946878 326.321249,249.845623 325.186848,251.053744 C324.053072,252.261241 322.154278,252.321241 320.946125,251.186869 C319.738597,250.052497 319.67922,248.154377 320.812372,246.946256" id="Fill-63"></path>
                            <path d="M372.914518,297.843244 C374.105799,296.691368 376.0046,296.723868 377.156505,297.914494 C378.308411,299.105744 378.276535,301.004495 377.085253,302.156996 C375.894597,303.308246 373.995796,303.276371 372.843266,302.085746 C371.69136,300.89387 371.723861,298.995119 372.914518,297.843244" id="Fill-64"></path>
                            <path d="M382.914723,308.843463 C384.105974,307.691601 386.004725,307.723476 387.1566,308.914712 C388.308476,310.105323 388.276601,312.004676 387.084725,313.156537 C385.8941,314.308399 383.994723,314.276524 382.843473,313.085288 C381.691597,311.894677 381.723472,309.995324 382.914723,308.843463" id="Fill-65"></path>
                            <path d="M392.976417,317.784572 C394.200152,316.66771 396.098254,316.753334 397.215116,317.977069 C398.332603,319.20018 398.246354,321.097657 397.023243,322.215144 C395.799508,323.332005 393.902655,323.247006 392.785169,322.023271 C391.667682,320.800161 391.753306,318.902058 392.976417,317.784572" id="Fill-66"></path>
                            <path d="M402.976505,330.785121 C404.200235,329.66761 406.097703,329.753236 407.215185,330.976998 C408.332666,332.200135 408.246418,334.097653 407.022688,335.215164 C405.799583,336.332675 403.902114,336.246424 402.784633,335.022662 C401.667776,333.799525 401.7534,331.902007 402.976505,330.785121" id="Fill-67"></path>
                            <path d="M413.976505,340.785177 C415.200235,339.667679 417.097703,339.753303 418.215185,340.976427 C419.332666,342.200176 419.246418,344.097049 418.022688,345.215172 C416.799583,346.332671 414.902114,346.246421 413.784633,345.022673 C412.667776,343.799549 412.7534,341.902051 413.976505,340.785177" id="Fill-68"></path>
                            <path d="M422.976401,351.784893 C424.200118,350.667394 426.098191,350.753644 427.21566,351.976767 C428.332505,353.200516 428.246257,355.097389 427.023165,356.214888 C425.799449,357.332387 423.902626,357.246762 422.785157,356.023013 C421.667687,354.799889 421.75331,352.901766 422.976401,351.784893" id="Fill-69"></path>
                            <path d="M433.03043,362.737154 C434.281018,361.649062 436.175961,361.780933 437.263428,363.030895 C438.350896,364.280858 438.219025,366.175801 436.968437,367.263893 C435.718475,368.350736 433.824156,368.218865 432.736689,366.968902 C431.649222,365.718939 431.781093,363.824621 433.03043,362.737154" id="Fill-70"></path>
                            <path d="M443.030514,373.737045 C444.281081,372.649027 446.175367,372.780889 447.263441,374.031392 C448.35089,375.281269 448.219021,377.176084 446.968455,378.263478 C445.719138,379.350872 443.824227,379.21901 442.736153,377.968507 C441.649329,376.718629 441.781198,374.824439 443.030514,373.737045" id="Fill-71"></path>
                            <path d="M452.030532,384.737166 C453.281119,383.649056 455.175437,383.780929 456.262905,385.030913 C457.350997,386.280896 457.219126,388.176496 455.968539,389.263357 C454.718576,390.350843 452.824258,390.21897 451.736165,388.968986 C450.649323,387.719002 450.781194,385.824027 452.030532,384.737166" id="Fill-72"></path>
                            <path d="M462.03105,395.737154 C463.281078,394.649062 465.17612,394.780933 466.263644,396.030895 C467.350543,397.280858 467.21929,399.176426 465.968637,400.263893 C464.718609,401.350736 462.824193,401.218865 461.736669,399.968902 C460.649145,398.718939 460.781023,396.824621 462.03105,395.737154" id="Fill-73"></path>
                            <path d="M472.081128,406.69459 C473.354837,405.63398 475.246025,405.807728 476.305991,407.080835 C477.365957,408.354567 477.192212,410.24579 475.918504,411.305775 C474.64542,412.36576 472.754231,412.192638 471.694266,410.918281 C470.6343,409.645174 470.807419,407.75395 472.081128,406.69459" id="Fill-74"></path>
                            <path d="M481.080593,418.694007 C482.354971,417.634666 484.246224,417.807161 485.306226,419.08087 C486.365603,420.354579 486.192478,422.246393 484.918725,423.305734 C483.645598,424.3657 481.754345,424.192581 480.694343,422.918872 C479.634341,421.645787 479.807466,419.753973 481.080593,418.694007" id="Fill-75"></path>
                            <path d="M490.080593,429.694524 C491.354346,428.633934 493.246224,428.807678 494.306226,430.081387 C495.365603,431.35447 495.192478,433.245659 493.918725,434.30625 C492.645598,435.36559 490.75372,435.192471 489.694343,433.918762 C488.634341,432.645054 488.807466,430.753865 490.080593,429.694524" id="Fill-76"></path>
                            <path d="M499.080593,440.694336 C500.354346,439.634344 502.246224,439.807468 503.306226,441.080584 C504.365603,442.354325 504.192478,444.246186 502.918725,445.306179 C501.645598,446.365546 499.75372,446.192423 498.694343,444.919307 C497.634341,443.645566 497.807466,441.754329 499.080593,440.694336" id="Fill-77"></path>
                            <path d="M509.080805,451.694056 C510.354503,450.6341 512.245675,450.807843 513.306256,452.080915 C514.365587,453.354612 514.192469,455.245784 512.918772,456.305741 C511.645699,457.365697 509.753903,457.192579 508.694571,455.918882 C507.63399,454.645184 507.807733,452.754012 509.080805,451.694056" id="Fill-78"></path>
                            <path d="M518.129292,463.654953 C519.424923,462.621289 521.313058,462.834396 522.345564,464.129914 C523.378069,465.425432 523.166193,467.312152 521.869936,468.345817 C520.574929,469.378231 518.68742,469.165749 517.654289,467.870231 C516.621784,466.575338 516.834285,464.687368 518.129292,463.654953" id="Fill-79"></path>
                            <path d="M527.129701,474.654516 C528.425276,473.621443 530.312703,473.834557 531.345788,475.129493 C532.378248,476.425053 532.165756,478.312459 530.870181,479.345532 C529.575231,480.378606 527.687179,480.165491 526.654719,478.869931 C525.621634,477.574371 525.834126,475.68759 527.129701,474.654516" id="Fill-80"></path>
                            <path d="M536.129669,486.654267 C537.425297,485.62172 539.312801,485.83423 540.345303,487.129914 C541.37843,488.424974 541.165929,490.313185 539.869677,491.345733 C538.574674,492.37828 536.687795,492.16577 535.654043,490.870086 C534.621541,489.575026 534.834666,487.686815 536.129669,486.654267" id="Fill-81"></path>
                            <path d="M546.129279,497.655018 C547.425521,496.621328 549.312385,496.834441 550.345504,498.129366 C551.378622,499.42554 551.165499,501.312306 549.869881,502.345996 C548.574889,503.378436 546.687401,503.165324 545.654282,501.870399 C544.621788,500.574849 544.834287,498.687458 546.129279,497.655018" id="Fill-82"></path>
                            <path d="M555.129456,508.654217 C556.424974,507.621749 558.312318,507.834242 559.345358,509.129828 C560.378398,510.424788 560.165915,512.312856 558.869772,513.345324 C557.574879,514.378417 555.687535,514.165924 554.654495,512.869714 C553.621455,511.574753 553.834562,509.687936 555.129456,508.654217" id="Fill-83"></path>
                            <path d="M564.179283,520.615507 C565.496128,519.610522 567.37921,519.862393 568.384187,521.179873 C569.389789,522.496102 569.137295,524.379198 567.82045,525.384183 C566.503605,526.389792 564.621148,526.137296 563.615546,524.820441 C562.610569,523.503587 562.862438,521.621116 564.179283,520.615507" id="Fill-84"></path>
                            <path d="M573.179331,531.615872 C574.49614,530.610245 576.378546,530.862746 577.384746,532.178997 C578.389696,533.496499 578.137209,535.379001 576.819774,536.384627 C575.50359,537.389628 573.621184,537.137128 572.615609,535.820876 C571.610034,534.503375 571.863146,532.621498 573.179331,531.615872" id="Fill-85"></path>
                            <path d="M364.842532,273.134451 C359.238535,275.860522 356.35214,278.923226 356.35214,278.923226 C356.35214,278.923226 362.963631,285.690651 363.42737,286.210043 C363.891108,286.729435 364.781791,287.823047 364.781791,287.823047 L375.040698,287.44043 L377.289306,289.651826 L368.251071,293.101862 C368.251071,293.101862 369.429108,294.950096 369.113135,295.270221 C368.680935,295.704128 366.975497,294.464898 366.975497,294.464898 L363.750935,303.575188 L361.391942,301.330777 L361.768656,291.096219 C361.768656,291.096219 360.98836,290.622222 360.131553,289.970182 C359.274162,289.31932 352.49972,282.771797 352.49972,282.771797 C352.49972,282.771797 349.879654,285.339869 346.963473,292.278853 C344.047291,299.219015 342.741347,306 342.741347,306 L339.151167,302.822924 L341.457012,271.82978 C341.457012,271.82978 330.581928,261.354097 329.88924,259.07844 C329.487995,257.749009 328.708867,256.545151 329.113032,256.112423 C329.45704,255.744545 330.600617,256.359443 332.018116,256.8075 C335.128204,257.791456 345.606131,268.049007 345.606131,268.049007 L375.672061,265.3701 L379,268.767077 C379,268.767077 370.44653,270.408379 364.842532,273.134451" id="Fill-89"></path>
                            <path d="M446.828078,529.513409 C445.129775,528.457367 444.502617,526.029094 445.42613,524.08885 C446.349644,522.148607 448.474437,521.431248 450.17274,522.48729 C451.869949,523.542708 452.497654,525.97098 451.573594,527.911224 C450.65008,529.851468 448.525287,530.568202 446.828078,529.513409" id="Fill-94"></path>
                            <path d="M455.013803,512.620502 C453.264249,511.682569 452.511394,509.301182 453.332044,507.302216 C454.153241,505.302001 456.236851,504.441552 457.986405,505.379485 C459.73596,506.317418 460.488815,508.69943 459.667618,510.698396 C458.846968,512.697986 456.763358,513.558435 455.013803,512.620502" id="Fill-95"></path>
                            <path d="M463.23512,494.728757 C461.433617,493.929582 460.539153,491.613288 461.237338,489.553804 C461.936616,487.495569 463.963376,486.473326 465.76488,487.271251 C467.566383,488.069801 468.460847,490.386095 467.762662,492.445579 C467.063384,494.504438 465.036624,495.526682 463.23512,494.728757" id="Fill-96"></path>
                            <path d="M471.235374,476.728418 C469.433354,475.929873 468.538905,473.613593 469.237625,471.554121 C469.936345,469.495274 471.963071,468.473037 473.765638,469.271582 C475.567112,470.070127 476.461015,472.386407 475.762294,474.445879 C475.064121,476.504726 473.037395,477.526963 471.235374,476.728418" id="Fill-97"></path>
                            <path d="M477.498093,457.831483 C475.64628,457.198525 474.593802,454.970366 475.147651,452.854677 C475.700954,450.738363 477.650634,449.536181 479.502994,450.168514 C481.353714,450.801471 482.406191,453.02963 481.852342,455.145944 C481.29904,457.261634 479.348813,458.463815 477.498093,457.831483" id="Fill-98"></path>
                            <path d="M483.49797,440.831258 C481.646248,440.198309 480.593822,437.970805 481.147644,435.854521 C481.701466,433.738236 483.650503,432.535447 485.502772,433.16902 C487.353948,433.801343 488.405827,436.029472 487.852551,438.145757 C487.29873,440.261417 485.349146,441.464206 483.49797,440.831258" id="Fill-99"></path>
                            <path d="M488.807604,420.92021 C486.913076,420.482791 485.687237,418.373808 486.06997,416.208584 C486.452156,414.043361 488.298023,412.642996 490.192551,413.07979 C492.087079,413.516584 493.312372,415.626192 492.930186,417.791416 C492.546906,419.956639 490.701586,421.357004 488.807604,420.92021" id="Fill-100"></path>
                            <path d="M493.807604,401.92021 C491.913076,401.482167 490.687237,399.373183 491.06997,397.208584 C491.452156,395.043361 493.298023,393.642996 495.192551,394.07979 C497.087079,394.516584 498.312372,396.626192 497.930186,398.791416 C497.546906,400.956639 495.701586,402.357004 493.807604,401.92021" id="Fill-101"></path>
                            <path d="M497.16861,380.984004 C495.243686,380.800808 493.832805,379.092439 494.016001,377.168063 C494.199197,375.243687 495.907566,373.832805 497.831942,374.016001 C499.755772,374.199197 501.1672,375.907566 500.984004,377.831396 C500.800808,379.755772 499.092986,381.1672 497.16861,380.984004" id="Fill-102"></path>
                            <path d="M498.168063,361.983999 C496.243687,361.800803 494.832805,360.092434 495.016001,358.168604 C495.199197,356.244228 496.907019,354.8328 498.831396,355.015996 C500.755772,355.199192 502.1672,356.907561 501.984004,358.831937 C501.800808,360.756313 500.092439,362.167195 498.168063,361.983999" id="Fill-103"></path>
                            <path d="M495.029916,261.953353 C493.118812,262.287675 491.333475,260.789163 491.040931,258.605136 C490.747841,256.421734 492.060187,254.381434 493.970744,254.046487 C495.880754,253.712791 497.666638,255.211302 497.959182,257.394704 C498.251726,259.578106 496.940473,261.619031 495.029916,261.953353" id="Fill-104"></path>
                            <path d="M492.029548,242.953353 C490.119105,243.287675 488.333875,241.789163 488.040802,239.605136 C487.748276,237.421734 489.059996,235.381434 490.970985,235.046487 C492.880881,234.712791 494.666658,236.211302 494.959185,238.394704 C495.251711,240.578106 493.940537,242.619031 492.029548,242.953353" id="Fill-105"></path>
                            <path d="M487.467036,223.843172 C485.609264,224.453677 483.671123,223.227668 483.136972,221.104959 C482.603368,218.982251 483.676043,216.76706 485.533816,216.156555 C487.391041,215.546675 489.328636,216.772684 489.862786,218.895393 C490.396937,221.018101 489.324262,223.233292 487.467036,223.843172" id="Fill-106"></path>
                            <path d="M512.400347,320.146935 C505.850051,317.895935 501.185652,318.027073 501.185652,318.027073 C501.185652,318.027073 501.149147,328.45895 501.111464,329.225285 C501.073782,329.991035 500.927173,331.538927 500.927173,331.538927 L509.335692,339.249114 L509.392216,342.726016 L499.564122,338.358081 C499.564122,338.358081 499.05894,340.716801 498.560823,340.719143 C497.880181,340.720314 497.495701,338.423064 497.495701,338.423064 L487.860731,343 L487.741795,339.410109 L495.999584,331.735048 C495.999584,331.735048 495.751703,330.75737 495.580365,329.580059 C495.409616,328.404505 495.147604,318.017706 495.147604,318.017706 C495.147604,318.017706 491.077883,317.970871 483.374735,321.098268 C475.672176,324.226836 469.36505,328.488807 469.36505,328.488807 L469,323.211105 L494.927396,300.876151 C494.927396,300.876151 494.47756,284.228704 495.701067,281.917404 C496.415859,280.567389 496.737338,279.021839 497.393251,279.000178 C497.951425,278.98203 498.376532,280.353705 499.149025,281.809098 C500.842387,285.00382 501.147969,301.170625 501.147969,301.170625 L527,322.554246 L526.991757,327.798579 C526.991757,327.798579 518.950643,322.397935 512.400347,320.146935" id="Fill-123"></path>
                            <path d="M253.338814,528.925636 C251.722955,528.560088 250.70945,526.9548 251.074362,525.338889 C251.439898,523.722978 253.04576,522.709441 254.660994,523.074364 C256.276853,523.439912 257.290983,525.045825 256.925446,526.661111 C256.560535,528.277022 254.954673,529.290559 253.338814,528.925636" id="Fill-129"></path>
                            <path d="M256.338889,515.925643 C254.722978,515.560131 253.709441,513.954377 254.074364,512.338626 C254.439912,510.7235 256.045825,509.709439 257.661111,510.074326 C259.277022,510.439838 260.290559,512.045592 259.925636,513.661343 C259.560713,515.277094 257.9548,516.290531 256.338889,515.925643" id="Fill-130"></path>
                            <path d="M260.500098,501.957367 C258.866668,501.681152 257.766259,500.133219 258.042455,498.499671 C258.319275,496.866124 259.867097,495.766261 261.500527,496.042476 C263.133331,496.318692 264.233741,497.866625 263.957545,499.500172 C263.681349,501.13372 262.133527,502.234208 260.500098,501.957367" id="Fill-131"></path>
                            <path d="M262.500007,486.957681 C260.866534,486.681473 259.766722,485.13358 260.0423,483.500075 C260.319128,481.865945 261.866989,480.766735 263.500462,481.042319 C265.133309,481.319152 266.233747,482.867045 265.957544,484.499925 C265.681341,486.134055 264.133479,487.233265 262.500007,486.957681" id="Fill-132"></path>
                            <path d="M264.707801,472.985538 C263.058361,472.824296 261.852688,471.356238 262.014569,469.706938 C262.175826,468.058889 263.643384,466.852694 265.292824,467.014562 C266.941639,467.175804 268.147312,468.643237 267.985431,470.292537 C267.824174,471.941211 266.356616,473.146781 264.707801,472.985538" id="Fill-133"></path>
                            <path d="M265.708085,457.985538 C264.058788,457.823671 262.853219,456.35624 263.014462,454.706942 C263.176329,453.058269 264.64376,451.852701 266.293058,452.014568 C267.941731,452.175811 269.147299,453.643242 268.985432,455.292539 C268.824189,456.941212 267.356758,458.146781 265.708085,457.985538" id="Fill-134"></path>
                            <path d="M265.980625,442.999944 C264.323785,442.988694 262.989438,441.636846 263.000063,439.980629 C263.011313,438.323162 264.362534,436.989438 266.02,437.000063 C267.67684,437.010688 269.010562,438.362536 268.999937,440.019378 C268.989312,441.67622 267.637466,443.009944 265.980625,442.999944" id="Fill-135"></path>
                            <path d="M266.980625,428.999937 C265.32316,428.988687 263.989438,427.636841 264.000063,425.980625 C264.010688,424.32316 265.362534,422.989438 267.019375,423.000063 C268.676215,423.010688 270.010562,424.362534 269.999937,426.019375 C269.988687,427.676215 268.637466,429.010562 266.980625,428.999937" id="Fill-136"></path>
                            <path d="M265.344018,413.979802 C263.698606,414.170418 262.210048,412.990472 262.020072,411.344297 C261.830097,409.698122 263.009945,408.210065 264.655982,408.020074 C266.301394,407.830083 267.789327,409.010029 267.979928,410.656204 C268.169903,412.301754 266.990055,413.789811 265.344018,413.979802" id="Fill-137"></path>
                            <path d="M263.344302,399.979811 C261.698125,400.170424 260.210066,398.989874 260.020074,397.343728 C259.830082,395.698208 261.01003,394.210177 262.656208,394.020189 C264.30176,393.829576 265.789819,395.010126 265.979811,396.655647 C266.170427,398.301168 264.989854,399.789198 263.344302,399.979811" id="Fill-138"></path>
                            <path d="M260.911892,385.857447 C259.33365,386.360458 257.646067,385.490031 257.142479,383.91164 C256.639516,382.333249 257.510486,380.646133 259.088728,380.142497 C260.666346,379.639487 262.353303,380.510538 262.857516,382.088304 C263.360479,383.666695 262.48951,385.353812 260.911892,385.857447" id="Fill-139"></path>
                            <path d="M256.549521,371.568363 C255.131005,372.423883 253.287559,371.968314 252.43145,370.549738 C251.575966,369.131162 252.032141,367.287638 253.450657,366.431493 C254.868548,365.575973 256.711995,366.032167 257.568104,367.450118 C258.424213,368.869319 257.968038,370.712843 256.549521,371.568363" id="Fill-140"></path>
                            <path d="M247.550084,358.568363 C246.131532,359.423883 244.287413,358.968314 243.431907,357.549738 C242.575777,356.131162 243.031963,354.288263 244.450516,353.431493 C245.869068,352.575973 247.712562,353.032167 248.568068,354.450118 C249.424198,355.869319 248.968012,357.712843 247.550084,358.568363" id="Fill-141"></path>
                            <path d="M241.002862,347.233603 C239.769129,348.339896 237.87228,348.236142 236.766045,347.002344 C235.660435,345.769171 235.763558,343.872223 236.997917,342.765931 C238.23165,341.660263 240.127874,341.764017 241.234109,342.99719 C242.339719,344.231612 242.235971,346.127935 241.002862,347.233603" id="Fill-142"></path>
                            <path d="M232.002289,336.23409 C230.768543,337.339728 228.872299,337.235977 227.766053,336.002837 C226.660431,334.769072 226.763556,332.872174 227.997927,331.76591 C229.231673,330.660272 231.127917,330.764023 232.234164,331.997163 C233.339785,333.231553 233.236036,335.127826 232.002289,336.23409" id="Fill-143"></path>
                            <path d="M219.259732,325.973798 C218.169147,327.221261 216.274215,327.349382 215.026761,326.259414 C213.778681,325.169447 213.650561,323.274502 214.740521,322.026414 C215.830482,320.778326 217.725413,320.65083 218.973492,321.740798 C220.221572,322.830765 220.349067,324.72571 219.259732,325.973798" id="Fill-144"></path>
                            <path d="M208.367392,315.842603 C207.349902,317.150048 205.464296,317.385039 204.157434,316.366956 C202.849947,315.349499 202.614949,313.464577 203.633064,312.157132 C204.650554,310.849686 206.535535,310.615321 207.843023,311.632779 C209.149885,312.650861 209.384882,314.535158 208.367392,315.842603" id="Fill-145"></path>
                            <path d="M198.367451,307.842566 C197.349357,309.150053 195.464414,309.385051 194.156954,308.366936 C192.850118,307.349446 192.615126,305.464465 193.632595,304.156977 C194.650689,302.850115 196.535007,302.615118 197.842467,303.632608 C199.149927,304.650723 199.38492,306.535079 198.367451,307.842566" id="Fill-146"></path>
                            <path d="M185.363123,298.847591 C184.342509,300.153102 182.456904,300.383707 181.151918,299.363171 C179.846932,298.342635 179.61631,296.457174 180.636924,295.152287 C181.656913,293.846776 183.542517,293.616171 184.847503,294.637332 C186.153114,295.657868 186.383737,297.542704 185.363123,298.847591" id="Fill-147"></path>
                            <path d="M175.363136,289.847503 C174.342542,291.153114 172.456976,291.383737 171.152017,290.363123 C169.847057,289.342509 169.616439,287.457529 170.636408,286.151918 C171.657001,284.846932 173.542567,284.61631 174.847527,285.636924 C176.153111,286.657538 176.383729,288.542517 175.363136,289.847503" id="Fill-148"></path>
                            <path d="M162.258014,279.975605 C161.166794,281.222468 159.271219,281.348716 158.024378,280.257477 C156.777536,279.166238 156.651289,277.271257 157.74251,276.024395 C158.833731,274.777532 160.72868,274.651284 161.975522,275.742523 C163.222364,276.833762 163.34861,278.728743 162.258014,279.975605" id="Fill-149"></path>
                            <path d="M152.040991,272.198457 C150.82665,273.325967 148.928579,273.255342 147.801736,272.040956 C146.674267,270.827195 146.744265,268.929053 147.959231,267.801543 C149.172947,266.674033 151.071019,266.744658 152.198487,267.959044 C153.325955,269.17343 153.255332,271.070947 152.040991,272.198457" id="Fill-150"></path>
                            <path d="M142.041485,259.198206 C140.827063,260.325662 138.928865,260.255665 137.801321,259.041337 C136.674403,257.82701 136.744406,255.92896 137.958827,254.801504 C139.173249,253.674048 141.071448,253.744671 142.198366,254.958998 C143.32591,256.173325 143.255282,258.071375 142.041485,259.198206" id="Fill-151"></path>
                            <path d="M132.704062,249.46889 C131.340422,250.410074 129.472447,250.066973 128.531273,248.703943 C127.590099,247.340289 127.932572,245.472294 129.296212,244.53111 C130.659852,243.589926 132.527826,243.933027 133.469,245.296057 C134.409549,246.659711 134.067702,248.528331 132.704062,249.46889" id="Fill-152"></path>
                            <path d="M123.70384,236.468936 C122.340254,237.410099 120.472354,237.067006 119.531218,235.703382 C118.590081,234.340383 118.93254,232.471805 120.29675,231.531267 C121.659711,230.590104 123.527611,230.932572 124.468748,232.296197 C125.409884,233.659821 125.067426,235.528398 123.70384,236.468936" id="Fill-153"></path>
                            <path d="M120.339692,204.755649 C114.587765,205.105726 111.04862,206.681075 111.04862,206.681075 C111.04862,206.681075 114.370163,214.672946 114.587172,215.270898 C114.804181,215.868849 115.188987,217.099407 115.188987,217.099407 L124.12075,220.337624 L125.280503,222.98024 L116.331546,222.746463 C116.331546,222.746463 116.700936,224.711244 116.319688,224.870424 C115.797917,225.086579 114.764456,223.45073 114.764456,223.45073 L108.836431,230 L107.59189,227.291011 L111.468408,218.808091 C111.468408,218.808091 110.963832,218.137892 110.454513,217.29148 C109.945786,216.446242 106.408419,208.584181 106.408419,208.584181 C106.408419,208.584181 103.268903,209.835297 98.3595164,214.664136 C93.4495373,219.493561 89.9756129,224.748249 89.9756129,224.748249 L88,220.827498 L100.735944,195.540855 C100.735944,195.540855 95.0456807,182.948048 95.2419376,180.792369 C95.3575572,179.533617 95.1085303,178.250195 95.6053982,178.02523 C96.0281509,177.835506 96.7947978,178.750055 97.8549406,179.619375 C100.18097,181.527767 105.60679,193.798103 105.60679,193.798103 L132.322626,201.980285 L134,205.99443 C134,205.99443 126.091619,204.406158 120.339692,204.755649" id="Fill-167"></path>
                            <path d="M9.98086236,416.652185 C8.23967897,415.812622 7.50881937,413.721611 8.34781946,411.981127 C9.18681955,410.239427 11.2785482,409.508606 13.0197316,410.34817 C14.7603075,411.187126 15.4911671,413.278744 14.652167,415.019836 C13.8131669,416.76032 11.7214382,417.491141 9.98086236,416.652185" id="Fill-169"></path>
                            <path d="M18.8415732,400.581121 C17.1398773,399.664911 16.5025766,397.54329 17.4187343,395.840889 C18.3348919,394.139704 20.4563922,393.502367 22.1586957,394.419184 C23.8603917,395.334179 24.4970849,397.457015 23.5815347,399.158201 C22.6647696,400.860601 20.5432692,401.497331 18.8415732,400.581121" id="Fill-170"></path>
                            <path d="M26.8417148,384.581541 C25.1393922,383.66475 24.5026919,381.542581 25.4188598,379.840837 C26.3350278,378.1397 28.4565519,377.502381 30.1588746,378.419172 C31.8605897,379.334141 32.49729,381.456917 31.581122,383.158054 C30.6649541,384.860406 28.5428224,385.497117 26.8417148,384.581541" id="Fill-171"></path>
                            <path d="M35.6842659,370.491474 C34.0317547,369.488438 33.5056243,367.335951 34.5086743,365.68407 C35.5117243,364.031582 37.663634,363.505459 39.3161451,364.509103 C40.9680487,365.511531 41.4941791,367.663411 40.4917367,369.315899 C39.4886867,370.967779 37.3361695,371.49451 35.6842659,370.491474" id="Fill-172"></path>
                            <path d="M45.5071045,354.376561 C43.9181995,353.276212 43.5226442,351.095565 44.6230293,349.50732 C45.724022,347.918468 47.9041334,347.522318 49.4930384,348.623274 C51.0819435,349.723623 51.4774988,351.903662 50.3765061,353.492515 C49.276121,355.081975 47.0960096,355.477517 45.5071045,354.376561" id="Fill-173"></path>
                            <path d="M54.5070664,340.376726 C52.9182016,339.276377 52.5226562,337.09573 53.6230135,335.507485 C54.7239784,333.918025 56.9040347,333.522483 58.4935071,334.623439 C60.0817644,335.723788 60.4773097,337.903827 59.3769525,339.49268 C58.2759876,341.081532 56.0959313,341.477682 54.5070664,340.376726" id="Fill-174"></path>
                            <path d="M65.309955,326.229613 C63.8018373,325.019838 63.5606114,322.817208 64.7703867,321.309091 C65.9801621,319.802188 68.1827917,319.560355 69.6909095,320.770737 C71.197812,321.980513 71.4396455,324.183142 70.2292625,325.690045 C69.0200948,327.198163 66.8168575,327.439389 65.309955,326.229613" id="Fill-175"></path>
                            <path d="M76.309443,313.229796 C74.8018779,312.0194 74.5606432,309.816745 75.7704626,308.309219 C76.9802821,306.802299 79.182992,306.560463 80.690557,307.770252 C82.1981221,308.980041 82.4393568,311.182695 81.2295374,312.690222 C80.0197179,314.197749 77.817008,314.439585 76.309443,313.229796" id="Fill-176"></path>
                            <path d="M87.0927098,298.040259 C85.6890973,296.710125 85.6301578,294.494652 86.95964,293.092207 C88.2897299,291.689155 90.5051286,291.630214 91.9081334,292.959741 C93.3105306,294.289875 93.3700778,296.504741 92.0399879,297.907793 C90.7105057,299.310845 88.495107,299.369786 87.0927098,298.040259" id="Fill-177"></path>
                            <path d="M100.092639,286.04058 C98.6890094,284.71049 98.6300691,282.495091 99.960175,281.092086 C101.289673,279.689081 103.505099,279.630142 104.90812,280.960232 C106.310534,282.289714 106.370082,284.505113 105.039976,285.90751 C103.710478,287.310515 101.495053,287.370062 100.092639,286.04058" id="Fill-178"></path>
                            <path d="M110.972904,272.92141 C109.63545,271.525074 109.682847,269.309651 111.078637,267.972862 C112.474426,266.635466 114.689945,266.682861 116.0274,268.07859 C117.364246,269.474319 117.317456,271.689742 115.921059,273.027138 C114.52527,274.364534 112.310358,274.317139 110.972904,272.92141" id="Fill-179"></path>
                            <path d="M124.859214,261.796864 C123.59047,260.338538 123.744809,258.127958 125.203136,256.859214 C126.661462,255.59047 128.872042,255.744809 130.140786,257.203136 C131.40953,258.661462 131.255191,260.872042 129.796864,262.140786 C128.338538,263.40953 126.12735,263.255191 124.859214,261.796864" id="Fill-180"></path>
                            <path d="M138.859469,247.797068 C137.590652,246.338691 137.744392,244.128033 139.20341,242.859244 C140.661213,241.590455 142.872528,241.7448 144.140737,243.203178 C145.409554,244.661556 145.255205,246.872214 143.796795,248.141002 C142.338385,249.409184 140.127678,249.255446 138.859469,247.797068" id="Fill-181"></path>
                            <path d="M151.619851,238.488121 C150.521949,236.897368 150.921131,234.717829 152.511783,233.619857 C154.102436,232.521885 156.281836,232.921092 157.380346,234.512453 C158.478249,236.102599 158.078459,238.282137 156.487807,239.380109 C154.897154,240.478082 152.717754,240.078874 151.619851,238.488121" id="Fill-182"></path>
                            <path d="M165.62028,228.488381 C164.521773,226.897121 164.920954,224.71772 166.512209,223.619818 C168.102857,222.521915 170.282251,222.921097 171.38015,224.512357 C172.47805,226.10301 172.078869,228.28241 170.488221,229.380313 C168.897573,230.478215 166.717572,230.078426 165.62028,228.488381" id="Fill-183"></path>
                            <path d="M180.390447,218.105375 C179.504088,216.387366 180.177818,214.276912 181.895252,213.39057 C183.612078,212.504228 185.722571,213.177337 186.609537,214.894739 C187.495896,216.612141 186.822166,218.722595 185.10534,219.609544 C183.387906,220.495886 181.276805,219.822169 180.390447,218.105375" id="Fill-184"></path>
                            <path d="M571.339409,215.997659 C572.169831,214.252319 574.257123,213.509958 576.002406,214.339799 C577.747689,215.16964 578.490026,217.257001 577.660212,219.002341 C576.831005,220.747681 574.743105,221.490042 572.997823,220.660201 C571.25254,219.83036 570.510203,217.742999 571.339409,215.997659" id="Fill-203"></path>
                            <path d="M585.412362,224.853285 C586.322415,223.147387 588.442631,222.502815 590.14731,223.41287 C591.852596,224.322318 592.497166,226.441933 591.587113,228.147223 C590.677668,229.851906 588.558666,230.497085 586.852772,229.587637 C585.148094,228.677582 584.502916,226.557968 585.412362,224.853285" id="Fill-204"></path>
                            <path d="M591.400718,405.005438 C592.77829,407.712526 591.700289,411.023354 588.993259,412.400957 C586.287374,413.777986 582.976045,412.700535 581.599045,409.993446 C580.222045,407.287503 581.299473,403.976675 584.005931,402.599073 C586.712961,401.222043 590.023145,402.299494 591.400718,405.005438" id="Fill-207"></path>
                            <path d="M564.501105,417.213949 C565.763512,419.977096 564.5475,423.239144 561.785555,424.501004 C559.023037,425.763437 555.761055,424.547973 554.498648,421.785399 C553.236814,419.023398 554.452253,415.760776 557.214198,414.498916 C559.976143,413.236483 563.238698,414.45252 564.501105,417.213949" id="Fill-208"></path>
                            <path d="M537.575313,430.384352 C538.743744,433.188182 537.418376,436.407289 534.615287,437.575217 C531.812198,438.743718 528.592712,437.418844 527.424281,434.614441 C526.256422,431.812329 527.582363,428.59265 530.384879,427.424721 C533.188541,426.25622 536.407454,427.581667 537.575313,430.384352" id="Fill-209"></path>
                            <path d="M510.654343,440.584959 C511.71168,443.431636 510.261994,446.596775 507.414744,447.654112 C504.56864,448.712022 501.403501,447.261763 500.345591,444.414513 C499.288254,441.567836 500.738513,438.403271 503.58519,437.345361 C506.431867,436.288596 509.597006,437.738282 510.654343,440.584959" id="Fill-210"></path>
                            <path d="M482.736252,449.822006 C483.663011,452.714491 482.069535,455.810309 479.177565,456.736477 C476.285595,457.662645 473.190287,456.069774 472.263528,453.177289 C471.337342,450.285376 472.930245,447.190131 475.822788,446.263963 C478.714185,445.336649 481.810065,446.930666 482.736252,449.822006" id="Fill-211"></path>
                            <path d="M455.819047,460.105887 C456.588856,463.04418 454.831585,466.048913 451.894399,466.819284 C448.956641,467.58851 445.951295,465.831262 445.180914,462.893542 C444.411105,459.955822 446.168949,456.951089 449.106135,456.180718 C452.043893,455.411493 455.049812,457.16874 455.819047,460.105887" id="Fill-212"></path>
                            <path d="M427.819047,467.105602 C428.588856,470.043934 426.831585,473.048707 423.894399,473.819089 C420.956641,474.588897 417.951295,472.831053 417.180914,469.893294 C416.411105,466.956108 418.168949,463.950761 421.106135,463.180953 C424.043893,462.411144 427.049812,464.168415 427.819047,467.105602" id="Fill-213"></path>
                            <path d="M398.897267,473.446802 C399.478667,476.428875 397.533413,479.316433 394.552523,479.897267 C391.571633,480.478674 388.684111,478.533395 388.102711,475.551895 C387.521312,472.571541 389.467139,469.683983 392.447456,469.102576 C395.428345,468.521742 398.315868,470.466448 398.897267,473.446802" id="Fill-214"></path>
                            <path d="M369.96211,477.859856 C370.315576,480.876663 368.156397,483.608747 365.139619,483.962217 C362.12284,484.315113 359.391356,482.156486 359.03789,479.139106 C358.684424,476.122871 360.843603,473.390787 363.860954,473.03789 C366.877159,472.684421 369.609217,474.843621 369.96211,477.859856" id="Fill-215"></path>
                            <path d="M339.998181,480.359931 C340.075527,483.397057 337.676644,485.921408 334.640083,485.998181 C331.603522,486.075527 329.079165,483.67665 329.001819,480.639523 C328.924473,477.602969 331.323356,475.079191 334.36049,475.001845 C337.396478,474.923926 339.921408,477.323377 339.998181,480.359931" id="Fill-216"></path>
                            <path d="M310.998181,480.359358 C311.075528,483.396485 308.676072,485.920835 305.63951,485.998181 C302.602949,486.075528 300.078593,483.676077 300.001819,480.63895 C299.924473,477.602969 302.322783,475.078619 305.359918,475.001846 C308.396479,474.923927 310.920835,477.322804 310.998181,480.359358" id="Fill-217"></path>
                            <path d="M281.980376,478.958856 C281.72658,481.986663 279.067172,484.234746 276.040533,483.980375 C273.013322,483.727151 270.765256,481.067149 271.019624,478.039915 C271.27342,475.013826 273.932828,472.765743 276.959467,473.01954 C279.986678,473.273338 282.234744,475.932767 281.980376,478.958856" id="Fill-218"></path>
                            <path d="M252.874476,476.663074 C252.23121,479.631902 249.304151,481.516991 246.33585,480.874308 C243.368121,480.231625 241.483004,477.304611 242.125697,474.335783 C242.768389,471.3681 245.695448,469.483012 248.66375,470.125695 C251.632051,470.768378 253.516596,473.695391 252.874476,476.663074" id="Fill-219"></path>
                            <path d="M142.085077,431.537166 C140.407183,434.069214 136.994684,434.761804 134.462663,433.085038 C131.930643,431.407699 131.238061,427.995163 132.915381,425.462542 C134.592702,422.931067 138.005201,422.237905 140.536649,423.915243 C143.069242,425.593155 143.761824,429.005118 142.085077,431.537166" id="Fill-220"></path>
                            <path d="M118.084657,415.536759 C116.407353,418.069387 112.994887,418.761978 110.462892,417.084635 C107.930896,415.407865 107.237748,411.99532 108.915625,409.462693 C110.592929,406.931211 114.004821,406.238047 116.536817,407.914817 C119.069385,409.592733 119.76196,413.004705 118.084657,415.536759" id="Fill-221"></path>
                            <path d="M94.7654135,397.971859 C92.8473718,400.328187 89.3830953,400.682811 87.0279372,398.764749 C84.6722063,396.847261 84.3170134,393.383521 86.235055,391.027193 C88.1525238,388.67201 91.6162274,388.317387 93.9719584,390.234875 C96.3276893,392.152364 96.6828822,395.616676 94.7654135,397.971859" id="Fill-222"></path>
                            <path d="M73.3973582,379.380231 C71.2534531,381.533317 67.7711829,381.540765 65.6192568,379.397419 C63.4667578,377.254073 63.4593097,373.771207 65.6026418,371.619267 C67.745974,369.466754 71.2282442,369.459306 73.3807432,371.602652 C75.5332422,373.745998 75.5406903,377.228864 73.3973582,379.380231" id="Fill-223"></path>
                            <path d="M52.9909222,357.749546 C50.6437459,359.677932 47.1782664,359.338201 45.2504538,356.991025 C43.3220683,354.643849 43.6617987,351.178942 46.008975,349.249984 C48.3561513,347.322171 51.8216308,347.661901 53.7500163,350.009078 C55.677829,352.356254 55.3380985,355.821734 52.9909222,357.749546" id="Fill-224"></path>
                            <path d="M36.5599155,336.069391 C34.0358833,337.759353 30.6199042,337.083941 28.9299598,334.559883 C27.2405882,332.035825 27.916566,328.619811 30.4411711,326.929849 C32.9646304,325.240461 36.3800367,325.917018 38.0699811,328.440503 C39.7593526,330.964561 39.0833749,334.380002 36.5599155,336.069391" id="Fill-225"></path>
                            <path d="M21.0764871,310.358133 C18.3928765,311.780948 15.0648556,310.759088 13.6419978,308.076131 C12.21914,305.393174 13.2404586,302.064681 15.9240693,300.641867 C18.6065343,299.219052 21.935128,300.240912 23.3579858,302.923869 C24.7808436,305.607398 23.759525,308.935319 21.0764871,310.358133" id="Fill-226"></path>
                            <path d="M8.55363341,284.600726 C5.73621828,285.734794 2.53333449,284.370476 1.39926619,281.553636 C0.265197897,278.736223 1.62951642,275.533341 4.44693155,274.399274 C7.26377391,273.265206 10.4666577,274.629524 11.600726,277.446364 C12.7347943,280.263777 11.3704758,283.466659 8.55363341,284.600726" id="Fill-227"></path>
                            <path d="M170.89606,468.336927 C177.763424,461.115697 180.374162,454.932122 180.374162,454.932122 C180.374162,454.932122 166.678216,448.618545 165.693386,448.10913 C164.707969,447.599714 162.760052,446.479117 162.760052,446.479117 L147.606252,452.854459 L143,450.839738 L154.606416,440.599074 C154.606416,440.599074 151.804705,438.521999 152.099684,437.867877 C152.503957,436.976694 155.7546,437.853171 155.7546,437.853171 L155.483713,422.493057 L160.274474,424.493071 L165.441891,439.911422 C165.441891,439.911422 166.875652,440.173776 168.525065,440.656721 C170.173303,441.139078 183.987946,447.035004 183.987946,447.035004 C183.987946,447.035004 186.47705,441.734376 186.959475,429.774287 C187.440725,417.81361 185.598577,407 185.598577,407 L192.756219,409.690608 L206.659591,457.040373 C206.659591,457.040373 228.818255,466.450443 231.126963,469.439877 C232.476109,471.185772 234.317082,472.534606 233.953353,473.406965 C233.644272,474.148147 231.588235,473.87991 229.213714,474.01697 C224.002227,474.315207 202.561619,465.006314 202.561619,465.006314 L159.021108,486 L152.130239,482.839388 C152.130239,482.839388 164.028108,475.558746 170.89606,468.336927" id="Fill-229"></path>
                        </g>
                    </g>
                </g>
                <g id="Group-8-Copy" transform="translate(109.000000, 122.000000)">
                    <path d="M128.986667,72.3299416 L123.785926,59.8502213 L100.074074,59.8502213 L94.8733333,72.3299416 L82.4444444,72.3299416 L107.919259,11.6250167 L116.557778,11.6250167 L141.327407,72.3299416 L128.986667,72.3299416 Z M103.688148,50.4012903 L120.436296,50.4012903 L112.15037,29.0074842 L103.688148,50.4012903 Z M179.728468,12.8729887 L147.113653,12.8729887 L147.113653,72.3299416 L179.728468,72.3299416 L179.728468,62.3461654 L158.572912,62.3461654 L158.572912,46.1225291 L178.846987,46.1225291 L178.846987,36.1387529 L158.572912,36.1387529 L158.572912,22.8567649 L179.728468,22.8567649 L179.728468,12.8729887 Z M189.745825,12.8729887 L206.758418,12.8729887 C214.868047,12.8729887 219.01101,15.0123693 221.743603,17.3300317 C226.239158,21.1630886 227.561381,26.2441176 227.561381,30.7011605 C227.561381,36.4953163 225.269529,41.5763453 220.685825,44.6962753 C219.187306,45.7659656 217.071751,46.7465151 214.25101,47.2813602 L232.585825,72.3299416 L218.305825,72.3299416 L202.615455,48.4401914 L201.205084,48.4401914 L201.205084,72.3299416 L189.745825,72.3299416 L189.745825,12.8729887 Z M201.205084,22.3219198 L201.205084,40.2392324 L204.466566,40.2392324 C206.670269,40.2392324 215.749529,39.9718098 215.749529,31.2360057 C215.749529,22.4110606 206.758418,22.3219198 204.642862,22.3219198 L201.205084,22.3219198 Z M267.813552,11.5358759 C286.324663,11.5358759 299.194293,24.5504412 299.194293,42.6460356 C299.194293,60.7416299 286.324663,73.6670545 267.813552,73.6670545 C249.302441,73.6670545 236.432812,60.7416299 236.432812,42.6460356 C236.432812,24.5504412 249.302441,11.5358759 267.813552,11.5358759 Z M267.813552,63.1484331 C279.272812,63.1484331 287.382441,54.6800515 287.382441,42.6460356 C287.382441,30.6120196 279.272812,22.0544972 267.813552,22.0544972 C256.354293,22.0544972 248.244663,30.6120196 248.244663,42.6460356 C248.244663,54.6800515 256.354293,63.1484331 267.813552,63.1484331 Z M320.14202,72.3299416 L320.14202,32.1274142 L355.930168,73.4887727 L363.863502,73.4887727 L363.863502,12.8729887 L352.404243,12.8729887 L352.404243,52.8972344 L316.616094,11.5358759 L308.682761,11.5358759 L308.682761,72.3299416 L320.14202,72.3299416 Z" id="outlines-copy" fill="#033152"></path>
                    <g id="logo-copy-2">
                        <g id="Oval" transform="translate(0.000000, 0.873930)">
                            <mask id="mask-5" fill="white">
                                <use xlink:href="#path-4"></use>
                            </mask>
                            <g id="Mask">
                                <use fill="url(#linearGradient-3)" fill-rule="evenodd" xlink:href="#path-4"></use>
                                <path stroke="#FFFFFF" stroke-width="2.39042486" d="M1.13525165,6.43700623 C9.88758209,1.34185863 20.9502967,-1.19521243 34.3086949,-1.19521243 C47.6670905,-1.19521243 58.7298033,1.34185765 67.4821276,6.43700013 C68.9874425,7.3133047 69.8703435,8.96319615 69.7643252,10.7017728 L67.991164,39.7795525 C67.2501946,51.9305899 60.8181703,63.0192826 50.6384356,69.6953402 L36.8368957,78.7466445 C35.3017688,79.753409 33.3156209,79.753409 31.780494,78.7466445 L17.9789541,69.6953402 C7.79921942,63.0192826 1.36719513,51.9305899 0.626225661,39.7795525 L-1.14693582,10.701767 C-1.25294749,8.96319842 -0.370051711,7.31331487 1.13525165,6.43700623 Z"></path>
                            </g>
                        </g>
                        <path d="M1.55555556,7.2736957 L32.9294557,64.6657101 L32.9294557,64.6657101 C33.38178,65.4931431 34.4192282,65.7972288 35.2466611,65.3449046 C35.5360649,65.1866992 35.7734538,64.9480601 35.9301369,64.6578293 L67.0617284,6.99143991" id="Path-11" stroke="#FFFFFF" stroke-width="2.30735984"></path>
                        <path d="M3.97530864,0.401045205 L33.7243115,54.1792582 L33.7243115,54.1792582 C33.9981879,54.6743532 34.6215623,54.8536863 35.1166573,54.5798099 C35.2892053,54.4843599 35.4305403,54.3411408 35.5236971,54.167344 L64.4691358,0.165623633" id="Path-11-Copy" stroke="#FFFFFF" stroke-width="2.30735984" transform="translate(34.222222, 27.436820) scale(1, -1) translate(-34.222222, -27.436820) "></path>
                        <ellipse id="Oval-3" fill="#FFFFFF" cx="52.7160494" cy="33.0345536" rx="3.80246914" ry="3.84529195"></ellipse>
                        <ellipse id="Oval-3-Copy-2" fill="#FFFFFF" cx="34.3950617" cy="66.0691071" rx="3.80246914" ry="3.84529195"></ellipse>
                        <ellipse id="Oval-3-Copy" fill="#FFFFFF" cx="15.2098765" cy="33.0345536" rx="3.80246914" ry="3.84529195"></ellipse>
                        <path d="M34.4436234,66.2633003 L34.4436234,79.6631994" id="Line" stroke="#FFFFFF" stroke-width="2.30735984" stroke-linecap="square"></path>
                        <path d="M7.60493827,60.3212043 C10.1634499,60.9314655 19.1736346,63.1387431 34.6354923,66.9430371 L61.5308642,59.7768112" id="Path-12" stroke="#FFFFFF" stroke-width="2.30735984"></path>
                        <path d="M48.0493827,33.2967326 C48.0493827,32.1854616 47.0875309,31.2130995 45.9882716,31.2130995 L38.4308642,31.2130995 L31.5604938,20.1003897 L28.9806991,21.291741 L32.2475309,31.2130995 L24.6901235,31.2130995 L22.6290123,28.4349221 L20.5679012,28.4349221 L21.9419753,33.2967326 L20.5679012,38.1585431 L22.6290123,38.1585431 L24.6901235,35.3803656 L32.2475309,35.3803656 L28.8082449,45.1315311 L31.5604938,46.4930754 L38.4308642,35.3803656 L45.9882716,35.3803656 C47.0875309,35.3803656 48.0493827,34.4080035 48.0493827,33.2967326 Z" id="Shape" fill="#FFFFFF" fill-rule="nonzero" transform="translate(34.308642, 33.296733) rotate(-90.000000) translate(-34.308642, -33.296733) "></path>
                    </g>
                </g>
            </g>
        </g>
    </g>
</svg>